SplineFontDB: 3.0
FontName: Courier-X-Roman
FullName: Courier X
FamilyName: Courier X
Weight: Roman
Copyright: Copyright 1990 as an unpublished work by Bitstream Inc.  All rights reserved.  Confidential.
Version: 2.0-1.0
ItalicAngle: 0
UnderlinePosition: -80
UnderlineWidth: 67
Ascent: 800
Descent: 200
sfntRevision: 0x00020000
LayerCount: 2
Layer: 0 0 "Back"  1
Layer: 1 0 "Fore"  0
XUID: [1021 97 1268352346 10305666]
FSType: 0
OS2Version: 3
OS2_WeightWidthSlopeOnly: 0
OS2_UseTypoMetrics: 1
CreationTime: 1289879472
ModificationTime: 1345706060
PfmFamily: 17
TTFWeight: 400
TTFWidth: 5
LineGap: 75
VLineGap: 0
Panose: 2 0 5 9 0 0 0 0 0 0
OS2TypoAscent: 105
OS2TypoAOffset: 1
OS2TypoDescent: 0
OS2TypoDOffset: 1
OS2TypoLinegap: 75
OS2WinAscent: 0
OS2WinAOffset: 1
OS2WinDescent: 0
OS2WinDOffset: 1
HheadAscent: 105
HheadAOffset: 1
HheadDescent: 0
HheadDOffset: 1
OS2SubXSize: 542
OS2SubYSize: 583
OS2SubXOff: 0
OS2SubYOff: 117
OS2SupXSize: 542
OS2SupYSize: 583
OS2SupXOff: 0
OS2SupYOff: 400
OS2StrikeYSize: 41
OS2StrikeYPos: 215
OS2Vendor: 'PfEd'
OS2CodePages: 00000001.00000000
OS2UnicodeRanges: 800000af.40000048.00000000.00000000
MarkAttachClasses: 1
DEI: 91125
LangName: 1033 "" "" "Roman" 
GaspTable: 3 9 2 14 3 65535 2
Encoding: UnicodeBmp
Compacted: 1
UnicodeInterp: none
NameList: Adobe Glyph List
DisplaySize: -24
AntiAlias: 1
FitToEm: 1
WinInfo: 0 67 19
BeginPrivate: 7
BlueValues 39 [-14 0 376 387 482 497 513 527 532 533]
OtherBlues 11 [-162 -162]
BlueScale 8 0.039625
BlueShift 1 0
StdHW 4 [56]
StdVW 4 [61]
ExpansionFactor 4 0.06
EndPrivate
TeXData: 1 0 0 524288 262144 174762 394265 1048576 174762 783286 444596 497025 792723 393216 433062 380633 303038 157286 324010 404750 52429 2506097 1059062 262144
BeginChars: 65536 229

StartChar: exclam
Encoding: 33 33 2
Width: 500
VWidth: 833
GlyphClass: 2
Flags: W
HStem: -9 129<193.333 310.16>
VStem: 175 152<9.625 102.928> 203 95<331.8 502.917>
LayerCount: 2
Fore
SplineSet
175 56 m 0xc0
 175 93 204 120 251 120 c 0
 298 120 327 93 327 56 c 0
 327 18 298 -9 251 -9 c 0
 205 -9 175 19 175 56 c 0xc0
203 455 m 1xa0
 203 459 l 2
 203 491 222 510 251 510 c 0
 280 510 298 491 298 459 c 2
 298 455 l 1
 284 191 l 2
 283 173 270 160 251 160 c 0
 232 160 219 173 218 191 c 2
 203 455 l 1xa0
EndSplineSet
Validated: 1
EndChar

StartChar: quotedbl
Encoding: 34 34 3
Width: 500
VWidth: 833
GlyphClass: 2
Flags: W
HStem: 282 200<142.749 207.251 293.791 359.186>
VStem: 129 92<376.692 482> 281 91<369.917 482>
LayerCount: 2
Fore
SplineSet
162 282 m 2
 146 282 144 289 142 307 c 2
 129 458 l 1
 129 462 l 2
 129 475 136 482 148 482 c 2
 202 482 l 2
 214 482 221 475 221 462 c 2
 221 458 l 1
 208 307 l 2
 206 289 204 282 188 282 c 2
 162 282 l 2
314 282 m 2
 298 282 295 289 293 307 c 2
 281 458 l 1
 281 462 l 2
 281 475 288 482 300 482 c 2
 354 482 l 2
 366 482 372 475 372 462 c 2
 372 458 l 1
 360 307 l 2
 358 289 355 282 339 282 c 2
 314 282 l 2
EndSplineSet
Validated: 1
EndChar

StartChar: numbersign
Encoding: 35 35 4
Width: 500
VWidth: 833
GlyphClass: 2
Flags: W
HStem: 153 55<88.3789 165 218 275 330 412.621> 305 54<88.2897 172 227 284 337 412.71>
VStem: 156 50<-47.6463 100.5> 185 50<412.1 560.836> 267 51<-47.6783 114.111> 296 51<412.1 560.712>
LayerCount: 2
Fore
SplineSet
206 -22 m 2xe8
 205 -39 196 -48 179 -48 c 0
 165 -48 156 -38 156 -22 c 2
 156 -20 l 1xe8
 165 153 l 1
 114 153 l 2
 96 153 88 163 88 181 c 0
 88 199 96 208 114 208 c 2
 168 208 l 1
 172 305 l 1
 114 305 l 2
 96 305 88 314 88 332 c 0
 88 350 96 359 114 359 c 2
 175 359 l 1
 185 536 l 2
 186 553 195 561 210 561 c 0
 225 561 235 552 235 535 c 2
 235 533 l 1
 227 359 l 1
 286 359 l 1
 296 536 l 2
 297 553 306 561 321 561 c 0
 336 561 347 552 347 535 c 2
 347 533 l 1xd4
 337 359 l 1
 387 359 l 2
 405 359 413 350 413 332 c 0
 413 314 405 305 387 305 c 2
 335 305 l 1
 330 208 l 1
 387 208 l 2
 405 208 413 199 413 181 c 0
 413 163 405 153 387 153 c 2
 327 153 l 1
 318 -22 l 2
 317 -39 308 -48 291 -48 c 0
 277 -48 267 -39 267 -22 c 2
 267 -20 l 1
 275 153 l 1
 216 153 l 1
 206 -22 l 2xe8
218 208 m 1
 278 208 l 1
 284 305 l 1
 223 305 l 1
 218 208 l 1
EndSplineSet
Validated: 1
EndChar

StartChar: dollar
Encoding: 36 36 5
Width: 500
VWidth: 833
GlyphClass: 2
Flags: W
HStem: -102 186<210.104 285.526> 39 130<85.1665 145.247> 368 114<345.374 396.045> 438 140<235.161 287.868>
VStem: 82 72<105.076 164.509> 92 68<328.021 417.962> 204 58<-101.104 29.1311> 229 62<488.636 575.672> 332 65<370.544 423.762> 344 70<103.993 193.08>
LayerCount: 2
Fore
SplineSet
299 281 m 2x1580
 376 256 414 215 414 152 c 0
 414 84 361 34 267 28 c 1
 262 -67 l 2
 261 -90 251 -102 232 -102 c 0x9640
 211 -102 204 -92 204 -70 c 2
 204 -62 l 1
 209 30 l 1
 186 34 166 44 146 58 c 1
 138 46 129 39 117 39 c 0
 96 39 82 54 82 79 c 2
 82 136 l 2
 82 155 95 169 115 169 c 0
 147 169 146 138 154 124 c 0x4a40
 164 106 210 84 259 84 c 0
 311 84 344 111 344 148 c 0
 344 191 311 206 253 226 c 2
 182 250 l 2
 126 269 92 316 92 369 c 0
 92 437 141 484 229 491 c 1
 233 545 l 2
 235 567 245 578 263 578 c 0x9540
 281 578 291 568 291 549 c 2
 291 544 l 1
 288 488 l 1
 307 483 326 477 345 468 c 1
 353 478 360 482 368 482 c 0
 390 482 397 470 397 448 c 2
 397 398 l 2
 397 379 386 368 368 368 c 0x2580
 343 368 341 384 332 402 c 0
 321 424 290 438 251 438 c 0
 193 438 160 411 160 373 c 0
 160 343 181 320 221 307 c 2
 299 281 l 2x1580
EndSplineSet
Validated: 1
EndChar

StartChar: percent
Encoding: 37 37 6
Width: 500
VWidth: 833
GlyphClass: 2
Flags: W
HStem: -9 47<253.529 360.089> 162 48<58.1971 76 253.239 360.586> 302 49<141.318 248.586 428 442.631> 474 48<141.536 248.586>
VStem: 76 51<365.646 458.64> 188 50<54.5691 146.797> 263 50<365.646 458.64> 375 50<52.8613 147.267>
LayerCount: 2
Fore
SplineSet
76 412 m 0
 76 474 126 522 195 522 c 0
 265 522 313 474 313 412 c 0
 313 350 265 302 195 302 c 0
 125 302 76 350 76 412 c 0
188 101 m 0
 188 163 238 210 307 210 c 0
 377 210 425 163 425 101 c 0
 425 39 377 -9 307 -9 c 0
 237 -9 188 39 188 101 c 0
410 348 m 2
 414 350 419 351 422 351 c 0
 435 351 443 341 443 328 c 0
 443 319 438 310 428 306 c 2
 92 166 l 2
 88 164 85 163 82 163 c 0
 69 163 58 174 58 186 c 0
 58 195 66 204 76 208 c 2
 410 348 l 2
127 412 m 0
 127 376 153 351 195 351 c 0
 237 351 263 376 263 412 c 0
 263 448 237 474 195 474 c 0
 153 474 127 448 127 412 c 0
238 101 m 0
 238 65 265 38 307 38 c 0
 349 38 375 65 375 101 c 0
 375 137 349 162 307 162 c 0
 265 162 238 137 238 101 c 0
EndSplineSet
Validated: 1
EndChar

StartChar: ampersand
Encoding: 38 38 7
Width: 500
VWidth: 833
GlyphClass: 2
Flags: W
HStem: -9 63<168.437 271.832> 0 60<386 412.202> 180 62<386.031 417.003> 372 61<302.141 335.513> 402 54<191.19 287.058>
VStem: 74 72<76.073 186.674> 119 65<305.786 394.613>
LayerCount: 2
Fore
SplineSet
284 86 m 1xa4
 193 209 l 1
 161 187 146 161 146 130 c 0
 146 88 178 54 218 54 c 0
 241 54 262 65 284 86 c 1xa4
320 38 m 1
 283 6 244 -9 201 -9 c 0
 129 -9 74 47 74 122 c 0xa4
 74 176 101 216 158 258 c 1
 133 294 119 325 119 354 c 0
 119 411 166 456 228 456 c 0xaa
 252 456 275 446 302 432 c 1
 305 433 309 433 312 433 c 0
 330 433 339 424 339 409 c 0
 339 389 321 372 308 372 c 0x32
 290 372 265 402 232 402 c 0
 204 402 184 383 184 358 c 0
 184 336 200 313 221 284 c 2
 322 146 l 1
 344 201 337 242 370 242 c 2
 395 242 l 2
 406 242 418 230 418 211 c 0
 418 191 413 184 392 180 c 1
 385 152 374 123 361 95 c 1
 386 60 l 1
 396 60 l 2
 405 60 413 50 413 32 c 0
 413 10 404 0 392 0 c 2
 358 0 l 2x6a
 347 0 341 10 332 22 c 2
 320 38 l 1
EndSplineSet
Validated: 1
EndChar

StartChar: quotesingle
Encoding: 39 39 8
Width: 500
VWidth: 833
GlyphClass: 2
Flags: W
HStem: 276 206<216.749 284.302>
VStem: 203 95<373.538 482>
LayerCount: 2
Fore
SplineSet
238 276 m 2
 221 276 218 284 216 302 c 2
 203 457 l 1
 203 462 l 2
 203 476 210 482 222 482 c 2
 278 482 l 2
 290 482 298 476 298 462 c 2
 298 457 l 1
 285 302 l 2
 283 284 280 276 263 276 c 2
 238 276 l 2
EndSplineSet
Validated: 1
EndChar

StartChar: parenleft
Encoding: 40 40 9
Width: 500
VWidth: 833
GlyphClass: 2
Flags: W
HStem: -163 21G<308.5 322.5> 477 20G<308.5 322.5>
VStem: 168 80<23.3249 310.655>
LayerCount: 2
Fore
SplineSet
333 478 m 0
 333 464 317 439 299 397 c 0
 270 328 248 259 248 167 c 0
 248 95 262 31 288 -36 c 0
 311 -95 333 -128 333 -144 c 0
 333 -156 327 -163 318 -163 c 0
 299 -163 272 -138 240 -86 c 0
 192 -8 168 75 168 167 c 0
 168 259 192 341 240 419 c 0
 272 471 299 497 318 497 c 0
 327 497 333 490 333 478 c 0
EndSplineSet
Validated: 1
EndChar

StartChar: parenright
Encoding: 41 41 10
Width: 500
VWidth: 833
GlyphClass: 2
Flags: W
HStem: -163 21G<178.5 192.5> 477 20G<178.5 192.5>
VStem: 252 81<23.0595 310.39>
LayerCount: 2
Fore
SplineSet
168 -144 m 0
 168 -130 184 -105 202 -63 c 0
 231 6 252 75 252 167 c 0
 252 239 239 303 213 370 c 0
 190 429 168 462 168 478 c 0
 168 490 174 497 183 497 c 0
 202 497 229 471 261 419 c 0
 309 341 333 259 333 167 c 0
 333 75 309 -8 261 -86 c 0
 229 -138 202 -163 183 -163 c 0
 174 -163 168 -156 168 -144 c 0
EndSplineSet
Validated: 1
EndChar

StartChar: asterisk
Encoding: 42 42 11
Width: 500
VWidth: 833
GlyphClass: 2
Flags: W
HStem: 331 67<96.8307 129.423 371.308 404.169> 462 20G<227.5 273.5>
VStem: 217 67<391.545 482>
LayerCount: 2
Fore
SplineSet
274 349 m 1
 382 395 l 2
 386 397 390 398 392 398 c 0
 398 398 399 393 402 383 c 2
 412 352 l 2
 414 345 415 343 415 341 c 0
 415 336 410 333 402 331 c 2
 288 305 l 1
 365 217 l 2
 368 213 371 209 371 205 c 0
 371 203 369 198 361 193 c 2
 334 174 l 2
 327 170 324 168 322 168 c 0
 318 168 314 170 311 177 c 2
 251 278 l 1
 190 177 l 2
 187 171 182 168 179 168 c 0
 177 168 174 169 167 174 c 2
 141 193 l 2
 133 198 130 203 130 205 c 0
 130 209 132 213 136 217 c 2
 212 305 l 1
 99 331 l 2
 91 333 86 336 86 340 c 0
 86 342 86 346 88 352 c 2
 99 383 l 2
 102 393 105 398 110 398 c 0
 112 398 116 398 120 396 c 2
 228 349 l 1
 217 466 l 1
 217 471 l 2
 217 481 221 482 234 482 c 2
 267 482 l 2
 280 482 284 481 284 471 c 2
 284 466 l 1
 274 349 l 1
EndSplineSet
Validated: 1
EndChar

StartChar: plus
Encoding: 43 43 12
Width: 500
VWidth: 833
GlyphClass: 2
Flags: W
HStem: 227 59<42.1899 220 281 459.805>
VStem: 220 61<43.5505 227 286 470.583>
LayerCount: 2
Fore
SplineSet
428 286 m 2
 447 286 461 274 461 256 c 0
 461 238 447 227 428 227 c 2
 281 227 l 1
 281 74 l 2
 281 55 269 42 251 42 c 0
 234 42 220 56 220 74 c 2
 220 227 l 1
 73 227 l 2
 54 227 41 238 41 256 c 0
 41 273 55 286 73 286 c 2
 220 286 l 1
 220 439 l 2
 220 458 233 472 251 472 c 0
 269 472 281 458 281 439 c 2
 281 286 l 1
 428 286 l 2
EndSplineSet
Validated: 1
EndChar

StartChar: comma
Encoding: 44 44 13
Width: 500
VWidth: 833
GlyphClass: 2
Flags: W
HStem: -131 266<202.001 220.469>
VStem: 202 130<85.2692 134.843>
LayerCount: 2
Fore
SplineSet
202 113 m 2
 206 131 211 135 229 135 c 2
 318 135 l 2
 326 135 332 132 332 127 c 0
 332 125 330 120 328 115 c 2
 217 -118 l 2
 213 -126 206 -131 198 -131 c 0
 196 -131 193 -130 191 -129 c 2
 162 -118 l 2
 154 -115 149 -110 149 -103 c 0
 149 -99 149 -96 150 -93 c 2
 202 113 l 2
EndSplineSet
Validated: 1
EndChar

StartChar: hyphen
Encoding: 45 45 14
Width: 500
VWidth: 833
GlyphClass: 2
Flags: W
HStem: 212 76<63 438>
LayerCount: 2
Fore
SplineSet
81 212 m 2
 70 212 63 219 63 231 c 2
 63 271 l 2
 63 281 70 288 81 288 c 2
 418 288 l 2
 430 288 438 281 438 271 c 2
 438 231 l 2
 438 221 428 212 418 212 c 2
 81 212 l 2
EndSplineSet
Validated: 1
EndChar

StartChar: period
Encoding: 46 46 15
Width: 500
VWidth: 833
GlyphClass: 2
Flags: W
HStem: -6 145<191.705 310.295>
VStem: 171 160<15.9841 117.539>
LayerCount: 2
Fore
SplineSet
171 67 m 0
 171 109 203 139 251 139 c 0
 299 139 331 109 331 67 c 0
 331 25 299 -6 251 -6 c 0
 203 -6 171 25 171 67 c 0
EndSplineSet
Validated: 1
EndChar

StartChar: slash
Encoding: 47 47 16
Width: 500
VWidth: 833
GlyphClass: 2
Flags: W
VStem: 95 324
LayerCount: 2
Fore
SplineSet
159 -11 m 2
 149 -33 141 -46 123 -46 c 0
 108 -46 95 -34 95 -18 c 0
 95 -13 97 -7 99 -1 c 2
 353 547 l 2
 365 571 373 582 390 582 c 0
 405 582 419 571 419 555 c 0
 419 550 417 545 415 540 c 2
 159 -11 l 2
EndSplineSet
Validated: 1
EndChar

StartChar: zero
Encoding: 48 48 17
Width: 500
VWidth: 833
GlyphClass: 2
Flags: W
HStem: -13 57<203.14 298.628> 468 59<203.14 298.628>
VStem: 91 67<105.87 407.677> 342 69<105.87 407.677>
LayerCount: 2
Fore
SplineSet
251 -13 m 0
 152 -13 91 85 91 257 c 0
 91 429 152 527 251 527 c 0
 350 527 411 429 411 257 c 0
 411 85 350 -13 251 -13 c 0
251 468 m 0
 191 468 158 397 158 257 c 0
 158 117 191 44 251 44 c 0
 311 44 342 117 342 257 c 0
 342 397 311 468 251 468 c 0
EndSplineSet
Validated: 1
EndChar

StartChar: one
Encoding: 49 49 18
Width: 500
VWidth: 833
GlyphClass: 2
Flags: W
HStem: 0 58<107.615 230 294 414.347> 507 20G<275.5 283>
VStem: 230 64<58 434>
LayerCount: 2
Fore
SplineSet
153 407 m 2
 149 406 145 405 141 405 c 0
 123 405 112 416 112 431 c 0
 112 444 121 454 139 459 c 1
 260 524 l 2
 266 527 273 527 278 527 c 0
 288 527 294 517 294 500 c 2
 294 58 l 1
 359 58 l 2
 397 58 415 56 415 29 c 0
 415 10 404 0 382 0 c 2
 139 0 l 2
 117 0 107 10 107 29 c 0
 107 56 124 58 162 58 c 2
 230 58 l 1
 230 434 l 1
 153 407 l 2
EndSplineSet
Validated: 1
EndChar

StartChar: two
Encoding: 50 50 19
Width: 500
VWidth: 833
GlyphClass: 2
Flags: W
HStem: 0 100<348.584 400.019> 0 64<160 351.941> 470 57<173.704 300.012>
VStem: 332 70<307.759 436.581> 346 60<64 98.7344>
LayerCount: 2
Fore
SplineSet
109 0 m 2x68
 81 0 67 11 67 36 c 0
 67 64 99 92 157 147 c 0
 264 248 332 304 332 372 c 0
 332 430 294 470 242 470 c 0
 208 470 174 455 156 431 c 0
 146 418 140 393 112 393 c 0
 92 393 88 408 88 436 c 0
 88 452 89 460 101 472 c 0
 135 505 189 527 244 527 c 0
 335 527 402 461 402 376 c 0x70
 402 279 316 217 210 112 c 1
 160 64 l 1
 346 64 l 1x68
 348 88 359 100 377 100 c 0
 395 100 406 89 406 67 c 0
 406 65 405 60 405 58 c 2
 401 27 l 2
 399 9 390 0 378 0 c 2xa8
 109 0 l 2x68
EndSplineSet
Validated: 1
EndChar

StartChar: three
Encoding: 51 51 20
Width: 500
VWidth: 833
GlyphClass: 2
Flags: W
HStem: -13 62<153.792 307.504> 242 62<203.787 303.397> 470 57<174.671 302.257>
VStem: 329 68<329.594 441.913> 345 69<86.5838 210.17>
LayerCount: 2
Fore
SplineSet
314 280 m 1xf0
 378 262 414 214 414 148 c 0
 414 56 342 -13 233 -13 c 0
 146 -13 75 25 75 62 c 0
 75 79 88 91 105 91 c 0
 129 91 171 49 236 49 c 0
 302 49 345 90 345 148 c 0xe8
 345 196 316 233 267 242 c 0
 225 250 203 237 203 273 c 0
 203 303 216 297 258 304 c 0
 300 311 329 342 329 382 c 0
 329 434 293 470 245 470 c 0
 185 470 154 427 129 427 c 0
 114 427 102 437 102 452 c 0
 102 480 167 527 249 527 c 0
 337 527 397 465 397 393 c 0
 397 336 371 300 314 280 c 1xf0
EndSplineSet
Validated: 1
EndChar

StartChar: four
Encoding: 52 52 21
Width: 500
VWidth: 833
GlyphClass: 2
Flags: W
HStem: 0 58<208.542 285 345 404.336> 126 62<131 285 345 390.404> 507 20G<275.5 281.5>
VStem: 285 60<58 126 188 465>
LayerCount: 2
Fore
SplineSet
241 0 m 2
 217 0 208 6 208 29 c 0
 208 49 217 58 238 58 c 2
 285 58 l 1
 285 126 l 1
 95 126 l 2
 82 126 73 134 73 151 c 2
 73 179 l 2
 73 198 82 207 88 218 c 2
 260 512 l 2
 267 524 271 527 280 527 c 0
 283 527 287 527 291 526 c 2
 332 519 l 2
 340 517 345 510 345 498 c 2
 345 188 l 1
 366 188 l 2
 383 188 378 202 391 202 c 0
 402 202 410 194 410 182 c 0
 410 180 410 175 408 168 c 2
 405 151 l 2
 402 133 397 126 379 126 c 2
 345 126 l 1
 345 58 l 1
 359 58 l 2
 391 58 405 51 405 29 c 0
 405 10 394 0 372 0 c 2
 241 0 l 2
285 188 m 1
 285 465 l 1
 131 188 l 1
 285 188 l 1
EndSplineSet
Validated: 1
EndChar

StartChar: five
Encoding: 53 53 22
Width: 500
VWidth: 833
GlyphClass: 2
Flags: W
HStem: -13 59<132.311 300.387> 288 56<160.282 300.322> 463 64<159 380.49>
VStem: 100 59<327 463> 350 68<94.3991 235.825>
LayerCount: 2
Fore
SplineSet
159 327 m 1
 193 339 224 344 252 344 c 0
 349 344 418 263 418 166 c 0
 418 64 343 -13 232 -13 c 0
 136 -13 71 17 71 50 c 0
 71 64 83 78 99 78 c 0
 119 78 165 46 228 46 c 0
 302 46 350 95 350 163 c 0
 350 230 302 288 237 288 c 0
 174 288 146 251 122 251 c 0
 102 251 100 266 100 292 c 2
 100 502 l 2
 100 521 112 527 138 527 c 2
 343 527 l 2
 370 527 382 516 382 495 c 0
 382 475 368 463 343 463 c 2
 159 463 l 1
 159 327 l 1
EndSplineSet
Validated: 1
EndChar

StartChar: six
Encoding: 54 54 23
Width: 500
VWidth: 833
GlyphClass: 2
Flags: W
HStem: -13 58<200.986 313.265> 264 59<197.576 310.473> 468 59<255.304 406.939>
VStem: 84 79<98.2424 291.093> 347 69<79.9338 226.077>
LayerCount: 2
Fore
SplineSet
154 267 m 1
 183 305 220 323 262 323 c 0
 345 323 416 253 416 156 c 0
 416 58 352 -13 261 -13 c 0
 155 -13 84 77 84 220 c 0
 84 406 188 527 343 527 c 0
 391 527 408 522 408 499 c 0
 408 461 367 479 309 468 c 0
 225 452 168 382 154 267 c 1
163 158 m 0
 163 89 205 45 258 45 c 0
 309 45 347 86 347 152 c 0
 347 219 307 264 254 264 c 0
 202 264 163 220 163 158 c 0
EndSplineSet
Validated: 1
EndChar

StartChar: seven
Encoding: 55 55 24
Width: 500
VWidth: 833
GlyphClass: 2
Flags: W
HStem: -8 21G<198.5 244.5> 466 61<144.334 356>
VStem: 92 57<429.042 465.876>
LayerCount: 2
Fore
SplineSet
257 8 m 2
 252 -7 249 -8 240 -8 c 2
 233 -8 l 1
 204 -8 l 2
 193 -8 187 -3 187 5 c 0
 187 8 187 13 189 18 c 2
 356 466 l 1
 149 466 l 1
 147 441 138 428 119 428 c 0
 100 428 92 438 92 456 c 0
 92 459 91 463 92 467 c 2
 97 503 l 2
 99 518 108 527 124 527 c 2
 393 527 l 2
 408 527 416 521 416 506 c 2
 416 492 l 2
 416 484 413 473 408 458 c 2
 257 8 l 2
EndSplineSet
Validated: 1
EndChar

StartChar: eight
Encoding: 56 56 25
Width: 500
VWidth: 833
GlyphClass: 2
Flags: W
HStem: -13 56<186.258 318.117> 233 58<187.393 314.2> 473 54<188.017 314.187>
VStem: 85 67<77.5298 199.943 326.278 436.577> 350 67<76.0664 200.074 327.784 436.055>
LayerCount: 2
Fore
SplineSet
169 263 m 1
 116 290 90 329 90 382 c 0
 90 464 155 527 251 527 c 0
 347 527 412 462 412 382 c 0
 412 329 384 288 332 263 c 1
 387 241 417 196 417 138 c 0
 417 49 349 -13 251 -13 c 0
 152 -13 85 50 85 140 c 0
 85 195 115 240 169 263 c 1
156 382 m 0
 156 329 195 291 251 291 c 0
 306 291 346 328 346 383 c 0
 346 433 309 473 251 473 c 0
 194 473 156 434 156 382 c 0
152 138 m 0
 152 84 190 43 251 43 c 0
 311 43 350 80 350 138 c 0
 350 196 309 233 251 233 c 0
 193 233 152 196 152 138 c 0
EndSplineSet
Validated: 1
EndChar

StartChar: nine
Encoding: 57 57 26
Width: 500
VWidth: 833
GlyphClass: 2
Flags: W
HStem: -13 58<90.472 241.952> 190 59<187.835 299.631> 468 59<185.121 296.821>
VStem: 82 70<285.919 433.381> 335 79<222.538 414.732>
LayerCount: 2
Fore
SplineSet
335 355 m 0
 335 424 293 468 240 468 c 0
 189 468 152 427 152 361 c 0
 152 294 190 249 243 249 c 0
 294 249 335 293 335 355 c 0
343 246 m 1
 313 208 279 190 237 190 c 0
 154 190 82 260 82 357 c 0
 82 456 147 527 237 527 c 0
 342 527 414 436 414 292 c 0
 414 106 312 -13 152 -13 c 0
 107 -13 89 -9 89 13 c 0
 89 52 131 34 188 45 c 0
 273 62 329 131 343 246 c 1
EndSplineSet
Validated: 1
EndChar

StartChar: colon
Encoding: 58 58 27
Width: 500
VWidth: 833
GlyphClass: 2
Flags: W
HStem: -6 145<191.705 310.295> 219 145<191.705 310.295>
VStem: 171 160<15.9841 117.539 240.984 342.539>
LayerCount: 2
Fore
SplineSet
171 67 m 0
 171 109 203 139 251 139 c 0
 299 139 331 109 331 67 c 0
 331 25 299 -6 251 -6 c 0
 203 -6 171 25 171 67 c 0
171 292 m 0
 171 334 203 364 251 364 c 0
 299 364 331 334 331 292 c 0
 331 250 299 219 251 219 c 0
 203 219 171 250 171 292 c 0
EndSplineSet
Validated: 1
EndChar

StartChar: semicolon
Encoding: 59 59 28
Width: 500
VWidth: 833
GlyphClass: 2
Flags: W
HStem: 219 145<188.705 307.818>
VStem: 168 161<240.984 342.539> 200 122<71.2857 119.929>
LayerCount: 2
Fore
SplineSet
168 292 m 0xc0
 168 334 200 364 248 364 c 0
 296 364 329 334 329 292 c 0
 329 250 296 219 248 219 c 0
 200 219 168 250 168 292 c 0xc0
200 99 m 2xa0
 204 115 207 120 225 120 c 2
 309 120 l 2
 317 120 322 116 322 112 c 0
 322 110 320 106 318 101 c 2
 213 -118 l 2
 209 -126 204 -131 196 -131 c 0
 194 -131 190 -130 188 -129 c 2
 162 -119 l 2
 154 -117 149 -111 149 -105 c 0
 149 -101 150 -97 151 -95 c 2
 200 99 l 2xa0
EndSplineSet
Validated: 1
EndChar

StartChar: less
Encoding: 60 60 29
Width: 500
VWidth: 833
GlyphClass: 2
Flags: W
LayerCount: 2
Fore
SplineSet
70 297 m 2
 393 445 l 2
 406 452 417 455 426 455 c 0
 443 455 452 445 452 429 c 0
 452 412 441 403 419 393 c 2
 132 257 l 1
 419 120 l 2
 441 110 452 100 452 83 c 0
 452 67 443 58 426 58 c 0
 416 58 406 62 393 68 c 2
 70 218 l 2
 44 230 28 236 28 258 c 0
 28 280 42 285 70 297 c 2
EndSplineSet
Validated: 1
EndChar

StartChar: equal
Encoding: 61 61 30
Width: 500
VWidth: 833
GlyphClass: 2
Flags: W
HStem: 158 60<42.6554 457.345> 295 60<42.6554 457.345>
LayerCount: 2
Fore
SplineSet
68 158 m 2
 51 158 42 168 42 188 c 0
 42 208 51 218 68 218 c 2
 432 218 l 2
 449 218 458 208 458 188 c 0
 458 168 449 158 432 158 c 2
 68 158 l 2
68 295 m 2
 51 295 42 305 42 325 c 0
 42 345 51 355 68 355 c 2
 432 355 l 2
 449 355 458 345 458 325 c 0
 458 305 449 295 432 295 c 2
 68 295 l 2
EndSplineSet
Validated: 1
EndChar

StartChar: greater
Encoding: 62 62 31
Width: 500
VWidth: 833
GlyphClass: 2
Flags: W
LayerCount: 2
Fore
SplineSet
432 216 m 2
 108 68 l 2
 95 61 85 58 76 58 c 0
 59 58 49 67 49 83 c 0
 49 100 61 110 83 120 c 2
 370 256 l 1
 83 393 l 2
 61 403 49 412 49 429 c 0
 49 445 59 455 76 455 c 0
 86 455 95 451 108 445 c 2
 432 294 l 2
 458 282 473 277 473 255 c 0
 473 233 460 228 432 216 c 2
EndSplineSet
Validated: 1
EndChar

StartChar: question
Encoding: 63 63 32
Width: 500
VWidth: 833
GlyphClass: 2
Flags: W
HStem: -6 123<166.747 284.16> 157 110<202.726 253.768> 381 21G<123.5 149.5> 453 57<164.777 310.909>
VStem: 102 61<382.341 442.44> 150 151<11.2078 100.632> 195 61<158.134 226.156> 341 65<317.284 424.907>
LayerCount: 2
Fore
SplineSet
195 210 m 2xfb
 195 238 202 254 228 267 c 0
 283 296 341 307 341 369 c 0
 341 418 305 453 242 453 c 0
 204 453 169 439 163 429 c 0
 158 421 167 381 132 381 c 0
 115 381 102 395 102 417 c 2
 102 457 l 2
 102 486 170 510 248 510 c 0
 345 510 406 450 406 368 c 0
 406 297 358 257 256 219 c 1
 256 187 l 2
 256 169 244 157 225 157 c 0
 206 157 195 168 195 186 c 2
 195 210 l 2xfb
150 56 m 0xf5
 150 91 178 117 225 117 c 0
 272 117 301 91 301 56 c 0
 301 21 272 -6 225 -6 c 0
 179 -6 150 22 150 56 c 0xf5
EndSplineSet
Validated: 1
EndChar

StartChar: at
Encoding: 64 64 33
Width: 500
VWidth: 833
GlyphClass: 2
Flags: W
HStem: -43 52<214.582 353.861> 137 51<242.018 326.139> 333 47<252.694 327> 506 51<203.874 302.291>
VStem: 91 56<100.464 426.19> 177 53<199.445 309.784> 327 55<191.2 333 379 480.045>
LayerCount: 2
Fore
SplineSet
327 379 m 1
 327 390 l 2
 327 466 301 506 255 506 c 0
 189 506 147 423 147 268 c 0
 147 96 190 9 278 9 c 0
 310 9 334 25 352 25 c 0
 362 25 371 16 371 4 c 0
 371 -22 331 -43 274 -43 c 0
 160 -43 91 59 91 259 c 0
 91 455 156 557 258 557 c 0
 347 557 382 492 382 361 c 2
 382 195 l 1
 391 183 396 175 396 166 c 0
 396 148 380 132 363 132 c 0
 353 132 344 139 332 151 c 1
 311 142 291 137 270 137 c 0
 219 137 177 180 177 249 c 0
 177 328 227 380 312 380 c 0
 317 380 322 379 327 379 c 1
327 198 m 1
 327 332 l 1
 321 333 316 333 311 333 c 0
 260 333 230 301 230 252 c 0
 230 211 251 188 287 188 c 0
 296 188 309 191 327 198 c 1
EndSplineSet
Validated: 1
EndChar

StartChar: A
Encoding: 65 65 34
Width: 500
VWidth: 833
GlyphClass: 2
Flags: W
HStem: 0 58<1.5332 49 112 197.293 309.664 392 460 504.516> 154 54<167 333> 424 58<83.6819 188>
LayerCount: 2
Fore
SplineSet
188 424 m 1
 128 424 l 2
 97 424 83 431 83 453 c 0
 83 482 102 482 140 482 c 2
 256 482 l 2
 279 482 290 482 301 455 c 2
 460 58 l 1
 467 58 l 2
 495 58 505 51 505 29 c 0
 505 6 495 0 468 0 c 2
 358 0 l 2
 326 0 309 2 309 29 c 0
 309 52 323 58 355 58 c 2
 392 58 l 1
 353 154 l 1
 147 154 l 1
 112 58 l 1
 151 58 l 2
 183 58 198 52 198 29 c 0
 198 2 182 0 150 0 c 2
 43 0 l 2
 12 0 1 4 1 29 c 0
 1 51 11 58 39 58 c 2
 49 58 l 1
 188 424 l 1
167 208 m 1
 333 208 l 1
 245 424 l 1
 167 208 l 1
EndSplineSet
Validated: 1
EndChar

StartChar: B
Encoding: 66 66 35
Width: 500
VWidth: 833
GlyphClass: 2
Flags: W
HStem: 0 58<35.5462 100 164 358.375> 236 52<164 339.826> 424 58<38.5877 100 164 345.282>
VStem: 100 64<58 236 288 424> 362 70<308.562 407.234> 393 71<89.8608 207.809>
LayerCount: 2
Fore
SplineSet
246 0 m 1xf4
 63 0 l 2
 44 0 35 10 35 29 c 0
 35 57 50 58 86 58 c 2
 100 58 l 1
 100 424 l 1
 87 424 l 2
 52 424 38 426 38 453 c 0
 38 472 48 482 66 482 c 2
 256 482 l 2
 374 482 432 445 432 362 c 0xf8
 432 320 415 289 378 268 c 1
 437 247 464 206 464 148 c 0
 464 106 445 58 411 32 c 0
 370 2 326 0 275 0 c 2
 246 0 l 1xf4
164 288 m 1
 249 288 l 2
 325 288 362 307 362 359 c 0
 362 407 329 424 265 424 c 2
 164 424 l 1
 164 288 l 1
164 58 m 1
 254 58 l 2
 347 58 393 84 393 149 c 0xf4
 393 216 347 236 258 236 c 2
 164 236 l 1
 164 58 l 1
EndSplineSet
Validated: 1
EndChar

StartChar: C
Encoding: 67 67 36
Width: 500
VWidth: 833
GlyphClass: 2
Flags: W
HStem: -12 64<189.214 354.903> 315 174<379.858 437.877> 440 55<188.094 337.551>
VStem: 32 75<139.741 349.892> 372 69<318.257 407.458>
LayerCount: 2
Fore
SplineSet
379 469 m 1xb8
 385 483 393 489 409 489 c 0
 437 489 439 476 439 448 c 0
 439 386 441 354 441 348 c 0
 441 326 436 315 412 315 c 0xd8
 377 315 381 335 372 372 c 0
 362 410 320 440 266 440 c 0
 172 440 107 369 107 241 c 0
 107 123 177 52 268 52 c 0
 298 52 331 60 363 78 c 0
 390 93 407 112 421 112 c 0
 439 112 451 99 451 82 c 0
 451 64 435 51 405 32 c 0
 360 3 316 -12 264 -12 c 0
 132 -12 32 92 32 241 c 0
 32 386 131 495 266 495 c 0
 304 495 340 486 379 469 c 1xb8
EndSplineSet
Validated: 1
EndChar

StartChar: D
Encoding: 68 68 37
Width: 500
VWidth: 833
GlyphClass: 2
Flags: W
HStem: 0 58<41.6155 90 153 320.005> 424 58<41.5742 90 153 318.223>
VStem: 90 63<58 424> 398 67<135.481 348.365>
LayerCount: 2
Fore
SplineSet
153 0 m 2
 89 0 l 1
 71 0 l 2
 51 0 41 10 41 29 c 0
 41 51 51 58 79 58 c 2
 90 58 l 1
 90 424 l 1
 80 424 l 2
 52 424 41 431 41 453 c 0
 41 481 57 482 89 482 c 2
 153 482 l 1
 243 482 l 2
 376 482 465 391 465 241 c 0
 465 168 441 104 398 59 c 0
 355 14 296 -2 211 -2 c 0
 193 -2 174 0 153 0 c 2
153 58 m 1
 171 56 188 55 204 55 c 0
 337 55 398 113 398 241 c 0
 398 371 338 426 201 426 c 0
 186 426 170 426 153 424 c 1
 153 58 l 1
EndSplineSet
Validated: 1
EndChar

StartChar: E
Encoding: 69 69 38
Width: 500
VWidth: 833
GlyphClass: 2
Flags: W
HStem: 0 58<28.6699 102 167 383> 238 49<167 273> 424 58<28.5116 102 167 383>
VStem: 102 65<58 238 287 424> 273 52<176.277 238 287 347.707> 383 58<58 171.43 317.523 424>
LayerCount: 2
Fore
SplineSet
77 0 m 1
 58 0 l 2
 38 0 28 10 28 29 c 0
 28 55 42 58 77 58 c 2
 102 58 l 1
 102 424 l 1
 77 424 l 2
 42 424 28 427 28 453 c 0
 28 481 45 482 77 482 c 2
 412 482 l 2
 430 482 441 472 441 450 c 2
 441 354 l 2
 441 328 434 317 412 317 c 0
 390 317 383 327 383 352 c 2
 383 366 l 1
 383 424 l 1
 167 424 l 1
 167 287 l 1
 273 287 l 1
 273 299 272 306 272 308 c 0
 272 336 278 348 299 348 c 0
 321 348 325 332 325 299 c 2
 325 223 l 2
 325 191 323 176 299 176 c 0
 277 176 273 191 273 226 c 2
 273 238 l 1
 167 238 l 1
 167 58 l 1
 383 58 l 1
 383 123 l 2
 383 157 385 172 412 172 c 0
 435 172 441 160 441 132 c 2
 441 30 l 2
 441 11 430 0 412 0 c 2
 77 0 l 1
EndSplineSet
Validated: 1
EndChar

StartChar: F
Encoding: 70 70 39
Width: 500
VWidth: 833
GlyphClass: 2
Flags: W
HStem: 0 58<38.6415 112 177 295.347> 238 49<177 284> 424 58<38.6526 112 177 398>
VStem: 112 65<58 238 287 424> 284 51<176.277 238 287 347.723> 398 57<317.479 424>
LayerCount: 2
Fore
SplineSet
248 58 m 1
 263 58 l 2
 285 58 296 49 296 29 c 0
 296 10 286 0 268 0 c 2
 67 0 l 2
 49 0 38 10 38 29 c 0
 38 51 48 58 73 58 c 2
 87 58 l 1
 112 58 l 1
 112 424 l 1
 87 424 l 1
 71 424 l 2
 49 424 38 433 38 453 c 0
 38 472 49 482 67 482 c 2
 427 482 l 2
 445 482 455 472 455 450 c 2
 455 345 l 2
 455 327 446 317 427 317 c 0
 405 317 398 327 398 352 c 2
 398 366 l 1
 398 424 l 1
 177 424 l 1
 177 287 l 1
 284 287 l 1
 284 298 l 2
 284 333 288 348 310 348 c 0
 328 348 335 337 335 315 c 2
 335 212 l 2
 335 187 330 176 310 176 c 0
 288 176 284 191 284 226 c 2
 284 238 l 1
 177 238 l 1
 177 58 l 1
 248 58 l 1
EndSplineSet
Validated: 1
EndChar

StartChar: G
Encoding: 71 71 40
Width: 500
VWidth: 833
GlyphClass: 2
Flags: W
HStem: -12 56<193.475 369.618> 167 53<255.186 380 442 477.749> 336 155<376.446 433.88> 441 55<183.563 332.408>
VStem: 28 74<142.211 350.116> 370 67<338.747 405.914> 380 62<61.2878 167>
LayerCount: 2
Fore
SplineSet
380 70 m 1xda
 380 167 l 1
 278 167 l 2
 262 167 255 175 255 193 c 0
 255 214 261 220 281 220 c 2
 457 220 l 2
 471 220 478 211 478 193 c 0
 478 173 470 167 447 167 c 2
 442 167 l 1
 442 54 l 1
 442 44 l 2
 442 32 441 28 429 21 c 0
 403 6 342 -12 272 -12 c 0
 124 -12 28 89 28 241 c 0
 28 386 126 496 262 496 c 0xda
 300 496 336 488 375 471 c 1
 381 484 389 491 405 491 c 0
 433 491 437 475 437 427 c 2
 437 372 l 2
 437 346 429 336 406 336 c 0
 380 336 379 354 370 373 c 0xec
 351 415 312 441 262 441 c 0
 167 441 102 369 102 241 c 0
 102 119 177 44 278 44 c 0
 310 44 343 53 380 70 c 1xda
EndSplineSet
Validated: 1
EndChar

StartChar: H
Encoding: 72 72 41
Width: 500
VWidth: 833
GlyphClass: 2
Flags: W
HStem: 0 58<41.6155 90 153 223.383 278.672 348 412 460.424> 227 55<153 348> 424 58<41.5742 90 153 223.423 278.617 348 412 460.407>
VStem: 41 183<1.48926 56.1609 426.341 480.589> 90 63<58 227 282 424> 278 183<1.41058 55.6734 425.839 480.575> 348 64<58 227 282 424>
LayerCount: 2
Fore
SplineSet
153 58 m 1xea
 153 58 163 58 181 58 c 0
 211 58 224 51 224 29 c 0
 224 3 209 0 178 0 c 2
 89 0 l 1
 71 0 l 2
 51 0 41 10 41 29 c 0xf0
 41 51 51 58 79 58 c 2
 90 58 l 1
 90 424 l 1xe8
 80 424 l 2
 52 424 41 431 41 453 c 0
 41 481 57 482 89 482 c 2
 174 482 l 2
 208 482 224 481 224 453 c 0xf0
 224 429 209 424 172 424 c 2
 153 424 l 1
 153 282 l 1
 348 282 l 1
 348 424 l 1xea
 321 424 l 2
 291 424 278 431 278 453 c 0xe4
 278 482 295 482 332 482 c 2
 412 482 l 1xe2
 431 482 l 2
 451 482 461 472 461 453 c 0xe4
 461 431 450 424 422 424 c 2
 412 424 l 1
 412 58 l 1xe2
 422 58 l 2
 450 58 461 51 461 29 c 0xe4
 461 1 445 0 412 0 c 2xe2
 328 0 l 2
 294 0 278 1 278 29 c 0xe4
 278 52 292 58 328 58 c 2
 348 58 l 1
 348 227 l 1
 153 227 l 1
 153 58 l 1xea
EndSplineSet
Validated: 1
EndChar

StartChar: I
Encoding: 73 73 42
Width: 500
VWidth: 833
GlyphClass: 2
Flags: W
HStem: 0 58<78.5933 218 282 422.488> 424 58<78.5449 218 282 422.33>
VStem: 218 64<58 424>
LayerCount: 2
Fore
SplineSet
374 58 m 2
 409 58 423 55 423 29 c 0
 423 1 407 0 374 0 c 2
 128 0 l 1
 108 0 l 2
 88 0 78 10 78 29 c 0
 78 55 93 58 128 58 c 2
 218 58 l 1
 218 424 l 1
 128 424 l 2
 93 424 78 427 78 453 c 0
 78 481 96 482 128 482 c 2
 374 482 l 1
 393 482 l 2
 413 482 423 472 423 453 c 0
 423 427 409 424 374 424 c 2
 282 424 l 1
 282 58 l 1
 374 58 l 2
EndSplineSet
Validated: 1
EndChar

StartChar: J
Encoding: 74 74 43
Width: 500
VWidth: 833
GlyphClass: 2
Flags: W
HStem: -12 52<138.494 276.431> 424 58<153.512 312 377 477.33>
VStem: 45 57<75.8738 204.05> 312 65<77.7595 424>
LayerCount: 2
Fore
SplineSet
312 424 m 1
 202 424 l 2
 167 424 153 427 153 453 c 0
 153 481 170 482 202 482 c 2
 429 482 l 1
 448 482 l 2
 468 482 478 472 478 453 c 0
 478 427 464 424 429 424 c 2
 377 424 l 1
 377 164 l 2
 377 44 332 -12 210 -12 c 0
 158 -12 113 0 68 24 c 0
 47 36 45 44 45 67 c 2
 45 162 l 2
 45 189 45 205 72 205 c 0
 85 205 94 199 98 190 c 0
 101 182 102 172 102 160 c 2
 102 156 l 2
 102 143 103 127 107 109 c 0
 119 67 154 40 206 40 c 0
 284 40 312 82 312 174 c 2
 312 424 l 1
EndSplineSet
Validated: 1
EndChar

StartChar: K
Encoding: 75 75 44
Width: 500
VWidth: 833
GlyphClass: 2
Flags: W
HStem: 0 58<30.6072 104 168 237.383 418.611 477.331> 424 58<30.5988 104 168 237.43 286.523 337.765 414 462.412>
VStem: 104 64<58 185 258 424>
LayerCount: 2
Fore
SplineSet
168 58 m 1
 168 58 177 58 195 58 c 0
 225 58 238 51 238 29 c 0
 238 4 226 0 198 0 c 2
 58 0 l 2
 40 0 30 10 30 29 c 0
 30 51 40 58 65 58 c 2
 78 58 l 1
 104 58 l 1
 104 424 l 1
 78 424 l 1
 62 424 l 2
 40 424 30 433 30 453 c 0
 30 472 40 482 58 482 c 2
 198 482 l 2
 226 482 238 478 238 453 c 0
 238 429 223 424 186 424 c 2
 168 424 l 1
 168 258 l 1
 338 424 l 1
 333 423 327 423 323 423 c 0
 297 423 286 432 286 453 c 0
 286 474 294 482 315 482 c 2
 435 482 l 2
 453 482 463 472 463 453 c 0
 463 430 451 424 421 424 c 2
 414 424 l 1
 257 272 l 1
 319 260 360 186 428 58 c 1
 439 58 l 2
 467 58 478 51 478 29 c 0
 478 10 467 0 449 0 c 2
 410 0 l 2
 392 0 387 4 379 16 c 0
 375 23 356 60 318 128 c 0
 285 189 252 222 212 228 c 1
 168 185 l 1
 168 58 l 1
EndSplineSet
Validated: 1
EndChar

StartChar: L
Encoding: 76 76 45
Width: 500
VWidth: 833
GlyphClass: 2
Flags: W
HStem: 0 58<24.5395 123 188 404> 424 58<24.4783 123 188 304.407>
VStem: 123 65<58 424> 404 58<58 211.522>
LayerCount: 2
Fore
SplineSet
404 164 m 2
 404 199 407 212 433 212 c 0
 461 212 462 197 462 164 c 2
 462 30 l 2
 462 11 451 0 433 0 c 2
 72 0 l 1
 53 0 l 2
 33 0 24 10 24 29 c 0
 24 55 37 58 72 58 c 2
 123 58 l 1
 123 424 l 1
 72 424 l 2
 37 424 24 427 24 453 c 0
 24 481 40 482 72 482 c 2
 256 482 l 1
 275 482 l 2
 295 482 305 472 305 453 c 0
 305 426 290 424 256 424 c 2
 188 424 l 1
 188 58 l 1
 404 58 l 1
 404 164 l 2
EndSplineSet
Validated: 1
EndChar

StartChar: M
Encoding: 77 77 46
Width: 500
VWidth: 833
GlyphClass: 2
Flags: W
HStem: 0 58<6.53671 59 118 188.383 312.754 379 442 495.463> 428 54<25.323 71 431 476.677>
VStem: 59 59<58 273.833> 71 55<212.167 408> 370 61<192.545 408> 379 63<58 293.455>
LayerCount: 2
Fore
SplineSet
252 200 m 1xe0
 338 455 l 2
 346 476 359 482 382 482 c 2
 450 482 l 2
 468 482 477 473 477 455 c 0
 477 433 466 428 438 428 c 2
 431 428 l 1xe8
 442 58 l 1
 456 58 l 2
 485 58 496 51 496 29 c 0
 496 10 487 0 468 0 c 2
 353 0 l 2
 325 0 312 4 312 29 c 0
 312 52 328 58 362 58 c 2
 379 58 l 1xc4
 370 408 l 1
 290 173 l 2
 282 151 271 143 248 143 c 0
 226 143 216 151 208 173 c 2
 126 408 l 1xd8
 118 58 l 1
 118 58 128 58 146 58 c 0
 176 58 189 51 189 29 c 0
 189 4 176 0 148 0 c 2
 34 0 l 2
 15 0 6 10 6 29 c 0
 6 51 17 58 46 58 c 2
 59 58 l 1xe0
 71 428 l 1xd0
 64 428 l 2
 36 428 25 433 25 455 c 0
 25 473 34 482 52 482 c 2
 118 482 l 2
 141 482 154 476 162 455 c 2
 252 200 l 1xe0
EndSplineSet
Validated: 1
EndChar

StartChar: N
Encoding: 78 78 47
Width: 500
VWidth: 833
GlyphClass: 2
Flags: W
HStem: -7 21G<381 407> 0 58<34.5723 82 140 231.25> 424 58<14.7282 82 283.703 370 427 472.461>
VStem: 82 58<58 390> 370 57<102 424>
LayerCount: 2
Fore
SplineSet
140 58 m 1x78
 161 58 l 1
 190 58 l 2
 218 58 232 50 232 29 c 0
 232 2 216 0 184 0 c 2
 82 0 l 1
 63 0 l 2
 43 0 34 10 34 29 c 0
 34 52 46 58 75 58 c 2
 82 58 l 1x78
 82 424 l 1
 34 424 14 427 14 453 c 0
 14 481 37 482 82 482 c 2
 121 482 l 2
 148 482 153 479 165 457 c 2
 370 102 l 1
 370 424 l 1
 354 424 l 1
 325 424 l 2
 297 424 283 432 283 453 c 0
 283 479 298 482 328 482 c 2
 425 482 l 1
 444 482 l 2
 464 482 473 472 473 453 c 0
 473 431 462 424 432 424 c 2
 427 424 l 1
 427 14 l 2
 427 -6 417 -7 397 -7 c 2
 392 -7 l 2xb8
 370 -7 370 -5 357 17 c 2
 140 390 l 1
 140 58 l 1x78
EndSplineSet
Validated: 1
EndChar

StartChar: O
Encoding: 79 79 48
Width: 500
VWidth: 833
GlyphClass: 2
Flags: W
HStem: -12 57<178.305 324.081> 438 58<175.726 325.636>
VStem: 31 73<127.923 356.148> 398 73<127.705 356.148>
LayerCount: 2
Fore
SplineSet
251 45 m 0
 339 45 398 115 398 242 c 0
 398 369 339 438 251 438 c 0
 161 438 104 369 104 242 c 0
 104 115 163 45 251 45 c 0
471 242 m 0
 471 92 379 -12 251 -12 c 0
 125 -12 31 93 31 242 c 0
 31 392 122 496 251 496 c 0
 379 496 471 392 471 242 c 0
EndSplineSet
Validated: 1
EndChar

StartChar: P
Encoding: 80 80 49
Width: 500
VWidth: 833
GlyphClass: 2
Flags: W
HStem: 0 58<37.5395 118 182 304.336> 182 53<182 349.743> 424 58<37.5488 118 182 350.356>
VStem: 118 64<58 182 235 424> 386 69<269.693 390.325>
LayerCount: 2
Fore
SplineSet
268 58 m 2
 294 58 305 49 305 29 c 0
 305 4 292 0 264 0 c 2
 65 0 l 2
 46 0 37 10 37 29 c 0
 37 48 46 58 66 58 c 2
 118 58 l 1
 118 424 l 1
 90 424 l 2
 52 424 37 425 37 453 c 0
 37 472 46 482 65 482 c 2
 253 482 l 2
 387 482 455 430 455 332 c 0
 455 234 387 182 253 182 c 2
 182 182 l 1
 182 58 l 1
 268 58 l 2
182 424 m 1
 182 235 l 1
 258 235 l 2
 343 235 386 267 386 330 c 0
 386 393 343 424 258 424 c 2
 182 424 l 1
EndSplineSet
Validated: 1
EndChar

StartChar: Q
Encoding: 81 81 50
Width: 500
VWidth: 833
GlyphClass: 2
Flags: W
HStem: -104 54<280.381 436.277> -78 47<173.265 344.168> -8 54<222 322.944> 438 58<177.998 324.003>
VStem: 31 73<130.585 353.069> 398 73<132.799 353.069>
LayerCount: 2
Fore
SplineSet
251 46 m 0x3c
 335 46 398 115 398 242 c 0
 398 369 336 438 251 438 c 0
 166 438 104 369 104 242 c 0
 104 115 166 46 251 46 c 0x3c
187 1 m 1
 94 28 31 122 31 242 c 0
 31 387 128 496 251 496 c 0
 374 496 471 387 471 242 c 0
 471 91 380 -8 248 -8 c 0
 239 -8 231 -9 222 -8 c 1
 178 -50 l 1xbc
 205 -39 237 -31 279 -31 c 0x7c
 314 -31 345 -50 375 -50 c 0
 398 -50 415 -35 431 -35 c 0
 443 -35 454 -49 454 -64 c 0
 454 -80 417 -104 378 -104 c 0xbc
 333 -104 291 -78 248 -78 c 0x7c
 196 -78 162 -107 145 -107 c 0
 133 -107 118 -91 118 -77 c 0
 118 -63 145 -41 187 1 c 1
EndSplineSet
Validated: 1
EndChar

StartChar: R
Encoding: 82 82 51
Width: 500
VWidth: 833
GlyphClass: 2
Flags: W
HStem: 0 58<25.6072 97 160 230.383 437 488.463> 209 54<160 267.827> 428 54<25.3628 97 160 330.625>
VStem: 97 63<58 209 263 428> 358 70<289.783 401.55>
LayerCount: 2
Fore
SplineSet
160 58 m 1
 160 58 170 58 188 58 c 0
 218 58 231 51 231 29 c 0
 231 4 218 0 190 0 c 2
 53 0 l 2
 35 0 25 10 25 29 c 0
 25 51 35 58 60 58 c 2
 73 58 l 1
 97 58 l 1
 97 428 l 1
 73 428 l 1
 58 428 l 2
 35 428 25 436 25 455 c 0
 25 473 35 482 53 482 c 2
 225 482 l 2
 294 482 344 480 382 448 c 0
 410 423 428 384 428 343 c 0
 428 281 389 235 320 217 c 1
 336 207 346 195 355 182 c 2
 437 58 l 1
 450 58 l 2
 478 58 489 51 489 29 c 0
 489 10 480 0 461 0 c 2
 416 0 l 2
 394 0 387 12 373 33 c 2
 294 152 l 2
 265 196 251 209 213 209 c 2
 160 209 l 1
 160 58 l 1
160 428 m 1
 160 263 l 1
 244 263 l 2
 320 263 358 292 358 345 c 0
 358 400 322 428 247 428 c 2
 160 428 l 1
EndSplineSet
Validated: 1
EndChar

StartChar: S
Encoding: 83 83 52
Width: 500
VWidth: 833
GlyphClass: 2
Flags: W
HStem: -14 55<171.19 333.782> 442 55<174.497 322.489>
VStem: 59 77<72.9324 152.566> 72 66<305.234 408.146> 372 67<75.5923 180.758>
LayerCount: 2
Fore
SplineSet
132 14 m 1xd8
 130 -10 121 -18 99 -18 c 0
 76 -18 66 -5 64 24 c 2
 59 118 l 1
 59 127 l 2
 59 150 66 162 91 162 c 0
 125 162 121 130 136 100 c 0xe8
 154 64 196 41 254 41 c 0
 326 41 372 79 372 129 c 0
 372 171 345 198 293 206 c 2
 233 214 l 2
 125 229 72 268 72 350 c 0
 72 431 147 497 252 497 c 0
 285 497 317 487 355 472 c 1
 355 488 363 493 381 493 c 0
 410 493 412 484 414 462 c 2
 420 378 l 1
 420 373 l 2
 420 354 408 343 389 343 c 0
 357 343 362 373 344 399 c 0
 326 425 291 442 248 442 c 0
 181 442 138 405 138 353 c 0
 138 312 169 288 231 280 c 2
 296 272 l 2
 391 260 439 214 439 137 c 0
 439 47 366 -14 252 -14 c 0
 210 -14 173 -4 132 14 c 1xd8
EndSplineSet
Validated: 1
EndChar

StartChar: T
Encoding: 84 84 53
Width: 500
VWidth: 833
GlyphClass: 2
Flags: W
HStem: 0 58<108.641 218 282 392.401> 424 58<102 218 282 399>
VStem: 38 60<271.593 424> 218 64<58 424> 403 60<271.742 424>
LayerCount: 2
Fore
SplineSet
98 318 m 2
 97 283 95 271 67 271 c 0
 49 271 38 281 38 301 c 1
 38 301 38 308 39 320 c 2
 43 454 l 2
 44 474 53 482 74 482 c 2
 428 482 l 2
 449 482 457 474 458 454 c 2
 462 320 l 2
 462 308 463 302 463 300 c 0
 463 281 453 271 435 271 c 0
 407 271 404 283 403 318 c 2
 399 424 l 1
 282 424 l 1
 282 58 l 1
 345 58 l 1
 361 58 l 2
 383 58 393 49 393 29 c 0
 393 10 383 0 365 0 c 2
 137 0 l 2
 119 0 108 10 108 29 c 0
 108 51 118 58 143 58 c 2
 157 58 l 1
 218 58 l 1
 218 424 l 1
 102 424 l 1
 98 318 l 2
EndSplineSet
Validated: 1
EndChar

StartChar: U
Encoding: 85 85 54
Width: 500
VWidth: 833
GlyphClass: 2
Flags: W
HStem: -13 58<187.138 325.359> 424 58<26.5273 75 141 208.39 292.66 367 428 473.461>
VStem: 75 66<92.4688 424> 367 61<89.1272 424>
LayerCount: 2
Fore
SplineSet
75 424 m 1
 65 424 l 2
 37 424 26 431 26 453 c 0
 26 481 43 482 75 482 c 2
 158 482 l 2
 192 482 209 481 209 453 c 0
 209 429 194 424 158 424 c 2
 141 424 l 1
 141 201 l 2
 141 163 141 130 159 98 c 0
 178 65 214 45 255 45 c 0
 337 45 367 94 367 193 c 2
 367 424 l 1
 345 424 l 2
 307 424 292 429 292 453 c 0
 292 479 306 482 336 482 c 2
 426 482 l 1
 445 482 l 2
 465 482 474 472 474 453 c 0
 474 431 463 424 433 424 c 2
 428 424 l 1
 428 184 l 2
 428 52 369 -13 251 -13 c 0
 146 -13 75 55 75 169 c 2
 75 424 l 1
EndSplineSet
Validated: 1
EndChar

StartChar: V
Encoding: 86 86 55
Width: 500
VWidth: 833
GlyphClass: 2
Flags: W
HStem: -5 21G<229 276> 424 58<7.58771 49 117 198.336 298.717 390 452 494.384>
LayerCount: 2
Fore
SplineSet
49 424 m 1
 18 424 7 430 7 453 c 0
 7 472 17 482 35 482 c 2
 158 482 l 2
 186 482 199 478 199 453 c 0
 199 433 188 424 162 424 c 2
 117 424 l 1
 255 69 l 1
 390 424 l 1
 336 424 l 2
 310 424 298 433 298 453 c 0
 298 478 311 482 339 482 c 2
 467 482 l 2
 485 482 495 472 495 453 c 0
 495 431 485 424 457 424 c 2
 452 424 l 1
 305 41 l 2
 294 12 286 -5 266 -5 c 2
 243 -5 l 2
 215 -5 210 13 199 41 c 2
 49 424 l 1
EndSplineSet
Validated: 1
EndChar

StartChar: W
Encoding: 87 87 56
Width: 500
VWidth: 833
GlyphClass: 2
Flags: W
HStem: 0 21G<111 155 353 394> 428 54<2.3602 38 102 194.681 304.319 404 461 497.607>
LayerCount: 2
Fore
SplineSet
146 104 m 1
 216 348 l 2
 220 363 223 368 241 368 c 2
 259 368 l 2
 276 368 280 364 285 349 c 2
 364 104 l 1
 404 428 l 1
 340 428 l 2
 316 428 304 436 304 455 c 0
 304 477 316 482 343 482 c 2
 475 482 l 2
 487 482 498 473 498 455 c 0
 498 437 487 428 466 428 c 2
 461 428 l 1
 404 21 l 2
 402 7 400 0 388 0 c 2
 359 0 l 2
 347 0 341 6 337 18 c 2
 248 298 l 1
 170 17 l 2
 167 5 162 0 148 0 c 2
 118 0 l 2
 104 0 102 9 100 22 c 2
 38 428 l 1
 33 428 l 2
 12 428 2 437 2 455 c 0
 2 473 12 482 24 482 c 2
 156 482 l 2
 183 482 195 477 195 455 c 0
 195 436 183 428 159 428 c 2
 102 428 l 1
 146 104 l 1
EndSplineSet
Validated: 1
EndChar

StartChar: X
Encoding: 88 88 57
Width: 500
VWidth: 833
GlyphClass: 2
Flags: W
HStem: 0 58<36.7119 72 145 209.424 291.531 352 431 465.125> 423 59<47.6783 79 158.188 206.78 293.241 346.811 419 454.337>
VStem: 47 161<425.161 481.271>
LayerCount: 2
Fore
SplineSet
79 424 m 1
 56 425 47 433 47 453 c 0
 47 472 56 482 75 482 c 2
 178 482 l 2
 198 482 208 472 208 453 c 0
 208 435 194 423 170 423 c 0
 167 423 162 423 158 424 c 1
 251 293 l 1
 347 424 l 1
 343 423 337 423 334 423 c 0
 306 423 292 435 292 453 c 0
 292 471 304 482 324 482 c 2
 427 482 l 2
 446 482 455 472 455 453 c 0
 455 432 444 424 419 424 c 1
 289 248 l 1
 431 58 l 1
 454 57 466 47 466 29 c 0
 466 11 453 0 435 0 c 2
 327 0 l 2
 302 0 291 5 291 29 c 0
 291 51 302 58 332 58 c 0
 338 58 345 58 352 58 c 1
 248 201 l 1
 145 58 l 1
 153 59 160 58 167 58 c 0
 198 58 210 51 210 29 c 0
 210 5 199 0 174 0 c 2
 66 0 l 2
 48 0 36 11 36 29 c 0
 36 48 48 57 72 58 c 1
 209 246 l 1
 79 424 l 1
EndSplineSet
Validated: 1
EndChar

StartChar: Y
Encoding: 89 89 58
Width: 500
VWidth: 833
GlyphClass: 2
Flags: W
HStem: 0 58<108.481 217 281 388.488> 424 58<32.5742 81 155 214.293 299.529 356 419 467.426>
VStem: 217 64<58 187>
LayerCount: 2
Fore
SplineSet
340 58 m 2
 375 58 389 55 389 29 c 0
 389 4 377 0 345 0 c 2
 152 0 l 2
 121 0 108 4 108 29 c 0
 108 54 121 58 158 58 c 2
 217 58 l 1
 217 192 l 1
 81 424 l 1
 74 424 l 2
 44 424 32 430 32 453 c 0
 32 481 49 482 81 482 c 2
 174 482 l 2
 202 482 215 478 215 453 c 0
 215 430 200 424 168 424 c 2
 155 424 l 1
 253 248 l 1
 356 424 l 1
 350 424 344 423 339 423 c 0
 310 423 299 431 299 453 c 0
 299 481 312 482 344 482 c 2
 355 482 l 1
 419 482 l 2
 453 482 468 480 468 453 c 0
 468 430 456 424 426 424 c 2
 419 424 l 1
 281 187 l 1
 281 58 l 1
 340 58 l 2
EndSplineSet
Validated: 1
EndChar

StartChar: Z
Encoding: 90 90 59
Width: 500
VWidth: 833
GlyphClass: 2
Flags: W
HStem: 0 58<153 342> 424 58<156 328>
VStem: 92 59<292.653 424> 347 61<58 200.201>
LayerCount: 2
Fore
SplineSet
156 424 m 1
 152 339 l 2
 151 328 151 322 151 320 c 0
 151 300 141 292 120 292 c 0
 100 292 92 303 92 325 c 2
 92 332 l 1
 92 342 l 1
 97 454 l 2
 98 474 107 482 128 482 c 2
 361 482 l 2
 393 482 409 471 409 448 c 0
 409 436 404 422 394 407 c 2
 153 58 l 1
 342 58 l 1
 347 152 l 2
 349 188 349 201 378 201 c 0
 399 201 408 190 408 166 c 0
 408 161 407 156 407 151 c 2
 401 28 l 2
 400 8 391 0 370 0 c 2
 114 0 l 2
 91 0 75 15 75 37 c 0
 75 50 82 66 95 85 c 2
 328 424 l 1
 156 424 l 1
EndSplineSet
Validated: 1
EndChar

StartChar: bracketleft
Encoding: 91 91 60
Width: 500
VWidth: 833
GlyphClass: 2
Flags: W
HStem: -151 50<238 332.74> 432 50<238 332.68>
VStem: 168 70<-101 432>
LayerCount: 2
Fore
SplineSet
238 -101 m 1
 307 -101 l 2
 323 -101 333 -110 333 -125 c 0
 333 -141 324 -151 308 -151 c 2
 198 -151 l 2
 180 -151 168 -139 168 -124 c 2
 168 456 l 2
 168 471 180 482 198 482 c 2
 308 482 l 2
 324 482 333 474 333 458 c 0
 333 443 323 432 307 432 c 2
 238 432 l 1
 238 -101 l 1
EndSplineSet
Validated: 1
EndChar

StartChar: backslash
Encoding: 92 92 61
Width: 500
VWidth: 833
GlyphClass: 2
Flags: W
VStem: 95 57<563 580.792> 363 55<-45.3103 -28>
LayerCount: 2
Fore
SplineSet
363 -28 m 2
 98 540 l 2
 96 545 95 550 95 555 c 0
 95 570 107 582 122 582 c 0
 134 582 148 573 152 563 c 2
 414 -1 l 2
 416 -7 418 -13 418 -18 c 0
 418 -34 406 -46 390 -46 c 0
 379 -46 368 -39 363 -28 c 2
EndSplineSet
Validated: 1
EndChar

StartChar: bracketright
Encoding: 93 93 62
Width: 500
VWidth: 833
GlyphClass: 2
Flags: W
HStem: -151 50<168.285 263> 432 50<168.354 263>
VStem: 263 70<-101 432>
LayerCount: 2
Fore
SplineSet
263 432 m 1
 195 432 l 2
 179 432 168 443 168 458 c 0
 168 474 178 482 194 482 c 2
 303 482 l 2
 321 482 333 471 333 456 c 2
 333 -124 l 2
 333 -139 321 -151 303 -151 c 2
 194 -151 l 2
 178 -151 168 -141 168 -125 c 0
 168 -110 179 -101 195 -101 c 2
 263 -101 l 1
 263 432 l 1
EndSplineSet
Validated: 1
EndChar

StartChar: asciicircum
Encoding: 94 94 63
Width: 500
VWidth: 833
GlyphClass: 2
Flags: W
HStem: 374 189
VStem: 106 290<383 401>
LayerCount: 2
Fore
SplineSet
278 553 m 2
 391 410 l 2
 394 405 396 401 396 395 c 0
 396 383 385 374 375 374 c 0
 371 374 367 375 364 378 c 2
 251 492 l 1
 138 378 l 2
 135 375 131 374 127 374 c 0
 117 374 106 383 106 395 c 0
 106 401 108 405 111 410 c 2
 224 553 l 2
 229 560 239 563 251 563 c 0
 263 563 273 559 278 553 c 2
EndSplineSet
Validated: 1
EndChar

StartChar: underscore
Encoding: 95 95 64
Width: 500
VWidth: 833
GlyphClass: 2
Flags: W
HStem: -249 67<-18 521>
LayerCount: 2
Fore
SplineSet
502 -182 m 2
 514 -182 521 -187 521 -198 c 2
 521 -229 l 2
 521 -240 512 -249 502 -249 c 2
 0 -249 l 2
 -11 -249 -18 -241 -18 -229 c 2
 -18 -198 l 2
 -18 -188 -11 -182 0 -182 c 2
 502 -182 l 2
EndSplineSet
Validated: 1
EndChar

StartChar: grave
Encoding: 96 96 65
Width: 500
VWidth: 833
GlyphClass: 2
Flags: W
HStem: 421 137
VStem: 104 234
LayerCount: 2
Fore
SplineSet
328 421 m 1
 115 496 l 2
 108 498 104 505 104 512 c 0
 104 514 104 519 106 521 c 2
 119 545 l 2
 123 553 130 558 138 558 c 0
 140 558 142 557 144 556 c 2
 338 442 l 1
 328 421 l 1
EndSplineSet
Validated: 1
EndChar

StartChar: a
Encoding: 97 97 66
Width: 500
VWidth: 833
GlyphClass: 2
Flags: W
HStem: -10 62<147.351 290.125> 0 58<410 478.332> 194 53<164.226 346.571> 328 58<174.855 322.899>
VStem: 62 66<71.337 162.312> 348 62<96.6141 185.984 234 302.414> 354 125<0.949219 51.6675>
LayerCount: 2
Fore
SplineSet
350 52 m 1xba
 306 12 254 -10 198 -10 c 0xba
 116 -10 62 40 62 112 c 0
 62 196 130 247 251 247 c 0
 283 247 315 242 348 234 c 1
 348 237 l 2
 348 299 318 328 256 328 c 0
 198 328 165 294 133 294 c 0
 118 294 106 307 106 328 c 0
 106 356 166 386 258 386 c 0
 362 386 410 340 410 242 c 2
 410 58 l 1x7c
 431 58 l 2
 465 58 479 53 479 29 c 0
 479 10 469 0 447 0 c 2
 382 0 l 2x7a
 367 0 357 9 354 27 c 2
 350 52 l 1xba
348 180 m 1xbc
 320 189 292 194 262 194 c 0
 175 194 128 162 128 116 c 0
 128 80 160 52 208 52 c 0
 281 52 348 99 348 136 c 2
 348 180 l 1xbc
EndSplineSet
Validated: 1
EndChar

StartChar: b
Encoding: 98 98 67
Width: 500
VWidth: 833
GlyphClass: 2
Flags: W
HStem: -8 65<198.225 345.77> 0 58<28.709 84> 317 59<198.63 344.417> 475 57<28.6526 84>
VStem: 28 118<1.0481 52.912 476.422 530.952> 84 62<107.843 264.084 318 474> 401 70<112.602 260.107>
LayerCount: 2
Fore
SplineSet
146 318 m 1x76
 177 356 222 376 280 376 c 0
 389 376 471 292 471 184 c 0
 471 78 387 -8 278 -8 c 0xb6
 221 -8 180 12 152 53 c 1
 152 21 l 2
 152 7 147 0 135 0 c 2
 61 0 l 2
 39 0 28 10 28 29 c 0x7a
 28 52 43 58 76 58 c 2
 84 58 l 1
 84 474 l 1x76
 78 474 72 475 66 475 c 0
 40 475 28 482 28 503 c 0
 28 522 39 532 61 532 c 2
 122 532 l 2
 138 532 146 528 146 516 c 2x7a
 146 318 l 1x76
272 57 m 0
 348 57 401 109 401 187 c 0
 401 261 348 317 272 317 c 0
 197 317 144 263 144 187 c 0
 144 112 196 57 272 57 c 0
EndSplineSet
Validated: 1
EndChar

StartChar: c
Encoding: 99 99 68
Width: 500
VWidth: 833
GlyphClass: 2
Flags: W
HStem: -10 61<168.694 330.256> 223 156<373.469 431.969> 322 64<172.078 325.185>
VStem: 40 71<109.435 261.842> 373 61<352 378.096>
LayerCount: 2
Fore
SplineSet
434 253 m 2xd8
 434 233 423 223 403 223 c 0xd8
 385 223 377 234 365 256 c 0
 340 300 301 322 253 322 c 0
 169 322 111 266 111 188 c 0
 111 107 165 51 250 51 c 0
 282 51 316 62 345 81 c 0
 370 98 386 118 408 118 c 0
 425 118 436 106 436 89 c 0
 436 51 344 -10 246 -10 c 0
 128 -10 40 76 40 188 c 0
 40 300 128 386 245 386 c 0xb8
 287 386 328 374 373 352 c 1
 373 353 l 2
 373 371 384 379 405 379 c 0
 430 379 434 364 434 329 c 2
 434 253 l 2xd8
EndSplineSet
Validated: 1
EndChar

StartChar: d
Encoding: 100 100 69
Width: 500
VWidth: 833
GlyphClass: 2
Flags: W
HStem: -10 65<159.416 307.138> 0 58<424 479.283> 317 60<161.468 308.994> 474 58<285.653 362>
VStem: 37 70<109.009 261.336> 285 139<476.057 530.952> 358 122<0.641464 53.7038> 362 62<109.674 263.649 318 474>
LayerCount: 2
Fore
SplineSet
107 182 m 0xb8
 107 105 162 55 234 55 c 0
 309 55 363 112 363 187 c 0
 363 262 311 317 235 317 c 0
 158 317 107 263 107 182 c 0xb8
373 0 m 2x7a
 361 0 358 7 358 21 c 2
 358 54 l 1x7a
 326 13 276 -10 218 -10 c 0
 116 -10 37 70 37 184 c 0
 37 292 120 377 230 377 c 0
 286 377 330 357 362 318 c 1
 362 474 l 1xb9
 341 474 l 2
 303 474 285 476 285 503 c 0
 285 522 296 532 318 532 c 2
 401 532 l 2
 417 532 424 528 424 516 c 2xbc
 424 58 l 1x79
 442 58 l 2
 468 58 480 50 480 29 c 0
 480 11 469 0 451 0 c 2
 373 0 l 2x7a
EndSplineSet
Validated: 1
EndChar

StartChar: e
Encoding: 101 101 70
Width: 500
VWidth: 833
GlyphClass: 2
Flags: W
HStem: -10 58<166.733 347.275> 170 53<115 380> 331 56<173.388 328.544>
LayerCount: 2
Fore
SplineSet
115 223 m 1
 380 223 l 1
 372 288 321 331 255 331 c 0
 183 331 131 291 115 223 c 1
113 170 m 1
 117 92 168 48 252 48 c 0
 334 48 387 98 424 98 c 0
 440 98 452 87 452 72 c 0
 452 55 441 43 417 31 c 0
 361 3 302 -10 247 -10 c 0
 121 -10 42 67 42 189 c 0
 42 306 129 387 255 387 c 0
 378 387 454 299 454 208 c 0
 454 170 437 170 387 170 c 2
 113 170 l 1
EndSplineSet
Validated: 1
EndChar

StartChar: f
Encoding: 102 102 71
Width: 500
VWidth: 833
GlyphClass: 2
Flags: W
HStem: 0 58<78.7064 179 242 409.26> 307 59<78.8713 176 242 416.063> 472 61<258.568 421.276>
VStem: 179 63<58 307 366 455.218>
LayerCount: 2
Fore
SplineSet
376 58 m 2
 398 58 410 48 410 29 c 0
 410 10 400 0 378 0 c 2
 112 0 l 2
 90 0 78 10 78 29 c 0
 78 48 89 58 110 58 c 2
 179 58 l 1
 179 307 l 1
 112 307 l 2
 90 307 78 318 78 337 c 0
 78 356 89 366 111 366 c 2
 176 366 l 1
 175 376 174 386 174 395 c 0
 174 493 228 533 352 533 c 0
 411 533 442 521 442 492 c 0
 442 474 427 462 408 462 c 0
 388 462 361 472 325 472 c 0
 263 472 239 447 239 389 c 0
 239 381 239 374 240 366 c 1
 382 366 l 2
 404 366 417 356 417 337 c 0
 417 318 405 307 384 307 c 2
 242 307 l 1
 242 58 l 1
 376 58 l 2
EndSplineSet
Validated: 1
EndChar

StartChar: g
Encoding: 103 103 72
Width: 500
VWidth: 833
GlyphClass: 2
Flags: W
HStem: -162 63<145.291 322.554> 17 62<167.834 311.101> 316 61<167.929 311.555 416 470.638>
VStem: 55 63<128.426 267.288> 355 61<-65.6267 72 120.944 274.234>
LayerCount: 2
Fore
SplineSet
416 22 m 1
 416 12 l 2
 416 -34 415 -69 391 -101 c 0
 361 -140 306 -162 230 -162 c 0
 170 -162 141 -152 141 -125 c 0
 141 -108 157 -93 176 -93 c 0
 200 -93 222 -99 244 -99 c 0
 329 -99 355 -61 355 23 c 2
 355 72 l 1
 322 34 283 17 231 17 c 0
 130 17 55 91 55 198 c 0
 55 303 136 377 234 377 c 0
 276 377 315 361 354 330 c 1
 354 359 l 2
 354 371 362 376 378 376 c 2
 439 376 l 2
 461 376 472 367 472 348 c 0
 472 325 457 318 423 318 c 2
 416 318 l 1
 416 22 l 1
239 316 m 0
 168 316 118 268 118 198 c 0
 118 130 167 79 239 79 c 0
 310 79 360 129 360 198 c 0
 360 266 311 316 239 316 c 0
EndSplineSet
Validated: 1
EndChar

StartChar: h
Encoding: 104 104 73
Width: 500
VWidth: 833
GlyphClass: 2
Flags: W
HStem: 0 58<42.666 98 158 214.449 294.551 350 412 467.347> 324 63<202.655 323.266> 475 57<42.5988 98>
VStem: 42 117<476.244 531.119> 98 61<58 286.385 332 474> 350 62<58 297.431>
LayerCount: 2
Fore
SplineSet
98 58 m 1xec
 98 474 l 1xec
 92 474 85 475 79 475 c 0
 53 475 42 482 42 503 c 0
 42 522 52 532 74 532 c 2
 136 532 l 2
 152 532 159 526 159 516 c 2xf4
 159 332 l 1xec
 198 369 236 387 278 387 c 0
 356 387 412 336 412 242 c 2
 412 58 l 1
 429 58 l 2
 455 58 468 50 468 29 c 0
 468 10 457 0 435 0 c 2
 327 0 l 2
 303 0 294 6 294 29 c 0
 294 51 305 58 334 58 c 2
 350 58 l 1
 350 227 l 2
 350 292 317 324 264 324 c 0
 215 324 158 288 158 227 c 2
 158 58 l 1
 165 58 171 58 176 58 c 0
 204 58 215 51 215 29 c 0
 215 6 206 0 182 0 c 2
 74 0 l 2
 52 0 42 10 42 29 c 0xf4
 42 52 56 58 89 58 c 2
 98 58 l 1xec
EndSplineSet
Validated: 1
EndChar

StartChar: i
Encoding: 105 105 74
Width: 500
VWidth: 833
GlyphClass: 2
Flags: W
HStem: 0 58<68.7064 227 288 449.404> 318 58<113.975 227> 467 106<215.586 294.306>
VStem: 212 85<468.792 570.636> 227 61<58 318>
LayerCount: 2
Fore
SplineSet
288 58 m 1xe8
 419 58 l 2
 440 58 450 49 450 29 c 0
 450 6 441 0 417 0 c 2
 101 0 l 2
 79 0 68 10 68 29 c 0
 68 48 80 58 102 58 c 2
 227 58 l 1
 227 318 l 1
 148 318 l 2
 126 318 113 329 113 348 c 0
 113 367 124 376 146 376 c 2
 265 376 l 2
 281 376 288 369 288 359 c 2
 288 58 l 1xe8
212 507 m 0xf0
 212 561 217 573 255 573 c 0
 293 573 297 560 297 518 c 0
 297 476 294 467 255 467 c 0
 221 467 212 474 212 507 c 0xf0
EndSplineSet
Validated: 1
EndChar

StartChar: j
Encoding: 106 106 75
Width: 500
VWidth: 833
GlyphClass: 2
Flags: W
HStem: -161 64<105.469 279.264> 318 58<96.7401 314> 467 106<269.27 346.601>
VStem: 266 83<468.609 570.963> 314 62<-63.0799 318>
LayerCount: 2
Fore
SplineSet
376 56 m 2xe8
 376 -4 375 -45 364 -73 c 0
 343 -126 281 -161 189 -161 c 0
 129 -161 100 -149 100 -122 c 0
 100 -105 116 -91 135 -91 c 0
 159 -91 181 -97 203 -97 c 0
 288 -97 314 -58 314 26 c 2
 314 318 l 1
 155 318 l 1
 134 318 l 2
 107 318 96 327 96 348 c 0
 96 367 106 376 128 376 c 2
 352 376 l 2
 368 376 376 369 376 359 c 2
 376 332 l 1
 376 56 l 2xe8
266 507 m 0xf0
 266 561 270 573 308 573 c 0
 346 573 349 560 349 518 c 0
 349 476 347 467 308 467 c 0
 274 467 266 474 266 507 c 0xf0
EndSplineSet
Validated: 1
EndChar

StartChar: k
Encoding: 107 107 76
Width: 500
VWidth: 833
GlyphClass: 2
Flags: W
HStem: 0 58<44.7578 115 411 478.322> 318 58<342.168 444.198> 474 58<43.6526 115>
VStem: 43 134<1.63507 55.6612 475.842 530.906> 115 62<58 156 224 474>
LayerCount: 2
Fore
SplineSet
177 156 m 1xe8
 177 36 l 2xf0
 177 13 165 0 152 0 c 2
 78 0 l 2
 56 0 44 10 44 29 c 0
 44 54 60 58 96 58 c 2
 115 58 l 1
 115 474 l 1xe8
 98 474 l 2
 60 474 43 476 43 503 c 0
 43 522 54 532 76 532 c 2
 153 532 l 2
 169 532 177 526 177 516 c 2xf0
 177 224 l 1
 294 322 l 1
 276 330 268 340 268 352 c 0
 268 368 280 376 303 376 c 2
 413 376 l 2
 434 376 445 366 445 348 c 0
 445 320 425 322 393 318 c 0
 373 316 346 302 317 277 c 2
 258 225 l 1
 411 58 l 1
 447 58 l 2
 470 58 479 50 479 29 c 0
 479 10 468 0 447 0 c 2
 337 0 l 2
 314 0 302 8 302 26 c 0
 302 41 313 51 334 58 c 1
 213 189 l 1
 177 156 l 1xe8
EndSplineSet
Validated: 1
EndChar

StartChar: l
Encoding: 108 108 77
Width: 500
VWidth: 833
GlyphClass: 2
Flags: W
HStem: 0 58<77.7401 223 285 441.458> 474 58<95.6665 223>
VStem: 223 62<58 474>
LayerCount: 2
Fore
SplineSet
223 474 m 1
 154 474 l 2
 145 474 137 475 133 475 c 0
 106 475 95 482 95 503 c 0
 95 522 106 532 128 532 c 2
 262 532 l 2
 278 532 285 526 285 516 c 2
 285 58 l 1
 412 58 l 2
 433 58 442 49 442 29 c 0
 442 6 433 0 409 0 c 2
 109 0 l 2
 87 0 77 10 77 29 c 0
 77 48 89 58 111 58 c 2
 223 58 l 1
 223 474 l 1
EndSplineSet
Validated: 1
EndChar

StartChar: m
Encoding: 109 109 78
Width: 500
VWidth: 833
GlyphClass: 2
Flags: W
HStem: 0 58<1.66602 57 118 173.449 289 338.463 462 511.356> 318 58<1.67444 57> 324 63<131.827 218.948 310.067 390.664>
VStem: 57 61<58 309.962> 231 108<0.466797 56.5238> 231 58<58 302.803> 399 63<58 317.726>
LayerCount: 2
Fore
SplineSet
399 227 m 2xb6
 399 289 396 324 355 324 c 0
 317 324 289 292 289 227 c 2
 289 58 l 1xb6
 297 58 l 2
 328 58 339 52 339 29 c 0
 339 10 330 0 311 0 c 2
 259 0 l 2
 232 0 231 12 231 44 c 2
 231 55 l 1xba
 231 227 l 1
 231 258 l 2
 231 300 209 324 178 324 c 0xb6
 153 324 133 310 118 282 c 1
 118 58 l 1
 125 58 130 58 135 58 c 0
 163 58 174 51 174 29 c 0
 174 6 165 0 141 0 c 2
 32 0 l 2
 10 0 1 10 1 29 c 0
 1 52 15 58 48 58 c 2
 57 58 l 1
 57 318 l 1
 38 318 l 2
 12 318 1 327 1 348 c 0
 1 367 10 376 32 376 c 2
 95 376 l 2xd6
 113 376 116 372 118 352 c 1
 140 376 165 387 197 387 c 0
 235 387 259 370 271 337 c 1
 293 370 323 387 362 387 c 0
 437 387 462 337 462 242 c 2
 462 58 l 1
 469 58 l 2
 500 58 512 52 512 29 c 0
 512 10 501 0 482 0 c 2
 433 0 l 2
 411 0 399 14 399 41 c 2
 399 227 l 2xb6
EndSplineSet
Validated: 1
EndChar

StartChar: n
Encoding: 110 110 79
Width: 500
VWidth: 833
GlyphClass: 2
Flags: W
HStem: 0 58<43.7091 99 160 216.473 295.572 349 412 468.342> 318 58<43.8477 99> 324 63<204.655 324.479>
VStem: 99 61<58 284.498> 349 63<58 297.431>
LayerCount: 2
Fore
SplineSet
99 58 m 1xb8
 99 318 l 1
 81 318 l 2
 55 318 43 327 43 348 c 0
 43 376 61 376 99 376 c 2
 138 376 l 2xd8
 154 376 161 369 161 359 c 2
 161 332 l 1
 200 369 238 387 280 387 c 0
 358 387 412 336 412 242 c 2
 412 58 l 1
 431 58 l 2
 457 58 469 50 469 29 c 0
 469 6 455 0 426 0 c 2
 336 0 l 2
 307 0 295 2 295 29 c 0
 295 51 307 58 336 58 c 2
 349 58 l 1
 349 227 l 2
 349 292 319 324 266 324 c 0
 217 324 160 288 160 227 c 2
 160 58 l 1
 167 58 173 58 178 58 c 0
 206 58 217 51 217 29 c 0
 217 1 204 0 173 0 c 2
 99 0 l 1
 78 0 l 2
 55 0 43 10 43 29 c 0
 43 52 58 58 91 58 c 2
 99 58 l 1xb8
EndSplineSet
Validated: 1
EndChar

StartChar: o
Encoding: 111 111 80
Width: 500
VWidth: 833
GlyphClass: 2
Flags: W
HStem: -10 57<172.457 329.334> 329 56<172.457 329.334>
VStem: 38 70<112.257 265.917> 393 70<109.783 265.706>
LayerCount: 2
Fore
SplineSet
463 188 m 0
 463 75 380 -10 251 -10 c 0
 122 -10 38 75 38 188 c 0
 38 301 122 385 251 385 c 0
 380 385 463 300 463 188 c 0
251 47 m 0
 335 47 393 106 393 188 c 0
 393 269 335 329 251 329 c 0
 167 329 108 269 108 188 c 0
 108 107 167 47 251 47 c 0
EndSplineSet
Validated: 1
EndChar

StartChar: p
Encoding: 112 112 81
Width: 500
VWidth: 833
GlyphClass: 2
Flags: W
HStem: -162 58<28.7109 84 145 273.396> -1 60<197.553 346.489> 318 58<28.7401 84 202.873 341.2>
VStem: 28 118<320.202 375.15> 84 61<-104 58 111.898 261.763> 401 70<112.572 259.913>
LayerCount: 2
Fore
SplineSet
272 59 m 0xe4
 347 59 401 111 401 187 c 0
 401 260 349 314 272 314 c 0
 196 314 143 260 143 187 c 0
 143 114 196 59 272 59 c 0xe4
145 -104 m 1xec
 243 -104 l 2
 264 -104 274 -114 274 -133 c 0
 274 -155 264 -162 240 -162 c 2
 60 -162 l 2
 38 -162 28 -152 28 -133 c 0xf4
 28 -110 43 -104 77 -104 c 2
 84 -104 l 1
 84 318 l 1xec
 66 318 l 2
 40 318 28 327 28 348 c 0
 28 367 38 376 60 376 c 2
 122 376 l 2
 138 376 146 371 146 359 c 2
 146 320 l 1xf4
 183 358 227 377 279 377 c 0
 386 377 471 296 471 182 c 0
 471 74 393 -1 286 -1 c 0
 228 -1 178 20 145 58 c 1
 145 -104 l 1xec
EndSplineSet
Validated: 1
EndChar

StartChar: q
Encoding: 113 113 82
Width: 500
VWidth: 833
GlyphClass: 2
Flags: W
HStem: -162 58<229.65 358 420 475.347> -1 60<157.457 305.992> 314 63<157.911 306.629 420 474.187>
VStem: 32 71<112.572 259.913> 358 118<320.325 375.031> 358 62<-104 58 109.424 264.215>
LayerCount: 2
Fore
SplineSet
358 -104 m 1xf4
 358 58 l 1
 325 20 276 -1 218 -1 c 0
 111 -1 32 74 32 182 c 0
 32 296 118 377 225 377 c 0
 277 377 321 358 358 320 c 1xf4
 358 359 l 2
 358 371 366 376 382 376 c 2
 443 376 l 2
 465 376 476 367 476 348 c 0xf8
 476 325 462 318 428 318 c 2
 420 318 l 1
 420 -104 l 1xf4
 438 -104 l 2
 464 -104 476 -112 476 -133 c 0xf8
 476 -152 465 -162 443 -162 c 2
 263 -162 l 2
 239 -162 229 -155 229 -133 c 0
 229 -114 240 -104 261 -104 c 2
 358 -104 l 1xf4
103 187 m 0
 103 111 157 59 232 59 c 0
 308 59 360 114 360 187 c 0
 360 260 308 314 232 314 c 0
 155 314 103 260 103 187 c 0
EndSplineSet
Validated: 1
EndChar

StartChar: r
Encoding: 114 114 83
Width: 500
VWidth: 833
GlyphClass: 2
Flags: W
HStem: 0 58<44.7064 150 211 376.404> 318 58<63.8057 150> 320 66<296.172 430.591>
VStem: 63 148<319.734 375.031> 150 61<58 247.84 290 318>
LayerCount: 2
Fore
SplineSet
211 58 m 1xa8
 346 58 l 2
 367 58 377 49 377 29 c 0
 377 6 367 0 343 0 c 2
 78 0 l 2
 56 0 44 10 44 29 c 0
 44 48 56 58 78 58 c 2
 150 58 l 1
 150 318 l 1xc8
 122 318 l 1
 102 318 l 2
 75 318 63 327 63 348 c 0
 63 367 74 376 96 376 c 2
 188 376 l 2
 203 376 211 371 211 359 c 2xd0
 211 290 l 1
 262 354 317 386 382 386 c 0
 433 386 462 363 462 333 c 0
 462 313 445 295 427 295 c 0
 405 295 388 320 356 320 c 0
 311 320 265 288 211 226 c 1
 211 58 l 1xa8
EndSplineSet
Validated: 1
EndChar

StartChar: s
Encoding: 115 115 84
Width: 500
VWidth: 833
GlyphClass: 2
Flags: W
HStem: -10 145<74.0319 127.652> -9 52<173.782 336.74> 160 66<148.249 348.894> 255 129<345.407 400.992> 335 52<156.028 304.69>
VStem: 74 63<240.023 315.987> 359 68<65.3844 148.786>
LayerCount: 2
Fore
SplineSet
72 29 m 2xa6
 72 102 l 2
 72 124 80 135 102 135 c 0xa6
 127 135 124 113 140 92 c 0
 162 64 208 43 263 43 c 0
 322 43 359 70 359 107 c 0
 359 149 330 160 268 160 c 2
 244 160 l 2
 133 160 74 200 74 272 c 0
 74 340 130 387 231 387 c 0x6e
 290 387 322 368 334 368 c 0
 346 368 354 384 376 384 c 0
 394 384 403 371 403 343 c 2
 403 296 l 2
 403 269 396 255 376 255 c 0x36
 358 255 349 276 325 298 c 0
 294 326 264 335 222 335 c 0
 168 335 137 307 137 275 c 0
 137 232 183 228 263 226 c 0
 371 224 427 192 427 112 c 0
 427 42 370 -9 268 -9 c 0x6e
 231 -9 190 -3 144 9 c 1
 125 -3 111 -10 102 -10 c 0
 83 -10 72 3 72 29 c 2xa6
EndSplineSet
Validated: 1
EndChar

StartChar: t
Encoding: 116 116 85
Width: 500
VWidth: 833
GlyphClass: 2
Flags: W
HStem: -8 60<218.839 367.211> 296 57<37.5834 138 202 399.434> 472 20G<158 183.5>
VStem: 138 63<69.0332 296 353 491.029>
LayerCount: 2
Fore
SplineSet
362 353 m 2
 388 353 400 345 400 324 c 0
 400 305 388 296 366 296 c 2
 201 296 l 1
 201 160 l 2
 201 95 206 52 278 52 c 0
 344 52 398 95 430 95 c 0
 445 95 458 81 458 66 c 0
 458 47 443 35 413 23 c 0
 362 3 320 -8 282 -8 c 0
 220 -8 175 12 152 53 c 0
 138 77 138 110 138 148 c 2
 138 160 l 1
 138 296 l 1
 69 296 l 2
 47 296 37 304 37 324 c 0
 37 351 53 353 92 353 c 2
 138 353 l 1
 138 437 l 1
 138 458 l 2
 138 480 147 492 169 492 c 0
 198 492 202 476 202 436 c 2
 202 353 l 1
 362 353 l 2
EndSplineSet
Validated: 1
EndChar

StartChar: u
Encoding: 117 117 86
Width: 500
VWidth: 833
GlyphClass: 2
Flags: W
HStem: -8 60<173.671 301.45> 0 58<408 463.401> 318 58<30.7401 86 261.609 347>
VStem: 30 118<319.734 375.197> 86 62<75.9614 318> 347 61<90.712 318>
LayerCount: 2
Fore
SplineSet
148 150 m 2xac
 148 83 176 52 239 52 c 0xac
 294 52 347 90 347 150 c 2
 347 318 l 1
 291 318 l 2
 269 318 261 328 261 348 c 0
 261 368 271 376 293 376 c 2
 380 376 l 2
 408 376 408 361 408 337 c 2
 408 58 l 1
 427 58 l 2
 453 58 464 50 464 29 c 0
 464 10 454 0 432 0 c 2
 370 0 l 2x6c
 354 0 347 7 347 17 c 2
 347 44 l 1
 305 11 269 -8 220 -8 c 0
 131 -8 86 40 86 135 c 2
 86 318 l 1xac
 68 318 l 2
 42 318 30 327 30 348 c 0
 30 367 40 376 62 376 c 2
 124 376 l 2
 146 376 148 367 148 349 c 2
 148 345 l 1xb4
 148 150 l 2xac
EndSplineSet
Validated: 1
EndChar

StartChar: v
Encoding: 118 118 87
Width: 500
VWidth: 833
GlyphClass: 2
Flags: W
HStem: -14 21G<226 254.5> 318 58<12.8445 59 135 197.102 281.825 358 423 477.105>
LayerCount: 2
Fore
SplineSet
59 318 m 1
 26 318 12 325 12 348 c 0
 12 367 23 376 45 376 c 2
 159 376 l 2
 186 376 198 372 198 348 c 0
 198 325 183 318 150 318 c 2
 135 318 l 1
 241 55 l 1
 358 318 l 1
 349 318 342 318 334 318 c 0
 296 318 281 324 281 348 c 0
 281 372 292 376 319 376 c 2
 445 376 l 2
 467 376 478 367 478 348 c 0
 478 325 463 318 431 318 c 2
 423 318 l 1
 289 22 l 2
 277 -4 269 -14 240 -14 c 0
 212 -14 203 -3 192 22 c 2
 59 318 l 1
EndSplineSet
Validated: 1
EndChar

StartChar: w
Encoding: 119 119 88
Width: 500
VWidth: 833
GlyphClass: 2
Flags: W
HStem: -14 21G<150 171 330 351.5> 318 58<-7.39005 28 92 168.328 332.755 408 468 501.498>
LayerCount: 2
Fore
SplineSet
248 207 m 1
 196 13 l 2
 191 -6 180 -14 162 -14 c 0
 138 -14 130 -3 122 22 c 2
 28 318 l 1
 2 318 -8 326 -8 348 c 0
 -8 366 2 376 23 376 c 2
 132 376 l 2
 158 376 169 372 169 348 c 0
 169 324 155 318 119 318 c 0
 111 318 102 317 92 318 c 1
 162 74 l 1
 215 252 l 2
 221 271 230 279 249 279 c 0
 273 279 281 268 289 243 c 2
 340 74 l 1
 408 318 l 1
 397 317 388 318 380 318 c 0
 346 318 332 324 332 348 c 0
 332 371 342 376 368 376 c 2
 478 376 l 2
 494 376 502 367 502 348 c 0
 502 326 494 318 468 318 c 1
 376 13 l 2
 370 -7 361 -14 342 -14 c 0
 318 -14 310 -3 302 22 c 2
 248 207 l 1
EndSplineSet
Validated: 1
EndChar

StartChar: x
Encoding: 120 120 89
Width: 500
VWidth: 833
GlyphClass: 2
Flags: W
HStem: 0 58<34.9495 88 162 215.602 299.142 358 437 471.109> 318 58<43.5742 91 172 217.107 289.89 342 411 464.051>
LayerCount: 2
Fore
SplineSet
162 58 m 1
 166 58 169 58 173 58 c 0
 201 58 217 46 217 28 c 0
 217 8 202 0 174 0 c 2
 62 0 l 2
 45 0 34 11 34 31 c 0
 34 49 50 58 80 58 c 2
 88 58 l 1
 220 192 l 1
 91 318 l 1
 85 318 l 2
 55 318 43 325 43 347 c 0
 43 371 57 376 93 376 c 2
 177 376 l 2
 205 376 218 368 218 347 c 0
 218 328 203 318 172 318 c 1
 259 232 l 1
 342 318 l 1
 334 318 l 2
 304 318 289 328 289 347 c 0
 289 368 303 376 331 376 c 2
 437 376 l 2
 454 376 465 366 465 348 c 0
 465 327 450 318 422 318 c 0
 419 318 415 318 411 318 c 1
 294 197 l 1
 437 58 l 1
 441 58 l 2
 462 58 472 46 472 28 c 0
 472 4 459 0 423 0 c 2
 340 0 l 2
 312 0 298 8 298 28 c 0
 298 46 311 58 335 58 c 2
 358 58 l 1
 255 158 l 1
 162 58 l 1
EndSplineSet
Validated: 1
EndChar

StartChar: y
Encoding: 121 121 90
Width: 500
VWidth: 833
GlyphClass: 2
Flags: W
HStem: -162 58<34.6044 153 220 287.328> 318 58<24.8445 71 146 207.156 303.85 368 434 474.194>
LayerCount: 2
Fore
SplineSet
220 -104 m 1
 238 -104 l 2
 274 -104 288 -109 288 -133 c 0
 288 -152 277 -162 255 -162 c 2
 68 -162 l 2
 44 -162 34 -155 34 -133 c 0
 34 -114 44 -104 65 -104 c 2
 153 -104 l 1
 220 26 l 1
 71 318 l 1
 38 318 24 325 24 348 c 0
 24 367 35 376 57 376 c 2
 170 376 l 2
 197 376 208 372 208 348 c 0
 208 325 194 318 161 318 c 2
 146 318 l 1
 255 94 l 1
 368 318 l 1
 352 318 l 2
 317 318 303 325 303 348 c 0
 303 372 315 376 342 376 c 2
 442 376 l 2
 464 376 475 367 475 348 c 0
 475 326 462 319 434 318 c 1
 220 -104 l 1
EndSplineSet
Validated: 1
EndChar

StartChar: z
Encoding: 122 122 91
Width: 500
VWidth: 833
GlyphClass: 2
Flags: W
HStem: 0 58<162 365> 318 58<149 343>
VStem: 91 58<242.649 318> 365 57<58 133.351>
LayerCount: 2
Fore
SplineSet
162 58 m 1
 365 58 l 1
 365 78 l 2
 365 116 367 134 394 134 c 0
 413 134 422 124 422 102 c 2
 422 34 l 2
 422 6 406 0 374 0 c 2
 128 0 l 2
 97 0 82 13 82 37 c 0
 82 57 94 69 111 86 c 2
 343 318 l 1
 149 318 l 1
 149 298 l 2
 149 260 147 242 120 242 c 0
 101 242 91 252 91 274 c 2
 91 343 l 2
 91 366 110 376 148 376 c 2
 365 376 l 2
 403 376 422 362 422 335 c 0
 422 319 410 299 386 276 c 2
 162 58 l 1
EndSplineSet
Validated: 1
EndChar

StartChar: braceleft
Encoding: 123 123 92
Width: 500
VWidth: 833
GlyphClass: 2
Flags: W
HStem: -152 65<307.062 387.38> 420 64<308.98 387.648>
VStem: 229 69<-78.1229 112.229 217.887 409.82>
LayerCount: 2
Fore
SplineSet
298 341 m 2
 298 302 l 2
 298 224 285 184 223 166 c 1
 285 147 298 105 298 28 c 2
 298 -10 l 2
 298 -57 300 -78 338 -87 c 0
 360 -93 389 -87 389 -120 c 0
 389 -141 377 -152 354 -152 c 0
 249 -152 229 -97 229 11 c 2
 229 37 l 2
 229 118 202 123 149 132 c 0
 127 136 119 146 119 166 c 0
 119 184 127 193 144 197 c 0
 193 209 229 202 229 294 c 2
 229 320 l 2
 229 429 248 484 358 484 c 0
 376 484 389 472 389 452 c 0
 389 421 365 424 343 420 c 0
 301 412 298 388 298 341 c 2
EndSplineSet
Validated: 1
EndChar

StartChar: bar
Encoding: 124 124 93
Width: 500
VWidth: 833
GlyphClass: 2
Flags: W
VStem: 217 68<-216.468 655.607>
LayerCount: 2
Fore
SplineSet
285 -197 m 1
 284 -208 270 -218 251 -218 c 0
 232 -218 218 -208 217 -197 c 1
 217 637 l 1
 218 648 232 657 251 657 c 0
 270 657 284 648 285 637 c 1
 285 -197 l 1
EndSplineSet
Validated: 1
EndChar

StartChar: braceright
Encoding: 125 125 94
Width: 500
VWidth: 833
GlyphClass: 2
Flags: W
HStem: -152 64<120.351 201.859> 418 66<120.987 202.752>
VStem: 211 68<-78.1229 112.229 217.887 409.82>
LayerCount: 2
Fore
SplineSet
211 341 m 2
 211 387 208 408 170 418 c 0
 148 424 119 419 119 452 c 0
 119 472 132 484 150 484 c 0
 260 484 279 429 279 320 c 2
 279 294 l 2
 279 202 315 209 364 197 c 0
 381 193 389 184 389 166 c 0
 389 146 381 136 359 132 c 0
 306 123 279 118 279 37 c 2
 279 11 l 2
 279 -97 260 -152 155 -152 c 0
 132 -152 119 -141 119 -120 c 0
 119 -90 142 -92 165 -88 c 0
 207 -80 211 -58 211 -10 c 2
 211 28 l 2
 211 105 223 147 285 166 c 1
 223 184 211 224 211 302 c 2
 211 341 l 2
EndSplineSet
Validated: 1
EndChar

StartChar: asciitilde
Encoding: 126 126 95
Width: 500
VWidth: 833
GlyphClass: 2
Flags: W
HStem: 201 58<263.02 394.459> 253 59<107.122 239.342>
LayerCount: 2
Fore
SplineSet
54 238 m 0x40
 54 266 108 312 168 312 c 0x40
 224 312 281 259 336 259 c 0
 383 259 409 299 428 299 c 0
 441 299 448 290 448 274 c 0
 448 246 393 201 334 201 c 0x80
 278 201 222 253 166 253 c 0
 119 253 92 213 74 213 c 0
 61 213 54 222 54 238 c 0x40
EndSplineSet
Validated: 1
EndChar

StartChar: exclamdown
Encoding: 161 161 96
Width: 500
VWidth: 833
GlyphClass: 2
Flags: W
HStem: 368 128<193.333 310.16>
VStem: 175 152<384.596 477.375> 203 95<-15.9169 155.2>
LayerCount: 2
Fore
SplineSet
175 431 m 0xc0
 175 468 205 496 251 496 c 0
 298 496 327 469 327 431 c 0
 327 394 298 368 251 368 c 0
 204 368 175 394 175 431 c 0xc0
203 32 m 1xa0
 218 296 l 2
 219 314 232 327 251 327 c 0
 270 327 283 314 284 296 c 2
 298 32 l 1
 298 28 l 2
 298 -4 280 -23 251 -23 c 0
 222 -23 203 -4 203 28 c 2
 203 32 l 1xa0
EndSplineSet
Validated: 1
EndChar

StartChar: cent
Encoding: 162 162 97
Width: 500
VWidth: 833
GlyphClass: 2
Flags: W
HStem: -28 170<212.099 299.5> 290 126<355.421 406.779>
VStem: 78 66<189.596 330.284> 206 56<-27.666 87.6326> 226 62<430 536.96>
LayerCount: 2
Fore
SplineSet
355 408 m 1xe8
 364 413 372 416 382 416 c 0
 404 416 408 403 408 375 c 2
 408 317 l 2
 408 299 398 290 380 290 c 0
 362 290 356 305 344 328 c 0
 326 363 302 378 260 378 c 0
 192 378 144 325 144 259 c 0
 144 189 192 142 266 142 c 0
 333 142 359 182 385 182 c 0
 400 182 410 172 410 158 c 0
 410 128 355 93 268 86 c 1
 262 -4 l 2
 261 -21 252 -28 234 -28 c 0
 215 -28 206 -21 206 -5 c 2
 206 -3 l 1xf0
 211 91 l 1
 130 109 78 177 78 258 c 0
 78 346 135 414 226 430 c 1
 231 515 l 2
 232 531 240 538 258 538 c 0
 278 538 288 532 288 516 c 2
 288 514 l 1
 282 430 l 1
 310 425 334 419 355 408 c 1xe8
EndSplineSet
Validated: 1
EndChar

StartChar: sterling
Encoding: 163 163 98
Width: 500
VWidth: 833
GlyphClass: 2
Flags: W
HStem: 0 62<223.419 382.612> 20 58<223 326.593> 229 46<106 144 224 372> 473 47<209.307 327.345>
VStem: 123 65<277.175 451.785> 178 62<77.2346 227.294> 330 54<405.987 466.2>
LayerCount: 2
Fore
SplineSet
224 229 m 1x7a
 234 194 240 166 240 144 c 0
 240 122 235 101 223 78 c 1
 231 78 l 2x76
 267 78 298 62 328 62 c 0
 364 62 381 87 390 87 c 0
 395 87 400 84 402 80 c 2
 414 58 l 2
 416 55 418 51 418 49 c 0
 418 37 378 0 330 0 c 0xb6
 290 0 251 20 213 20 c 0
 175 20 151 -3 129 -3 c 0
 118 -3 108 12 108 23 c 0
 108 34 125 39 145 54 c 0
 164 68 178 96 178 133 c 0x76
 178 160 169 191 157 229 c 1
 122 229 l 2
 112 229 106 236 106 245 c 2
 106 263 l 2
 106 271 110 275 119 275 c 2
 144 275 l 1
 132 316 123 353 123 390 c 0
 123 466 179 520 260 520 c 0
 315 520 360 503 378 488 c 0
 384 483 384 474 384 460 c 2
 384 437 l 2
 384 419 373 405 359 405 c 0
 337 405 338 426 330 447 c 0
 323 463 302 473 272 473 c 0
 220 473 188 447 188 397 c 0
 188 369 195 327 210 275 c 1
 354 275 l 2
 366 275 372 271 372 259 c 2
 372 245 l 2
 372 235 367 229 358 229 c 2
 224 229 l 1x7a
EndSplineSet
Validated: 1
EndChar

StartChar: currency
Encoding: 164 164 99
Width: 500
VWidth: 833
GlyphClass: 2
Flags: W
HStem: 202 41<188.111 317.993> 478 40<189.4 317.026>
VStem: 95 42<293.812 425.973> 371 40<296.812 424.278>
LayerCount: 2
Fore
SplineSet
137 360 m 0
 137 296 188 243 253 243 c 0
 317 243 371 296 371 360 c 0
 371 425 318 478 253 478 c 0
 188 478 137 424 137 360 c 0
50 187 m 1
 128 263 l 1
 106 292 95 325 95 360 c 0
 95 395 106 427 128 456 c 1
 50 533 l 1
 79 562 l 1
 157 485 l 1
 185 507 217 518 253 518 c 0
 289 518 321 507 350 485 c 1
 427 562 l 1
 456 533 l 1
 378 456 l 1
 400 427 411 395 411 360 c 0
 411 326 400 293 378 263 c 1
 456 187 l 1
 427 158 l 1
 350 235 l 1
 321 213 289 202 253 202 c 0
 216 202 185 213 157 235 c 1
 79 158 l 1
 50 187 l 1
EndSplineSet
Validated: 1
EndChar

StartChar: yen
Encoding: 165 165 100
Width: 500
VWidth: 833
GlyphClass: 2
Flags: W
HStem: 0 58<108.481 218 280 388.488> 190 43<33.0095 194 304 461.99> 303 43<33.0095 129 372 461.99> 424 58<32.6075 83 148 214.242 299.578 364 419 467.426>
VStem: 218 62<58 190>
LayerCount: 2
Fore
SplineSet
340 58 m 2
 375 58 389 55 389 29 c 0
 389 4 377 0 345 0 c 2
 152 0 l 2
 121 0 108 4 108 29 c 0
 108 54 121 58 158 58 c 2
 218 58 l 1
 218 190 l 1
 70 190 l 2
 46 190 33 194 33 212 c 0
 33 229 46 233 70 233 c 2
 194 233 l 1
 152 303 l 1
 70 303 l 2
 46 303 33 306 33 324 c 0
 33 341 46 346 70 346 c 2
 129 346 l 1
 83 424 l 1
 76 424 l 2
 44 424 32 430 32 453 c 0
 32 481 49 482 81 482 c 2
 174 482 l 2
 202 482 215 478 215 453 c 0
 215 430 199 424 163 424 c 2
 148 424 l 1
 253 238 l 1
 364 424 l 1
 356 424 350 423 343 423 c 0
 311 423 299 430 299 453 c 0
 299 481 312 482 344 482 c 2
 355 482 l 1
 419 482 l 2
 453 482 468 480 468 453 c 0
 468 430 456 424 426 424 c 2
 419 424 l 1
 372 346 l 1
 425 346 l 2
 449 346 462 341 462 324 c 0
 462 306 449 303 425 303 c 2
 348 303 l 1
 304 232 l 1
 425 232 l 2
 449 232 462 228 462 211 c 0
 462 193 449 190 425 190 c 2
 280 190 l 1
 280 58 l 1
 340 58 l 2
EndSplineSet
Validated: 1
EndChar

StartChar: brokenbar
Encoding: 166 166 101
Width: 500
VWidth: 833
GlyphClass: 2
Flags: W
VStem: 226 49<-143 166 274 582>
LayerCount: 2
Fore
SplineSet
226 -143 m 1
 226 166 l 1
 275 166 l 1
 275 -143 l 1
 226 -143 l 1
226 274 m 1
 226 582 l 1
 275 582 l 1
 275 274 l 1
 226 274 l 1
EndSplineSet
Validated: 1
EndChar

StartChar: section
Encoding: 167 167 102
Width: 500
VWidth: 833
GlyphClass: 2
Flags: W
HStem: -88 137<99.5253 155.045> -88 55<156 310.019> 350 132<353.121 406.866> 430 52<190.818 352>
VStem: 63 60<240.4 313.276> 98 58<-33 47.9548> 121 64<358.983 421.677> 317 65<-24.7339 38.0395> 352 56<350.752 430> 377 61<81.9112 155.473>
LayerCount: 2
Fore
SplineSet
122 -88 m 2x81
 104 -88 98 -81 98 -63 c 2
 98 18 l 2
 98 34 111 49 127 49 c 0x85
 145 49 156 37 156 18 c 2
 156 -33 l 1x45
 254 -33 l 2
 296 -33 317 -19 317 8 c 0
 317 38 290 63 241 96 c 2
 128 172 l 2
 86 201 63 239 63 279 c 0x49
 63 317 82 344 122 366 c 1
 120 378 121 386 121 392 c 0
 121 419 134 445 158 462 c 0
 186 482 217 482 252 482 c 2
 268 482 l 1x52
 380 482 l 2
 399 482 408 476 408 460 c 2
 408 382 l 2
 408 361 397 350 379 350 c 0x2280
 363 350 352 363 352 382 c 2
 352 430 l 1x1280
 261 430 l 2
 211 430 185 419 185 388 c 0
 185 360 207 333 253 302 c 2
 362 229 l 2
 410 197 438 167 438 117 c 0x1240
 438 78 420 51 380 31 c 1
 382 20 382 12 382 5 c 0
 382 -56 338 -88 248 -88 c 2x51
 122 -88 l 2x81
352 80 m 1x0880
 370 88 377 97 377 115 c 0x0040
 377 132 361 156 328 178 c 2
 218 252 l 2
 189 272 165 290 148 315 c 1
 131 307 123 298 123 282 c 0
 123 261 141 238 178 213 c 2
 267 152 l 2
 302 128 332 108 352 80 c 1x0880
EndSplineSet
Validated: 1
EndChar

StartChar: dieresis
Encoding: 168 168 103
Width: 500
VWidth: 833
GlyphClass: 2
Flags: W
HStem: 435 98<106.701 187.932 313.385 394.615>
VStem: 98 98<443.838 524.002> 305 98<443.438 524.281>
LayerCount: 2
Fore
SplineSet
98 485 m 0
 98 511 121 533 148 533 c 0
 175 533 196 512 196 485 c 0
 196 456 176 435 148 435 c 0
 120 435 98 457 98 485 c 0
305 485 m 0
 305 511 327 533 354 533 c 0
 381 533 403 512 403 485 c 0
 403 456 382 435 354 435 c 0
 326 435 305 457 305 485 c 0
EndSplineSet
Validated: 1
EndChar

StartChar: copyright
Encoding: 169 169 104
Width: 500
VWidth: 833
GlyphClass: 2
Flags: W
HStem: 38 40<166.311 335.292> 124 50<197.028 314.29> 383 46<194.648 299.183> 480 40<164.978 337.532>
VStem: 10 40<194.626 364.796> 109 57<206.02 353.224> 304 54<312.609 374.914> 452 40<195.229 364.239>
LayerCount: 2
Fore
SplineSet
312 417 m 1
 316 424 324 426 334 426 c 0
 356 426 358 411 358 367 c 2
 358 339 l 2
 358 320 352 312 333 312 c 0
 311 312 310 325 304 351 c 0
 300 369 278 383 250 383 c 0
 199 383 166 345 166 277 c 0
 166 214 203 174 252 174 c 0
 297 174 326 209 339 209 c 0
 354 209 363 200 363 186 c 0
 363 164 311 124 249 124 c 0
 171 124 109 186 109 274 c 0
 109 363 170 429 251 429 c 0
 271 429 290 425 312 417 c 1
10 279 m 0
 10 343 34 403 80 449 c 0
 126 495 187 520 251 520 c 0
 313 520 376 495 421 450 c 0
 465 406 492 342 492 279 c 0
 492 216 467 155 420 108 c 0
 375 62 316 38 251 38 c 0
 203 38 157 52 118 78 c 0
 49 124 10 197 10 279 c 0
251 480 m 0
 199 480 147 459 109 421 c 0
 71 383 50 331 50 279 c 0
 50 227 72 176 110 138 c 0
 148 100 198 78 251 78 c 0
 303 78 354 100 392 138 c 0
 430 177 452 227 452 279 c 0
 452 332 430 384 392 422 c 0
 354 460 304 480 251 480 c 0
EndSplineSet
Validated: 1
EndChar

StartChar: ordfeminine
Encoding: 170 170 105
Width: 500
VWidth: 833
GlyphClass: 2
Flags: W
HStem: 92 50<110 402> 179 50<161.083 288.164> 188 45<376 430.974> 342 42<173.814 323.737> 450 46<179.354 310.746>
VStem: 98 52<242.093 320.053> 325 51<260.697 337.851 374 435.461> 331 100<188.16 227.875>
LayerCount: 2
Fore
SplineSet
328 228 m 1xbd
 292 196 248 179 205 179 c 0xdd
 140 179 98 221 98 278 c 0
 98 345 152 384 248 384 c 0
 273 384 298 381 325 374 c 1
 325 377 l 2
 325 427 302 450 252 450 c 0
 207 450 180 422 155 422 c 0
 143 422 132 434 132 448 c 0
 132 475 179 496 261 496 c 0
 337 496 376 457 376 380 c 2
 376 233 l 1xbe
 392 233 l 1
 401 233 l 2
 422 233 431 227 431 210 c 0
 431 195 423 188 405 188 c 2
 353 188 l 2
 341 188 333 194 331 208 c 2
 328 228 l 1xbd
325 332 m 1xde
 298 341 275 342 251 342 c 0
 188 342 150 315 150 280 c 0
 150 251 176 229 218 229 c 0
 272 229 325 267 325 296 c 2
 325 332 l 1xde
388 142 m 2
 397 142 402 137 402 129 c 2
 402 107 l 2
 402 99 396 92 388 92 c 2
 123 92 l 2
 115 92 110 98 110 107 c 2
 110 129 l 2
 110 136 115 142 123 142 c 2
 388 142 l 2
EndSplineSet
Validated: 1
EndChar

StartChar: guillemotleft
Encoding: 171 171 106
Width: 500
VWidth: 833
GlyphClass: 2
Flags: W
HStem: 38 300<206 228 344 366>
VStem: 124 250
LayerCount: 2
Fore
SplineSet
320 188 m 1
 374 74 l 2
 376 70 377 66 377 62 c 0
 377 48 366 38 353 38 c 0
 344 38 336 43 331 52 c 2
 268 169 l 2
 264 177 262 183 262 188 c 0
 262 193 264 199 268 207 c 2
 331 324 l 2
 336 332 344 338 353 338 c 0
 366 338 377 328 377 314 c 0
 377 310 376 306 374 302 c 2
 320 188 l 1
182 188 m 1
 236 74 l 2
 238 70 239 66 239 62 c 0
 239 48 228 38 215 38 c 0
 206 38 197 43 192 52 c 2
 130 169 l 2
 126 177 124 183 124 188 c 0
 124 193 126 199 130 207 c 2
 192 324 l 2
 197 332 206 338 215 338 c 0
 228 338 239 328 239 314 c 0
 239 310 238 306 236 302 c 2
 182 188 l 1
EndSplineSet
Validated: 1
EndChar

StartChar: logicalnot
Encoding: 172 172 107
Width: 500
VWidth: 833
GlyphClass: 2
Flags: W
HStem: 311 59<42.0381 399>
VStem: 399 62<143.657 311>
LayerCount: 2
Fore
SplineSet
399 311 m 1
 72 311 l 2
 53 311 41 323 41 341 c 0
 41 358 54 370 72 370 c 2
 438 370 l 2
 453 370 461 364 461 354 c 2
 461 175 l 2
 461 156 448 142 430 142 c 0
 413 142 399 157 399 175 c 2
 399 311 l 1
EndSplineSet
Validated: 1
EndChar

StartChar: registered
Encoding: 174 174 108
Width: 500
VWidth: 833
GlyphClass: 2
Flags: W
HStem: 38 40<166.311 335.292> 147 45<130.029 169 217 254.971 348 379.974> 260 42<217 256.799> 377 44<130.029 169 217 289.157> 480 40<164.978 337.532>
VStem: 10 40<194.626 364.796> 169 48<192 260 302 377> 294 53<307.325 371.981> 452 40<195.229 364.239>
LayerCount: 2
Fore
SplineSet
10 279 m 0
 10 343 34 403 80 449 c 0
 126 495 187 520 251 520 c 0
 313 520 376 495 421 450 c 0
 465 406 492 342 492 279 c 0
 492 216 467 155 420 108 c 0
 375 62 316 38 251 38 c 0
 203 38 157 52 118 78 c 0
 49 124 10 197 10 279 c 0
251 480 m 0
 199 480 147 459 109 421 c 0
 71 383 50 331 50 279 c 0
 50 227 72 176 110 138 c 0
 148 100 198 78 251 78 c 0
 303 78 354 100 392 138 c 0
 430 177 452 227 452 279 c 0
 452 332 430 384 392 422 c 0
 354 460 304 480 251 480 c 0
217 192 m 1
 224 192 l 2
 245 192 255 185 255 169 c 0
 255 152 246 147 226 147 c 2
 152 147 l 2
 138 147 130 155 130 169 c 0
 130 187 140 192 163 192 c 2
 169 192 l 1
 169 377 l 1
 163 377 l 2
 140 377 130 380 130 398 c 0
 130 412 138 421 152 421 c 2
 230 421 l 2
 308 421 347 396 347 338 c 0
 347 306 328 279 296 268 c 1
 298 266 302 262 306 256 c 2
 348 192 l 1
 352 192 l 2
 371 192 380 185 380 169 c 0
 380 155 372 147 358 147 c 2
 333 147 l 2
 319 147 312 155 304 168 c 2
 262 232 l 2
 247 254 242 260 224 260 c 2
 217 260 l 1
 217 192 l 1
217 377 m 1
 217 302 l 1
 240 302 l 2
 276 302 294 315 294 340 c 0
 294 366 277 377 241 377 c 2
 217 377 l 1
EndSplineSet
Validated: 1
EndChar

StartChar: macron
Encoding: 175 175 109
Width: 500
VWidth: 833
GlyphClass: 2
Flags: W
HStem: 460 48<108 392>
VStem: 108 284<460 508>
LayerCount: 2
Fore
SplineSet
392 472 m 2
 392 464 387 460 379 460 c 2
 122 460 l 2
 114 460 108 464 108 472 c 2
 108 495 l 2
 108 503 114 508 122 508 c 2
 379 508 l 2
 387 508 392 503 392 495 c 2
 392 472 l 2
EndSplineSet
Validated: 1
EndChar

StartChar: degree
Encoding: 176 176 110
Width: 500
VWidth: 833
GlyphClass: 2
Flags: W
HStem: 292 60<201.713 300.287> 493 60<201.713 299.714>
VStem: 120 62<370.867 473.262> 320 62<371.048 473.081>
LayerCount: 2
Fore
SplineSet
120 422 m 0
 120 494 178 553 251 553 c 0
 324 553 382 494 382 422 c 0
 382 349 324 292 251 292 c 0
 178 292 120 349 120 422 c 0
182 422 m 0
 182 382 212 352 251 352 c 0
 290 352 320 383 320 422 c 0
 320 461 290 493 251 493 c 0
 212 493 182 462 182 422 c 0
EndSplineSet
Validated: 1
EndChar

StartChar: plusminus
Encoding: 177 177 111
Width: 500
VWidth: 833
GlyphClass: 2
Flags: W
HStem: 38 59<89.1166 411.883> 302 60<89.1899 220 281 411.883> 496 20G<242 260>
VStem: 220 61<149.55 302 362 514.583>
LayerCount: 2
Fore
SplineSet
120 38 m 2
 101 38 88 50 88 68 c 0
 88 85 102 97 120 97 c 2
 381 97 l 2
 400 97 413 86 413 68 c 0
 413 50 400 38 381 38 c 2
 120 38 l 2
381 362 m 2
 400 362 413 350 413 332 c 0
 413 314 400 302 381 302 c 2
 281 302 l 1
 281 180 l 2
 281 161 269 148 251 148 c 0
 234 148 220 162 220 180 c 2
 220 302 l 1
 120 302 l 2
 101 302 88 314 88 332 c 0
 88 349 102 362 120 362 c 2
 220 362 l 1
 220 483 l 2
 220 502 233 516 251 516 c 0
 269 516 281 502 281 483 c 2
 281 362 l 1
 381 362 l 2
EndSplineSet
Validated: 1
EndChar

StartChar: twosuperior
Encoding: 178 178 112
Width: 500
VWidth: 833
GlyphClass: 2
Flags: W
HStem: 201 47<182 316> 477 50<180.443 285.802>
VStem: 295 64<376.533 468.818> 316 60<248.25 288.972>
LayerCount: 2
Fore
SplineSet
182 248 m 1xe0
 316 248 l 1
 318 262 l 2
 320 280 334 291 348 291 c 0
 364 291 376 276 376 258 c 0xd0
 376 256 376 252 375 250 c 2
 370 222 l 2
 368 205 354 201 332 201 c 2
 153 201 l 2
 132 201 122 216 122 237 c 0
 122 269 157 288 212 326 c 0
 264 363 295 387 295 425 c 0
 295 456 275 477 244 477 c 0
 205 477 178 448 158 448 c 0
 143 448 132 457 132 468 c 0
 132 494 188 527 250 527 c 0
 316 527 359 484 359 427 c 0
 359 356 295 320 182 248 c 1xe0
EndSplineSet
Validated: 1
EndChar

StartChar: threesuperior
Encoding: 179 179 113
Width: 500
VWidth: 833
GlyphClass: 2
Flags: W
HStem: 186 51<168.319 305.096> 339 51<212.232 300.312> 478 50<193.05 298.254>
VStem: 305 61<397.478 470.525> 319 65<251.515 328.838>
LayerCount: 2
Fore
SplineSet
321 371 m 1xf0
 363 351 384 323 384 288 c 0
 384 231 330 186 241 186 c 0
 164 186 118 216 118 240 c 0
 118 253 130 267 145 267 c 0
 164 267 192 237 244 237 c 0
 292 237 319 259 319 292 c 0xe8
 319 317 298 337 263 339 c 0
 232 341 212 338 212 365 c 0
 212 382 221 387 243 390 c 0
 280 395 305 395 305 433 c 0
 305 460 285 478 251 478 c 0
 212 478 183 443 163 443 c 0
 149 443 139 454 139 466 c 0
 139 489 195 528 259 528 c 0
 323 528 366 486 366 442 c 0
 366 412 351 389 321 371 c 1xf0
EndSplineSet
Validated: 1
EndChar

StartChar: acute
Encoding: 180 180 114
Width: 500
VWidth: 833
GlyphClass: 2
Flags: W
HStem: 421 135
VStem: 163 233
LayerCount: 2
Fore
SplineSet
163 442 m 1
 357 556 l 2
 359 557 361 558 363 558 c 0
 371 558 378 553 382 545 c 2
 396 521 l 2
 398 519 398 514 398 512 c 0
 398 505 394 498 387 496 c 2
 174 421 l 1
 163 442 l 1
EndSplineSet
Validated: 1
EndChar

StartChar: paragraph
Encoding: 182 182 115
Width: 500
VWidth: 833
GlyphClass: 2
Flags: W
HStem: -63 54<122.45 239 382 457.576> 458 55<288 334 382 446.704>
VStem: 48 240<284.297 435.945> 239 49<-9 212> 319 139<-62.2792 -9.46484> 334 48<-9 458>
LayerCount: 2
Fore
SplineSet
239 -9 m 1xd4
 239 212 l 1xd4
 226 212 l 2
 116 212 48 273 48 361 c 0
 48 458 131 513 295 513 c 2
 416 513 l 2
 438 513 447 505 447 486 c 0
 447 464 439 458 416 458 c 2
 382 458 l 1
 382 -9 l 1xe4
 430 -9 l 2
 449 -9 458 -19 458 -37 c 0
 458 -59 450 -63 428 -63 c 2
 350 -63 l 2
 330 -63 319 -55 319 -37 c 0xc8
 319 -27 324 -17 334 -9 c 1
 334 458 l 1
 288 458 l 1
 288 -9 l 1
 300 -14 305 -23 305 -37 c 0
 305 -59 295 -63 273 -63 c 2
 153 -63 l 2
 133 -63 122 -55 122 -37 c 0
 122 -12 139 -9 175 -9 c 2
 239 -9 l 1xd4
EndSplineSet
Validated: 1
EndChar

StartChar: periodcentered
Encoding: 183 183 116
Width: 500
VWidth: 833
GlyphClass: 2
Flags: W
HStem: 178 157<197.736 303.414>
VStem: 172 157<202.738 309.414>
LayerCount: 2
Fore
SplineSet
172 257 m 0
 172 300 208 335 251 335 c 0
 294 335 329 300 329 257 c 0
 329 214 294 178 251 178 c 0
 207 178 172 214 172 257 c 0
EndSplineSet
Validated: 1
EndChar

StartChar: cedilla
Encoding: 184 184 117
Width: 500
VWidth: 833
GlyphClass: 2
Flags: W
HStem: -193 39<178.213 291.791> -86 78<228 256.097> -86 32<257 289.092>
VStem: 228 29<-54 -8> 294 64<-151.797 -89.1715>
LayerCount: 2
Fore
SplineSet
257 -8 m 1xd8
 257 -54 l 1xb8
 270 -52 280 -51 287 -51 c 0
 329 -51 358 -79 358 -121 c 0
 358 -167 325 -193 266 -193 c 0
 213 -193 148 -172 148 -149 c 0
 148 -140 156 -133 168 -133 c 0
 184 -133 215 -154 255 -154 c 0
 281 -154 294 -143 294 -121 c 0
 294 -98 279 -86 251 -86 c 0
 249 -86 240 -86 228 -88 c 1
 228 -8 l 1
 257 -8 l 1xd8
EndSplineSet
Validated: 1
EndChar

StartChar: onesuperior
Encoding: 185 185 118
Width: 500
VWidth: 833
GlyphClass: 2
Flags: W
HStem: 201 43<138.006 231 290 383.994> 507 20G<272.5 279.5>
VStem: 231 59<244 477>
LayerCount: 2
Fore
SplineSet
231 477 m 1
 175 466 l 2
 172 465 168 465 165 465 c 0
 151 465 142 473 142 485 c 0
 142 497 149 502 163 505 c 2
 263 526 l 2
 267 527 271 527 274 527 c 0
 285 527 290 522 290 511 c 2
 290 244 l 1
 358 244 l 2
 376 244 384 238 384 222 c 0
 384 206 376 201 358 201 c 2
 163 201 l 2
 145 201 138 206 138 222 c 0
 138 238 146 244 164 244 c 2
 231 244 l 1
 231 477 l 1
EndSplineSet
Validated: 1
EndChar

StartChar: ordmasculine
Encoding: 186 186 119
Width: 500
VWidth: 833
GlyphClass: 2
Flags: W
HStem: 92 50<104 398> 180 45<180.649 321.664> 451 45<180.649 321.664>
VStem: 79 58<268.792 407.208> 366 56<270.538 405.676>
LayerCount: 2
Fore
SplineSet
251 225 m 0
 319 225 366 274 366 338 c 0
 366 403 319 451 251 451 c 0
 183 451 137 403 137 338 c 0
 137 273 183 225 251 225 c 0
422 338 m 0
 422 247 355 180 251 180 c 0
 148 180 79 248 79 338 c 0
 79 428 148 496 251 496 c 0
 355 496 422 429 422 338 c 0
382 142 m 2
 391 142 398 137 398 129 c 2
 398 107 l 2
 398 99 390 92 382 92 c 2
 118 92 l 2
 110 92 104 98 104 107 c 2
 104 129 l 2
 104 136 110 142 118 142 c 2
 382 142 l 2
EndSplineSet
Validated: 1
EndChar

StartChar: guillemotright
Encoding: 187 187 120
Width: 500
VWidth: 833
GlyphClass: 2
Flags: W
HStem: 38 300<135 157 273 295>
VStem: 127 250
LayerCount: 2
Fore
SplineSet
181 188 m 1
 127 302 l 2
 125 306 124 310 124 314 c 0
 124 328 135 338 148 338 c 0
 157 338 166 332 171 323 c 2
 233 207 l 2
 237 199 239 193 239 188 c 0
 239 183 237 177 233 169 c 2
 171 52 l 2
 166 44 157 38 148 38 c 0
 135 38 124 48 124 62 c 0
 124 66 125 70 127 74 c 2
 181 188 l 1
319 188 m 1
 265 302 l 2
 263 306 262 310 262 314 c 0
 262 328 273 338 286 338 c 0
 295 338 303 332 308 323 c 2
 371 207 l 2
 375 199 377 193 377 188 c 0
 377 183 375 177 371 169 c 2
 308 52 l 2
 303 44 295 38 286 38 c 0
 273 38 262 48 262 62 c 0
 262 66 263 70 265 74 c 2
 319 188 l 1
EndSplineSet
Validated: 1
EndChar

StartChar: onequarter
Encoding: 188 188 121
Width: 500
VWidth: 833
GlyphClass: 2
Flags: W
HStem: -14 46<237 338 388 438.985> 128 44<50.0392 65> 273 47<54.1279 131 186 257.872> 308 44<434 448.941> 513 54<65.3381 131>
VStem: 131 55<320 515> 342 46<-77.8127 -14 32 169>
LayerCount: 2
Fore
SplineSet
413 349 m 2xde
 418 351 424 352 428 352 c 0
 440 352 449 343 449 331 c 0
 449 323 443 313 434 308 c 2
 85 132 l 2
 81 130 76 128 72 128 c 0
 60 128 50 139 50 151 c 0
 50 159 56 167 65 172 c 2
 413 349 l 2xde
388 -57 m 2
 388 -75 378 -78 360 -78 c 0
 344 -78 338 -73 338 -57 c 2
 338 -14 l 1
 214 -14 l 2
 195 -14 188 -5 188 16 c 0
 188 31 188 44 203 62 c 2
 318 205 l 2
 326 214 330 219 338 219 c 0
 342 219 348 219 352 218 c 2
 375 211 l 2
 386 209 388 199 388 185 c 2
 388 32 l 1
 419 32 l 2
 437 32 439 28 439 10 c 0
 439 -8 437 -14 419 -14 c 2
 388 -14 l 1
 388 -57 l 2
342 32 m 1
 342 169 l 1
 237 32 l 1
 342 32 l 1
83 273 m 2xee
 65 273 54 283 54 297 c 0
 54 317 70 320 103 320 c 2
 131 320 l 1
 131 515 l 1
 100 513 l 1
 98 513 l 2
 77 513 64 525 64 537 c 0
 64 553 75 560 97 562 c 2
 155 567 l 1
 160 567 l 2
 178 567 186 558 186 537 c 2
 186 320 l 1
 209 320 l 2
 241 320 258 319 258 297 c 0
 258 283 247 273 229 273 c 2
 83 273 l 2xee
EndSplineSet
Validated: 1
EndChar

StartChar: onehalf
Encoding: 189 189 122
Width: 500
VWidth: 833
GlyphClass: 2
Flags: W
HStem: -74 50<298 438.801> 128 44<50.0392 65> 172 48<274.926 371.163> 273 47<54.1279 131 186 257.872> 308 44<434 448.941> 513 54<65.3381 131>
VStem: 131 55<320 515> 378 57<79.6649 166.062>
LayerCount: 2
Fore
SplineSet
413 349 m 2xcf
 418 351 424 352 428 352 c 0
 440 352 449 343 449 331 c 0
 449 323 443 313 434 308 c 2
 85 132 l 2
 81 130 76 128 72 128 c 0
 60 128 50 139 50 151 c 0
 50 159 56 167 65 172 c 2
 413 349 l 2xcf
267 -74 m 2
 249 -74 238 -61 238 -41 c 0
 238 -14 262 2 299 30 c 0
 349 68 378 92 378 124 c 0
 378 153 361 172 333 172 c 0
 301 172 279 146 260 146 c 0
 247 146 238 155 238 169 c 0
 238 188 287 220 342 220 c 0xa7
 396 220 435 179 435 128 c 0
 435 70 389 29 298 -24 c 1
 409 -24 l 2
 429 -24 439 -33 439 -49 c 0
 439 -64 428 -74 411 -74 c 2
 267 -74 l 2
83 273 m 2x97
 65 273 54 283 54 297 c 0
 54 317 70 320 103 320 c 2
 131 320 l 1
 131 515 l 1
 100 513 l 1
 98 513 l 2
 77 513 64 525 64 537 c 0
 64 553 75 560 97 562 c 2
 155 567 l 1
 160 567 l 2
 178 567 186 558 186 537 c 2
 186 320 l 1
 209 320 l 2
 241 320 258 319 258 297 c 0
 258 283 247 273 229 273 c 2
 83 273 l 2x97
EndSplineSet
Validated: 1
EndChar

StartChar: threequarters
Encoding: 190 190 123
Width: 500
VWidth: 833
GlyphClass: 2
Flags: W
HStem: -14 46<236 337 388 438.985> 128 44<50.0392 65> 263 49<76.1601 204.807> 308 44<434 448.941> 402 43<138.004 201.361> 522 45<92.1221 199.943>
VStem: 205 57<449.248 516.511> 213 59<321.869 395.828> 341 47<-77.8127 -14 32 169>
LayerCount: 2
Fore
SplineSet
388 -57 m 2xcd80
 388 -75 378 -78 360 -78 c 0
 344 -78 337 -73 337 -57 c 2
 337 -14 l 1
 213 -14 l 2
 194 -14 188 -5 188 16 c 0
 188 31 188 44 203 62 c 2
 318 205 l 2
 326 214 330 219 338 219 c 0
 342 219 347 219 351 218 c 2
 375 211 l 2
 386 209 388 199 388 185 c 2
 388 32 l 1
 419 32 l 2
 437 32 439 28 439 10 c 0
 439 -8 437 -14 419 -14 c 2
 388 -14 l 1
 388 -57 l 2xcd80
341 32 m 1
 341 169 l 1
 236 32 l 1
 341 32 l 1
413 349 m 2
 418 351 424 352 428 352 c 0
 440 352 449 343 449 331 c 0
 449 323 443 313 434 308 c 2xdc80
 85 132 l 2
 81 130 76 128 72 128 c 0
 60 128 50 139 50 151 c 0
 50 159 56 167 65 172 c 2
 413 349 l 2
218 428 m 1
 254 412 272 386 272 354 c 0
 272 303 228 263 157 263 c 0
 99 263 55 285 55 305 c 0
 55 319 67 330 82 330 c 0
 102 330 127 312 157 312 c 0
 190 312 213 333 213 359 c 0xed80
 213 383 193 402 168 402 c 2
 162 402 l 2
 144 402 138 408 138 423 c 0
 138 438 144 443 164 445 c 0
 192 447 205 461 205 482 c 0
 205 504 185 522 162 522 c 0
 131 522 113 502 95 502 c 0
 83 502 72 512 72 524 c 0
 72 541 115 567 168 567 c 0
 224 567 262 531 262 491 c 0xee80
 262 463 247 442 218 428 c 1
EndSplineSet
Validated: 1
EndChar

StartChar: questiondown
Encoding: 191 191 124
Width: 500
VWidth: 833
GlyphClass: 2
Flags: W
HStem: -20 57<194.365 340.232> 223 110<251.232 302.274> 373 123<221.41 338.253>
VStem: 99 65<65.0933 172.716> 205 150<389.368 478.792> 250 60<263.844 331.866> 342 61<47.0854 107.471>
LayerCount: 2
Fore
SplineSet
355 434 m 0xf8
 355 399 327 373 280 373 c 0
 233 373 205 399 205 434 c 0
 205 469 233 496 280 496 c 0
 326 496 355 468 355 434 c 0xf8
310 280 m 2xf6
 310 252 303 236 277 223 c 0
 222 194 164 183 164 121 c 0
 164 72 201 37 264 37 c 0
 302 37 336 51 342 61 c 0
 347 69 339 109 374 109 c 0
 391 109 403 94 403 72 c 2
 403 33 l 2
 403 4 335 -20 257 -20 c 0
 160 -20 99 40 99 122 c 0
 99 193 148 233 250 271 c 1
 250 303 l 2
 250 321 262 333 281 333 c 0
 300 333 310 322 310 304 c 2
 310 280 l 2xf6
EndSplineSet
Validated: 1
EndChar

StartChar: Agrave
Encoding: 192 192 125
Width: 500
VWidth: 833
GlyphClass: 2
Flags: W
HStem: 0 58<1.5332 49 112 197.293 309.664 392 460 504.516> 154 54<167 333> 424 58<83.6819 188> 531 21G<254.2 321.476>
LayerCount: 2
Fore
SplineSet
188 424 m 1
 128 424 l 2
 97 424 83 431 83 453 c 0
 83 482 102 482 140 482 c 2
 256 482 l 2
 279 482 290 482 301 455 c 2
 460 58 l 1
 467 58 l 2
 495 58 505 51 505 29 c 0
 505 6 495 0 468 0 c 2
 358 0 l 2
 326 0 309 2 309 29 c 0
 309 52 323 58 355 58 c 2
 392 58 l 1
 353 154 l 1
 147 154 l 1
 112 58 l 1
 151 58 l 2
 183 58 198 52 198 29 c 0
 198 2 182 0 150 0 c 2
 43 0 l 2
 12 0 1 4 1 29 c 0
 1 51 11 58 39 58 c 2
 49 58 l 1
 188 424 l 1
167 208 m 1
 333 208 l 1
 245 424 l 1
 167 208 l 1
311 531 m 1
 98 606 l 2
 91 608 88 615 88 622 c 0
 88 624 87 629 89 631 c 2
 102 655 l 2
 106 663 114 668 122 668 c 0
 124 668 126 667 128 666 c 2
 322 552 l 1
 311 531 l 1
EndSplineSet
Validated: 1
EndChar

StartChar: Aacute
Encoding: 193 193 126
Width: 500
VWidth: 833
GlyphClass: 2
Flags: W
HStem: 0 58<1.5332 49 112 197.293 309.664 392 460 504.516> 154 54<167 333> 424 58<83.6819 188> 531 21G<147.524 214.533>
LayerCount: 2
Fore
SplineSet
188 424 m 1
 128 424 l 2
 97 424 83 431 83 453 c 0
 83 482 102 482 140 482 c 2
 256 482 l 2
 279 482 290 482 301 455 c 2
 460 58 l 1
 467 58 l 2
 495 58 505 51 505 29 c 0
 505 6 495 0 468 0 c 2
 358 0 l 2
 326 0 309 2 309 29 c 0
 309 52 323 58 355 58 c 2
 392 58 l 1
 353 154 l 1
 147 154 l 1
 112 58 l 1
 151 58 l 2
 183 58 198 52 198 29 c 0
 198 2 182 0 150 0 c 2
 43 0 l 2
 12 0 1 4 1 29 c 0
 1 51 11 58 39 58 c 2
 49 58 l 1
 188 424 l 1
167 208 m 1
 333 208 l 1
 245 424 l 1
 167 208 l 1
147 552 m 1
 340 666 l 2
 342 667 345 668 347 668 c 0
 355 668 362 663 366 655 c 2
 379 631 l 2
 381 629 381 624 381 622 c 0
 381 615 377 608 370 606 c 2
 158 531 l 1
 147 552 l 1
EndSplineSet
Validated: 1
EndChar

StartChar: Acircumflex
Encoding: 194 194 127
Width: 500
VWidth: 833
GlyphClass: 2
Flags: W
HStem: 0 58<1.5332 49 112 197.293 309.664 392 460 504.516> 154 54<167 333> 424 58<83.6819 188>
LayerCount: 2
Fore
SplineSet
188 424 m 1
 128 424 l 2
 97 424 83 431 83 453 c 0
 83 482 102 482 140 482 c 2
 256 482 l 2
 279 482 290 482 301 455 c 2
 460 58 l 1
 467 58 l 2
 495 58 505 51 505 29 c 0
 505 6 495 0 468 0 c 2
 358 0 l 2
 326 0 309 2 309 29 c 0
 309 52 323 58 355 58 c 2
 392 58 l 1
 353 154 l 1
 147 154 l 1
 112 58 l 1
 151 58 l 2
 183 58 198 52 198 29 c 0
 198 2 182 0 150 0 c 2
 43 0 l 2
 12 0 1 4 1 29 c 0
 1 51 11 58 39 58 c 2
 49 58 l 1
 188 424 l 1
167 208 m 1
 333 208 l 1
 245 424 l 1
 167 208 l 1
234 599 m 1
 117 537 l 2
 115 535 111 535 109 535 c 0
 101 535 94 541 94 550 c 0
 94 554 96 559 99 561 c 2
 212 649 l 2
 219 655 226 658 234 658 c 0
 242 658 250 655 257 649 c 2
 369 561 l 2
 372 559 374 554 374 550 c 0
 374 541 367 535 359 535 c 0
 357 535 354 535 352 537 c 2
 234 599 l 1
EndSplineSet
Validated: 1
EndChar

StartChar: Atilde
Encoding: 195 195 128
Width: 500
VWidth: 833
GlyphClass: 2
Flags: W
HStem: 0 58<1.5332 49 112 197.293 309.664 392 460 504.516> 154 54<167 333> 424 58<83.6819 188> 562 50<204.057 351.405> 586 50<116.479 260.55>
LayerCount: 2
Fore
SplineSet
188 424 m 1xe0
 128 424 l 2
 97 424 83 431 83 453 c 0
 83 482 102 482 140 482 c 2
 256 482 l 2
 279 482 290 482 301 455 c 2
 460 58 l 1
 467 58 l 2
 495 58 505 51 505 29 c 0
 505 6 495 0 468 0 c 2
 358 0 l 2
 326 0 309 2 309 29 c 0
 309 52 323 58 355 58 c 2
 392 58 l 1
 353 154 l 1
 147 154 l 1
 112 58 l 1
 151 58 l 2
 183 58 198 52 198 29 c 0
 198 2 182 0 150 0 c 2
 43 0 l 2
 12 0 1 4 1 29 c 0
 1 51 11 58 39 58 c 2
 49 58 l 1
 188 424 l 1xe0
167 208 m 1
 333 208 l 1
 245 424 l 1
 167 208 l 1
275 618 m 2
 289 615 301 612 309 612 c 0
 341 612 348 640 366 640 c 0
 376 640 381 634 381 624 c 0
 381 605 346 562 288 562 c 0xf0
 273 562 257 564 239 568 c 2
 192 581 l 2
 180 584 169 586 158 586 c 0
 126 586 120 558 102 558 c 0
 92 558 87 564 87 573 c 0
 87 593 122 636 180 636 c 0xe8
 196 636 211 633 228 629 c 2
 275 618 l 2
EndSplineSet
Validated: 1
EndChar

StartChar: Adieresis
Encoding: 196 196 129
Width: 500
VWidth: 833
GlyphClass: 2
Flags: W
HStem: 0 58<1.5332 49 112 197.293 309.664 392 460 504.516> 154 54<167 333> 424 58<83.6819 188> 545 98<89.7012 170.932 296.701 378.615>
VStem: 81 98<553.838 634.002> 288 99<553.838 634.002>
LayerCount: 2
Fore
SplineSet
188 424 m 1
 128 424 l 2
 97 424 83 431 83 453 c 0
 83 482 102 482 140 482 c 2
 256 482 l 2
 279 482 290 482 301 455 c 2
 460 58 l 1
 467 58 l 2
 495 58 505 51 505 29 c 0
 505 6 495 0 468 0 c 2
 358 0 l 2
 326 0 309 2 309 29 c 0
 309 52 323 58 355 58 c 2
 392 58 l 1
 353 154 l 1
 147 154 l 1
 112 58 l 1
 151 58 l 2
 183 58 198 52 198 29 c 0
 198 2 182 0 150 0 c 2
 43 0 l 2
 12 0 1 4 1 29 c 0
 1 51 11 58 39 58 c 2
 49 58 l 1
 188 424 l 1
167 208 m 1
 333 208 l 1
 245 424 l 1
 167 208 l 1
81 595 m 0
 81 621 104 643 131 643 c 0
 158 643 179 622 179 595 c 0
 179 566 159 545 131 545 c 0
 103 545 81 567 81 595 c 0
288 595 m 0
 288 621 311 643 338 643 c 0
 365 643 387 622 387 595 c 0
 387 566 366 545 338 545 c 0
 310 545 288 567 288 595 c 0
EndSplineSet
Validated: 1
EndChar

StartChar: Aring
Encoding: 197 197 130
Width: 500
VWidth: 833
GlyphClass: 2
Flags: W
HStem: 0 58<1.5332 49 112 197.293 309.664 392 460 504.516> 154 54<167 333> 424 58<83.6819 188> 509 49<190.438 277.415> 667 48<190.835 277.01>
VStem: 131 48<568.757 655.2> 289 48<569.143 655.01>
LayerCount: 2
Fore
SplineSet
179 612 m 0
 179 581 203 558 234 558 c 0
 264 558 289 581 289 612 c 0
 289 642 264 667 234 667 c 0
 203 667 179 642 179 612 c 0
131 612 m 0
 131 669 176 715 234 715 c 0
 292 715 337 670 337 612 c 0
 337 554 292 509 234 509 c 0
 176 509 131 554 131 612 c 0
167 208 m 1
 333 208 l 1
 245 424 l 1
 167 208 l 1
188 424 m 1
 128 424 l 2
 97 424 83 431 83 453 c 0
 83 482 102 482 140 482 c 2
 256 482 l 2
 279 482 290 482 301 455 c 2
 460 58 l 1
 467 58 l 2
 495 58 505 51 505 29 c 0
 505 6 495 0 468 0 c 2
 358 0 l 2
 326 0 309 2 309 29 c 0
 309 52 323 58 355 58 c 2
 392 58 l 1
 353 154 l 1
 147 154 l 1
 112 58 l 1
 151 58 l 2
 183 58 198 52 198 29 c 0
 198 2 182 0 150 0 c 2
 43 0 l 2
 12 0 1 4 1 29 c 0
 1 51 11 58 39 58 c 2
 49 58 l 1
 188 424 l 1
EndSplineSet
Validated: 1
EndChar

StartChar: AE
Encoding: 198 198 131
Width: 500
VWidth: 833
GlyphClass: 2
Flags: W
HStem: 0 58<1.53394 51 110 158.51 177.533 232 290 422> 161 47<156 232> 226 45<290 350> 424 58<108.542 178 290 423>
VStem: 1 158<0.881153 56.7434> 232 58<58 161 208 226 271 424> 350 51<162.278 226 271 334.688> 422 58<58 171.26 317.607 424>
LayerCount: 2
Fore
SplineSet
138 424 m 2
 117 424 108 433 108 453 c 0
 108 476 117 482 141 482 c 2
 452 482 l 2
 470 482 481 472 481 450 c 2
 481 345 l 2
 481 327 471 317 452 317 c 0
 430 317 423 327 423 352 c 2
 423 366 l 1
 423 424 l 1
 290 424 l 1
 290 271 l 1
 350 271 l 1
 350 283 l 2
 350 318 354 335 376 335 c 0
 394 335 401 324 401 302 c 2
 401 198 l 2
 401 173 396 162 376 162 c 0
 354 162 350 177 350 213 c 2
 350 226 l 1
 290 226 l 1
 290 58 l 1
 422 58 l 1
 422 123 l 1
 422 140 l 2
 422 162 432 172 452 172 c 0
 471 172 480 162 480 144 c 2
 480 30 l 2
 480 11 470 0 452 0 c 2
 202 0 l 2
 186 0 177 10 177 29 c 0
 177 55 188 58 219 58 c 2
 232 58 l 1
 232 161 l 1
 143 161 l 1
 110 58 l 1
 135 58 l 2
 151 58 159 48 159 29 c 0
 159 3 149 0 118 0 c 2
 28 0 l 2
 10 0 1 10 1 29 c 0
 1 51 11 58 39 58 c 2
 51 58 l 1
 178 424 l 1
 138 424 l 2
156 208 m 1
 232 208 l 1
 232 435 l 1
 224 435 l 1
 156 208 l 1
EndSplineSet
Validated: 1
EndChar

StartChar: Ccedilla
Encoding: 199 199 132
Width: 500
VWidth: 833
GlyphClass: 2
Flags: W
HStem: -193 39<184.213 297.791> -86 32<262 294.593> -12 64<189.214 354.903> -12 4<234 262> 315 174<379.858 437.877> 440 55<188.094 337.551>
VStem: 32 75<139.741 349.892> 234 28<-54 -8> 300 64<-151.797 -89.1715> 372 69<318.257 407.458>
LayerCount: 2
Fore
SplineSet
379 469 m 1xe7c0
 385 483 393 489 409 489 c 0
 437 489 439 476 439 448 c 0
 439 386 441 354 441 348 c 0
 441 326 436 315 412 315 c 0xcbc0
 377 315 381 335 372 372 c 0
 362 410 320 440 266 440 c 0
 172 440 107 369 107 241 c 0
 107 123 177 52 268 52 c 0
 298 52 331 60 363 78 c 0
 390 93 407 112 421 112 c 0
 439 112 451 99 451 82 c 0
 451 64 435 51 405 32 c 0
 360 3 316 -12 264 -12 c 0
 132 -12 32 92 32 241 c 0
 32 386 131 495 266 495 c 0
 304 495 340 486 379 469 c 1xe7c0
262 -8 m 1xd3c0
 262 -54 l 1
 275 -52 285 -51 292 -51 c 0
 334 -51 364 -79 364 -121 c 0
 364 -167 331 -193 272 -193 c 0
 219 -193 154 -172 154 -149 c 0
 154 -140 162 -133 174 -133 c 0
 190 -133 221 -154 261 -154 c 0
 287 -154 300 -143 300 -121 c 0
 300 -98 285 -86 257 -86 c 0
 255 -86 246 -86 234 -88 c 1
 234 -8 l 1
 262 -8 l 1xd3c0
EndSplineSet
Validated: 5
EndChar

StartChar: Egrave
Encoding: 200 200 133
Width: 500
VWidth: 833
GlyphClass: 2
Flags: W
HStem: 0 58<28.6699 102 167 383> 238 49<167 273> 424 58<28.5116 102 167 383> 531 21G<271.2 337.524>
VStem: 102 65<58 238 287 424> 273 52<176.277 238 287 347.707> 383 58<58 171.43 317.523 424>
LayerCount: 2
Fore
SplineSet
77 0 m 1
 58 0 l 2
 38 0 28 10 28 29 c 0
 28 55 42 58 77 58 c 2
 102 58 l 1
 102 424 l 1
 77 424 l 2
 42 424 28 427 28 453 c 0
 28 481 45 482 77 482 c 2
 412 482 l 2
 430 482 441 472 441 450 c 2
 441 354 l 2
 441 328 434 317 412 317 c 0
 390 317 383 327 383 352 c 2
 383 366 l 1
 383 424 l 1
 167 424 l 1
 167 287 l 1
 273 287 l 1
 273 299 272 306 272 308 c 0
 272 336 278 348 299 348 c 0
 321 348 325 332 325 299 c 2
 325 223 l 2
 325 191 323 176 299 176 c 0
 277 176 273 191 273 226 c 2
 273 238 l 1
 167 238 l 1
 167 58 l 1
 383 58 l 1
 383 123 l 2
 383 157 385 172 412 172 c 0
 435 172 441 160 441 132 c 2
 441 30 l 2
 441 11 430 0 412 0 c 2
 77 0 l 1
328 531 m 1
 115 606 l 2
 108 608 104 615 104 622 c 0
 104 624 104 629 106 631 c 2
 119 655 l 2
 123 663 130 668 138 668 c 0
 140 668 142 667 144 666 c 2
 338 552 l 1
 328 531 l 1
EndSplineSet
Validated: 1
EndChar

StartChar: Eacute
Encoding: 201 201 134
Width: 500
VWidth: 833
GlyphClass: 2
Flags: W
HStem: 0 58<28.6699 102 167 383> 238 49<167 273> 424 58<28.5116 102 167 383> 531 21G<163.524 230.8>
VStem: 102 65<58 238 287 424> 273 52<176.277 238 287 347.707> 383 58<58 171.43 317.523 424>
LayerCount: 2
Fore
SplineSet
77 0 m 1
 58 0 l 2
 38 0 28 10 28 29 c 0
 28 55 42 58 77 58 c 2
 102 58 l 1
 102 424 l 1
 77 424 l 2
 42 424 28 427 28 453 c 0
 28 481 45 482 77 482 c 2
 412 482 l 2
 430 482 441 472 441 450 c 2
 441 354 l 2
 441 328 434 317 412 317 c 0
 390 317 383 327 383 352 c 2
 383 366 l 1
 383 424 l 1
 167 424 l 1
 167 287 l 1
 273 287 l 1
 273 299 272 306 272 308 c 0
 272 336 278 348 299 348 c 0
 321 348 325 332 325 299 c 2
 325 223 l 2
 325 191 323 176 299 176 c 0
 277 176 273 191 273 226 c 2
 273 238 l 1
 167 238 l 1
 167 58 l 1
 383 58 l 1
 383 123 l 2
 383 157 385 172 412 172 c 0
 435 172 441 160 441 132 c 2
 441 30 l 2
 441 11 430 0 412 0 c 2
 77 0 l 1
163 552 m 1
 357 666 l 2
 359 667 361 668 363 668 c 0
 371 668 378 663 382 655 c 2
 396 631 l 2
 398 629 398 624 398 622 c 0
 398 615 394 608 387 606 c 2
 174 531 l 1
 163 552 l 1
EndSplineSet
Validated: 1
EndChar

StartChar: Ecircumflex
Encoding: 202 202 135
Width: 500
VWidth: 833
GlyphClass: 2
Flags: W
HStem: 0 58<28.6699 102 167 383> 238 49<167 273> 424 58<28.5116 102 167 383>
VStem: 102 65<58 238 287 424> 273 52<176.277 238 287 347.707> 383 58<58 171.43 317.523 424>
LayerCount: 2
Fore
SplineSet
77 0 m 1
 58 0 l 2
 38 0 28 10 28 29 c 0
 28 55 42 58 77 58 c 2
 102 58 l 1
 102 424 l 1
 77 424 l 2
 42 424 28 427 28 453 c 0
 28 481 45 482 77 482 c 2
 412 482 l 2
 430 482 441 472 441 450 c 2
 441 354 l 2
 441 328 434 317 412 317 c 0
 390 317 383 327 383 352 c 2
 383 366 l 1
 383 424 l 1
 167 424 l 1
 167 287 l 1
 273 287 l 1
 273 299 272 306 272 308 c 0
 272 336 278 348 299 348 c 0
 321 348 325 332 325 299 c 2
 325 223 l 2
 325 191 323 176 299 176 c 0
 277 176 273 191 273 226 c 2
 273 238 l 1
 167 238 l 1
 167 58 l 1
 383 58 l 1
 383 123 l 2
 383 157 385 172 412 172 c 0
 435 172 441 160 441 132 c 2
 441 30 l 2
 441 11 430 0 412 0 c 2
 77 0 l 1
251 599 m 1
 133 537 l 2
 131 535 128 535 126 535 c 0
 118 535 111 541 111 550 c 0
 111 554 113 559 116 561 c 2
 228 649 l 2
 235 655 243 658 251 658 c 0
 259 658 266 655 273 649 c 2
 386 561 l 2
 389 559 391 554 391 550 c 0
 391 541 384 535 376 535 c 0
 374 535 370 535 368 537 c 2
 251 599 l 1
EndSplineSet
Validated: 1
EndChar

StartChar: Edieresis
Encoding: 203 203 136
Width: 500
VWidth: 833
GlyphClass: 2
Flags: W
HStem: 0 58<28.6699 102 167 383> 238 49<167 273> 424 58<28.5116 102 167 383> 545 98<106.701 187.932 313.385 394.615>
VStem: 98 98<553.838 634.002> 102 65<58 238 287 424> 273 52<176.277 238 287 347.707> 305 98<553.438 634.281> 383 58<58 171.43 317.523 424>
LayerCount: 2
Fore
SplineSet
77 0 m 1xf680
 58 0 l 2
 38 0 28 10 28 29 c 0
 28 55 42 58 77 58 c 2
 102 58 l 1
 102 424 l 1
 77 424 l 2
 42 424 28 427 28 453 c 0
 28 481 45 482 77 482 c 2
 412 482 l 2
 430 482 441 472 441 450 c 2
 441 354 l 2
 441 328 434 317 412 317 c 0
 390 317 383 327 383 352 c 2
 383 366 l 1
 383 424 l 1
 167 424 l 1
 167 287 l 1
 273 287 l 1
 273 299 272 306 272 308 c 0
 272 336 278 348 299 348 c 0
 321 348 325 332 325 299 c 2
 325 223 l 2
 325 191 323 176 299 176 c 0
 277 176 273 191 273 226 c 2
 273 238 l 1
 167 238 l 1
 167 58 l 1
 383 58 l 1
 383 123 l 2
 383 157 385 172 412 172 c 0
 435 172 441 160 441 132 c 2
 441 30 l 2
 441 11 430 0 412 0 c 2
 77 0 l 1xf680
98 595 m 0xf8
 98 621 121 643 148 643 c 0
 175 643 196 622 196 595 c 0
 196 566 176 545 148 545 c 0
 120 545 98 567 98 595 c 0xf8
305 595 m 0xf1
 305 621 327 643 354 643 c 0
 381 643 403 622 403 595 c 0
 403 566 382 545 354 545 c 0
 326 545 305 567 305 595 c 0xf1
EndSplineSet
Validated: 1
EndChar

StartChar: Igrave
Encoding: 204 204 137
Width: 500
VWidth: 833
GlyphClass: 2
Flags: W
HStem: 0 58<78.5933 218 282 422.488> 424 58<78.5449 218 282 422.33> 531 21G<271.2 337.524>
VStem: 218 64<58 424>
LayerCount: 2
Fore
SplineSet
374 58 m 2
 409 58 423 55 423 29 c 0
 423 1 407 0 374 0 c 2
 128 0 l 1
 108 0 l 2
 88 0 78 10 78 29 c 0
 78 55 93 58 128 58 c 2
 218 58 l 1
 218 424 l 1
 128 424 l 2
 93 424 78 427 78 453 c 0
 78 481 96 482 128 482 c 2
 374 482 l 1
 393 482 l 2
 413 482 423 472 423 453 c 0
 423 427 409 424 374 424 c 2
 282 424 l 1
 282 58 l 1
 374 58 l 2
328 531 m 1
 115 606 l 2
 108 608 104 615 104 622 c 0
 104 624 104 629 106 631 c 2
 119 655 l 2
 123 663 130 668 138 668 c 0
 140 668 142 667 144 666 c 2
 338 552 l 1
 328 531 l 1
EndSplineSet
Validated: 1
EndChar

StartChar: Iacute
Encoding: 205 205 138
Width: 500
VWidth: 833
GlyphClass: 2
Flags: W
HStem: 0 58<78.5933 218 282 422.488> 424 58<78.5449 218 282 422.33> 531 21G<163.524 230.8>
VStem: 218 64<58 424>
LayerCount: 2
Fore
SplineSet
374 58 m 2
 409 58 423 55 423 29 c 0
 423 1 407 0 374 0 c 2
 128 0 l 1
 108 0 l 2
 88 0 78 10 78 29 c 0
 78 55 93 58 128 58 c 2
 218 58 l 1
 218 424 l 1
 128 424 l 2
 93 424 78 427 78 453 c 0
 78 481 96 482 128 482 c 2
 374 482 l 1
 393 482 l 2
 413 482 423 472 423 453 c 0
 423 427 409 424 374 424 c 2
 282 424 l 1
 282 58 l 1
 374 58 l 2
163 552 m 1
 357 666 l 2
 359 667 361 668 363 668 c 0
 371 668 378 663 382 655 c 2
 396 631 l 2
 398 629 398 624 398 622 c 0
 398 615 394 608 387 606 c 2
 174 531 l 1
 163 552 l 1
EndSplineSet
Validated: 1
EndChar

StartChar: Icircumflex
Encoding: 206 206 139
Width: 500
VWidth: 833
GlyphClass: 2
Flags: W
HStem: 0 58<78.5933 218 282 422.488> 424 58<78.5449 218 282 422.33>
VStem: 218 64<58 424>
LayerCount: 2
Fore
SplineSet
374 58 m 2
 409 58 423 55 423 29 c 0
 423 1 407 0 374 0 c 2
 128 0 l 1
 108 0 l 2
 88 0 78 10 78 29 c 0
 78 55 93 58 128 58 c 2
 218 58 l 1
 218 424 l 1
 128 424 l 2
 93 424 78 427 78 453 c 0
 78 481 96 482 128 482 c 2
 374 482 l 1
 393 482 l 2
 413 482 423 472 423 453 c 0
 423 427 409 424 374 424 c 2
 282 424 l 1
 282 58 l 1
 374 58 l 2
251 599 m 1
 133 537 l 2
 131 535 128 535 126 535 c 0
 118 535 111 541 111 550 c 0
 111 554 113 559 116 561 c 2
 228 649 l 2
 235 655 243 658 251 658 c 0
 259 658 266 655 273 649 c 2
 386 561 l 2
 389 559 391 554 391 550 c 0
 391 541 384 535 376 535 c 0
 374 535 370 535 368 537 c 2
 251 599 l 1
EndSplineSet
Validated: 1
EndChar

StartChar: Idieresis
Encoding: 207 207 140
Width: 500
VWidth: 833
GlyphClass: 2
Flags: W
HStem: 0 58<78.5933 218 282 422.488> 424 58<78.5449 218 282 422.33> 545 98<106.701 187.932 313.385 394.615>
VStem: 98 98<553.838 634.002> 218 64<58 424> 305 98<553.438 634.281>
LayerCount: 2
Fore
SplineSet
374 58 m 2
 409 58 423 55 423 29 c 0
 423 1 407 0 374 0 c 2
 128 0 l 1
 108 0 l 2
 88 0 78 10 78 29 c 0
 78 55 93 58 128 58 c 2
 218 58 l 1
 218 424 l 1
 128 424 l 2
 93 424 78 427 78 453 c 0
 78 481 96 482 128 482 c 2
 374 482 l 1
 393 482 l 2
 413 482 423 472 423 453 c 0
 423 427 409 424 374 424 c 2
 282 424 l 1
 282 58 l 1
 374 58 l 2
98 595 m 0
 98 621 121 643 148 643 c 0
 175 643 196 622 196 595 c 0
 196 566 176 545 148 545 c 0
 120 545 98 567 98 595 c 0
305 595 m 0
 305 621 327 643 354 643 c 0
 381 643 403 622 403 595 c 0
 403 566 382 545 354 545 c 0
 326 545 305 567 305 595 c 0
EndSplineSet
Validated: 1
EndChar

StartChar: Eth
Encoding: 208 208 141
Width: 500
VWidth: 833
GlyphClass: 2
Flags: W
HStem: 0 58<41.6155 90 153 320.005> 228 53<18.2686 90 153 291.706> 424 58<41.5742 90 153 318.223>
VStem: 90 63<58 228 281 424> 398 67<135.481 348.365>
LayerCount: 2
Fore
SplineSet
153 58 m 1
 171 56 188 55 204 55 c 0
 337 55 398 113 398 241 c 0
 398 371 338 426 201 426 c 0
 186 426 170 426 153 424 c 1
 153 281 l 1
 254 281 l 2
 281 281 292 277 292 255 c 0
 292 234 281 228 254 228 c 2
 153 228 l 1
 153 58 l 1
153 0 m 2
 89 0 l 1
 71 0 l 2
 51 0 41 10 41 29 c 0
 41 51 51 58 79 58 c 2
 90 58 l 1
 90 228 l 1
 54 228 l 2
 28 228 18 233 18 255 c 0
 18 276 29 281 54 281 c 2
 90 281 l 1
 90 424 l 1
 80 424 l 2
 52 424 41 431 41 453 c 0
 41 481 57 482 89 482 c 2
 153 482 l 1
 243 482 l 2
 376 482 465 391 465 241 c 0
 465 168 441 104 398 59 c 0
 355 14 296 -2 211 -2 c 0
 193 -2 174 0 153 0 c 2
EndSplineSet
Validated: 1
EndChar

StartChar: Ntilde
Encoding: 209 209 142
Width: 500
VWidth: 833
GlyphClass: 2
Flags: W
HStem: -7 21G<381 407> 0 58<34.5723 82 140 231.25> 424 58<14.7282 82 283.703 370 427 472.461> 562 50<221.057 367.197> 586 50<132.881 277.55>
VStem: 82 58<58 390> 370 57<102 424>
LayerCount: 2
Fore
SplineSet
140 58 m 1x66
 161 58 l 1
 190 58 l 2
 218 58 232 50 232 29 c 0
 232 2 216 0 184 0 c 2
 82 0 l 1
 63 0 l 2
 43 0 34 10 34 29 c 0
 34 52 46 58 75 58 c 2
 82 58 l 1x66
 82 424 l 1
 34 424 14 427 14 453 c 0
 14 481 37 482 82 482 c 2
 121 482 l 2
 148 482 153 479 165 457 c 2
 370 102 l 1
 370 424 l 1
 354 424 l 1
 325 424 l 2
 297 424 283 432 283 453 c 0
 283 479 298 482 328 482 c 2
 425 482 l 1
 444 482 l 2
 464 482 473 472 473 453 c 0
 473 431 462 424 432 424 c 2
 427 424 l 1
 427 14 l 2
 427 -6 417 -7 397 -7 c 2
 392 -7 l 2xa6
 370 -7 370 -5 357 17 c 2
 140 390 l 1
 140 58 l 1x66
292 618 m 2
 306 615 318 612 326 612 c 0
 358 612 364 640 382 640 c 0
 392 640 398 634 398 624 c 0
 398 605 363 562 305 562 c 0x36
 290 562 274 564 256 568 c 2
 209 581 l 2
 197 584 186 586 175 586 c 0
 143 586 136 558 118 558 c 0
 108 558 103 564 103 573 c 0
 103 593 139 636 197 636 c 0x2e
 213 636 228 633 245 629 c 2
 292 618 l 2
EndSplineSet
Validated: 1
EndChar

StartChar: Ograve
Encoding: 210 210 143
Width: 500
VWidth: 833
GlyphClass: 2
Flags: W
HStem: -12 57<178.305 324.081> 438 58<175.726 325.636> 531 21G<271.2 337.524>
VStem: 31 73<127.923 356.148> 398 73<127.705 356.148>
LayerCount: 2
Fore
SplineSet
251 45 m 0
 339 45 398 115 398 242 c 0
 398 369 339 438 251 438 c 0
 161 438 104 369 104 242 c 0
 104 115 163 45 251 45 c 0
471 242 m 0
 471 92 379 -12 251 -12 c 0
 125 -12 31 93 31 242 c 0
 31 392 122 496 251 496 c 0
 379 496 471 392 471 242 c 0
328 531 m 1
 115 606 l 2
 108 608 104 615 104 622 c 0
 104 624 104 629 106 631 c 2
 119 655 l 2
 123 663 130 668 138 668 c 0
 140 668 142 667 144 666 c 2
 338 552 l 1
 328 531 l 1
EndSplineSet
Validated: 1
EndChar

StartChar: Oacute
Encoding: 211 211 144
Width: 500
VWidth: 833
GlyphClass: 2
Flags: W
HStem: -12 57<178.305 324.081> 438 58<175.726 325.636> 531 21G<163.524 230.8>
VStem: 31 73<127.923 356.148> 398 73<127.705 356.148>
LayerCount: 2
Fore
SplineSet
251 45 m 0
 339 45 398 115 398 242 c 0
 398 369 339 438 251 438 c 0
 161 438 104 369 104 242 c 0
 104 115 163 45 251 45 c 0
471 242 m 0
 471 92 379 -12 251 -12 c 0
 125 -12 31 93 31 242 c 0
 31 392 122 496 251 496 c 0
 379 496 471 392 471 242 c 0
163 552 m 1
 357 666 l 2
 359 667 361 668 363 668 c 0
 371 668 378 663 382 655 c 2
 396 631 l 2
 398 629 398 624 398 622 c 0
 398 615 394 608 387 606 c 2
 174 531 l 1
 163 552 l 1
EndSplineSet
Validated: 1
EndChar

StartChar: Ocircumflex
Encoding: 212 212 145
Width: 500
VWidth: 833
GlyphClass: 2
Flags: W
HStem: -12 57<178.305 324.081> 438 58<175.726 325.636>
VStem: 31 73<127.923 356.148> 398 73<127.705 356.148>
LayerCount: 2
Fore
SplineSet
251 45 m 0
 339 45 398 115 398 242 c 0
 398 369 339 438 251 438 c 0
 161 438 104 369 104 242 c 0
 104 115 163 45 251 45 c 0
471 242 m 0
 471 92 379 -12 251 -12 c 0
 125 -12 31 93 31 242 c 0
 31 392 122 496 251 496 c 0
 379 496 471 392 471 242 c 0
251 599 m 1
 133 537 l 2
 131 535 128 535 126 535 c 0
 118 535 111 541 111 550 c 0
 111 554 113 559 116 561 c 2
 228 649 l 2
 235 655 243 658 251 658 c 0
 259 658 266 655 273 649 c 2
 386 561 l 2
 389 559 391 554 391 550 c 0
 391 541 384 535 376 535 c 0
 374 535 370 535 368 537 c 2
 251 599 l 1
EndSplineSet
Validated: 1
EndChar

StartChar: Otilde
Encoding: 213 213 146
Width: 500
VWidth: 833
GlyphClass: 2
Flags: W
HStem: -12 57<178.305 324.081> 438 58<175.726 325.636> 562 50<221.057 367.197> 586 50<132.881 277.55>
VStem: 31 73<127.923 356.148> 398 73<127.705 356.148>
LayerCount: 2
Fore
SplineSet
251 45 m 0xcc
 339 45 398 115 398 242 c 0
 398 369 339 438 251 438 c 0
 161 438 104 369 104 242 c 0
 104 115 163 45 251 45 c 0xcc
471 242 m 0
 471 92 379 -12 251 -12 c 0
 125 -12 31 93 31 242 c 0
 31 392 122 496 251 496 c 0
 379 496 471 392 471 242 c 0
292 618 m 2
 306 615 318 612 326 612 c 0
 358 612 364 640 382 640 c 0
 392 640 398 634 398 624 c 0
 398 605 363 562 305 562 c 0xec
 290 562 274 564 256 568 c 2
 209 581 l 2
 197 584 186 586 175 586 c 0
 143 586 136 558 118 558 c 0
 108 558 103 564 103 573 c 0
 103 593 139 636 197 636 c 0xdc
 213 636 228 633 245 629 c 2
 292 618 l 2
EndSplineSet
Validated: 1
EndChar

StartChar: Odieresis
Encoding: 214 214 147
Width: 500
VWidth: 833
GlyphClass: 2
Flags: W
HStem: -12 57<178.305 324.081> 438 58<175.726 325.636> 545 98<106.701 187.932 313.385 394.615>
VStem: 31 73<127.923 356.148> 98 98<553.838 634.002> 305 98<553.438 634.281> 398 73<127.705 356.148>
LayerCount: 2
Fore
SplineSet
251 45 m 0xf2
 339 45 398 115 398 242 c 0
 398 369 339 438 251 438 c 0
 161 438 104 369 104 242 c 0
 104 115 163 45 251 45 c 0xf2
471 242 m 0
 471 92 379 -12 251 -12 c 0
 125 -12 31 93 31 242 c 0
 31 392 122 496 251 496 c 0
 379 496 471 392 471 242 c 0
98 595 m 0xe8
 98 621 121 643 148 643 c 0
 175 643 196 622 196 595 c 0
 196 566 176 545 148 545 c 0
 120 545 98 567 98 595 c 0xe8
305 595 m 0xe4
 305 621 327 643 354 643 c 0
 381 643 403 622 403 595 c 0
 403 566 382 545 354 545 c 0
 326 545 305 567 305 595 c 0xe4
EndSplineSet
Validated: 1
EndChar

StartChar: multiply
Encoding: 215 215 148
Width: 500
VWidth: 833
GlyphClass: 2
Flags: W
HStem: 104 322
VStem: 88 319
LayerCount: 2
Fore
SplineSet
250 307 m 1
 354 411 l 2
 361 418 369 422 377 422 c 0
 394 422 407 409 407 392 c 0
 407 384 403 376 396 369 c 2
 292 265 l 1
 399 157 l 2
 406 150 410 142 410 134 c 0
 410 117 398 104 381 104 c 0
 372 104 364 107 357 114 c 2
 249 222 l 1
 145 118 l 2
 138 111 130 108 122 108 c 0
 105 108 93 119 93 136 c 0
 93 145 96 153 103 160 c 2
 207 264 l 1
 99 372 l 2
 92 379 88 388 88 397 c 0
 88 412 102 426 118 426 c 0
 126 426 135 422 142 415 c 2
 250 307 l 1
EndSplineSet
Validated: 1
EndChar

StartChar: Oslash
Encoding: 216 216 149
Width: 500
VWidth: 833
GlyphClass: 2
Flags: W
HStem: -13 58<178.208 325.636> 437 58<177.475 322.064> 505 20G<397.5 408.5>
VStem: 31 73<127.778 354.926> 398 73<126.852 352.706>
LayerCount: 2
Fore
SplineSet
397 436 m 1
 445 388 471 320 471 241 c 0
 471 91 379 -13 251 -13 c 0
 213 -13 178 -3 145 16 c 1
 114 -34 l 2
 110 -41 103 -45 96 -45 c 0
 81 -45 66 -32 66 -22 c 0
 66 -17 67 -12 69 -8 c 2
 103 48 l 1
 57 95 31 166 31 241 c 0
 31 391 123 495 251 495 c 0
 290 495 322 487 354 468 c 1
 382 514 l 2
 386 521 394 525 401 525 c 0
 416 525 431 513 431 501 c 0
 431 497 430 492 428 488 c 2
 397 436 l 1
362 378 m 1
 176 68 l 1
 200 53 224 45 251 45 c 0
 339 45 398 114 398 241 c 0
 398 293 390 336 362 378 c 1
138 106 m 1
 323 417 l 1
 299 430 276 437 251 437 c 0
 161 437 104 367 104 241 c 0
 104 190 110 148 138 106 c 1
EndSplineSet
Validated: 1
EndChar

StartChar: Ugrave
Encoding: 217 217 150
Width: 500
VWidth: 833
GlyphClass: 2
Flags: W
HStem: -13 58<187.138 325.359> 424 58<26.5273 75 141 208.39 292.66 367 428 473.461> 531 21G<271.2 337.524>
VStem: 75 66<92.4688 424> 367 61<89.1272 424>
LayerCount: 2
Fore
SplineSet
75 424 m 1
 65 424 l 2
 37 424 26 431 26 453 c 0
 26 481 43 482 75 482 c 2
 158 482 l 2
 192 482 209 481 209 453 c 0
 209 429 194 424 158 424 c 2
 141 424 l 1
 141 201 l 2
 141 163 141 130 159 98 c 0
 178 65 214 45 255 45 c 0
 337 45 367 94 367 193 c 2
 367 424 l 1
 345 424 l 2
 307 424 292 429 292 453 c 0
 292 479 306 482 336 482 c 2
 426 482 l 1
 445 482 l 2
 465 482 474 472 474 453 c 0
 474 431 463 424 433 424 c 2
 428 424 l 1
 428 184 l 2
 428 52 369 -13 251 -13 c 0
 146 -13 75 55 75 169 c 2
 75 424 l 1
328 531 m 1
 115 606 l 2
 108 608 104 615 104 622 c 0
 104 624 104 629 106 631 c 2
 119 655 l 2
 123 663 130 668 138 668 c 0
 140 668 142 667 144 666 c 2
 338 552 l 1
 328 531 l 1
EndSplineSet
Validated: 1
EndChar

StartChar: Uacute
Encoding: 218 218 151
Width: 500
VWidth: 833
GlyphClass: 2
Flags: W
HStem: -13 58<187.138 325.359> 424 58<26.5273 75 141 208.39 292.66 367 428 473.461> 531 21G<163.524 230.8>
VStem: 75 66<92.4688 424> 367 61<89.1272 424>
LayerCount: 2
Fore
SplineSet
75 424 m 1
 65 424 l 2
 37 424 26 431 26 453 c 0
 26 481 43 482 75 482 c 2
 158 482 l 2
 192 482 209 481 209 453 c 0
 209 429 194 424 158 424 c 2
 141 424 l 1
 141 201 l 2
 141 163 141 130 159 98 c 0
 178 65 214 45 255 45 c 0
 337 45 367 94 367 193 c 2
 367 424 l 1
 345 424 l 2
 307 424 292 429 292 453 c 0
 292 479 306 482 336 482 c 2
 426 482 l 1
 445 482 l 2
 465 482 474 472 474 453 c 0
 474 431 463 424 433 424 c 2
 428 424 l 1
 428 184 l 2
 428 52 369 -13 251 -13 c 0
 146 -13 75 55 75 169 c 2
 75 424 l 1
163 552 m 1
 357 666 l 2
 359 667 361 668 363 668 c 0
 371 668 378 663 382 655 c 2
 396 631 l 2
 398 629 398 624 398 622 c 0
 398 615 394 608 387 606 c 2
 174 531 l 1
 163 552 l 1
EndSplineSet
Validated: 1
EndChar

StartChar: Ucircumflex
Encoding: 219 219 152
Width: 500
VWidth: 833
GlyphClass: 2
Flags: W
HStem: -13 58<187.138 325.359> 424 58<26.5273 75 141 208.39 292.66 367 428 473.461>
VStem: 75 66<92.4688 424> 367 61<89.1272 424>
LayerCount: 2
Fore
SplineSet
75 424 m 1
 65 424 l 2
 37 424 26 431 26 453 c 0
 26 481 43 482 75 482 c 2
 158 482 l 2
 192 482 209 481 209 453 c 0
 209 429 194 424 158 424 c 2
 141 424 l 1
 141 201 l 2
 141 163 141 130 159 98 c 0
 178 65 214 45 255 45 c 0
 337 45 367 94 367 193 c 2
 367 424 l 1
 345 424 l 2
 307 424 292 429 292 453 c 0
 292 479 306 482 336 482 c 2
 426 482 l 1
 445 482 l 2
 465 482 474 472 474 453 c 0
 474 431 463 424 433 424 c 2
 428 424 l 1
 428 184 l 2
 428 52 369 -13 251 -13 c 0
 146 -13 75 55 75 169 c 2
 75 424 l 1
251 599 m 1
 133 537 l 2
 131 535 128 535 126 535 c 0
 118 535 111 541 111 550 c 0
 111 554 113 559 116 561 c 2
 228 649 l 2
 235 655 243 658 251 658 c 0
 259 658 266 655 273 649 c 2
 386 561 l 2
 389 559 391 554 391 550 c 0
 391 541 384 535 376 535 c 0
 374 535 370 535 368 537 c 2
 251 599 l 1
EndSplineSet
Validated: 1
EndChar

StartChar: Udieresis
Encoding: 220 220 153
Width: 500
VWidth: 833
GlyphClass: 2
Flags: W
HStem: -13 58<187.138 325.359> 424 58<26.5273 75 141 208.39 292.66 367 428 473.461> 545 98<106.701 187.932 313.385 394.615>
VStem: 75 66<92.4688 424> 98 98<553.838 634.002> 305 98<553.438 634.281> 367 61<89.1272 424>
LayerCount: 2
Fore
SplineSet
75 424 m 1xf2
 65 424 l 2
 37 424 26 431 26 453 c 0
 26 481 43 482 75 482 c 2
 158 482 l 2
 192 482 209 481 209 453 c 0
 209 429 194 424 158 424 c 2
 141 424 l 1
 141 201 l 2
 141 163 141 130 159 98 c 0
 178 65 214 45 255 45 c 0
 337 45 367 94 367 193 c 2
 367 424 l 1
 345 424 l 2
 307 424 292 429 292 453 c 0
 292 479 306 482 336 482 c 2
 426 482 l 1
 445 482 l 2
 465 482 474 472 474 453 c 0
 474 431 463 424 433 424 c 2
 428 424 l 1
 428 184 l 2
 428 52 369 -13 251 -13 c 0
 146 -13 75 55 75 169 c 2
 75 424 l 1xf2
98 595 m 0xe8
 98 621 121 643 148 643 c 0
 175 643 196 622 196 595 c 0
 196 566 176 545 148 545 c 0
 120 545 98 567 98 595 c 0xe8
305 595 m 0xe4
 305 621 327 643 354 643 c 0
 381 643 403 622 403 595 c 0
 403 566 382 545 354 545 c 0
 326 545 305 567 305 595 c 0xe4
EndSplineSet
Validated: 1
EndChar

StartChar: Yacute
Encoding: 221 221 154
Width: 500
VWidth: 833
GlyphClass: 2
Flags: W
HStem: 0 58<108.481 217 281 388.488> 424 58<32.5742 81 155 214.293 299.529 356 419 467.426> 531 21G<163.524 230.8>
VStem: 217 64<58 187>
LayerCount: 2
Fore
SplineSet
340 58 m 2
 375 58 389 55 389 29 c 0
 389 4 377 0 345 0 c 2
 152 0 l 2
 121 0 108 4 108 29 c 0
 108 54 121 58 158 58 c 2
 217 58 l 1
 217 192 l 1
 81 424 l 1
 74 424 l 2
 44 424 32 430 32 453 c 0
 32 481 49 482 81 482 c 2
 174 482 l 2
 202 482 215 478 215 453 c 0
 215 430 200 424 168 424 c 2
 155 424 l 1
 253 248 l 1
 356 424 l 1
 350 424 344 423 339 423 c 0
 310 423 299 431 299 453 c 0
 299 481 312 482 344 482 c 2
 355 482 l 1
 419 482 l 2
 453 482 468 480 468 453 c 0
 468 430 456 424 426 424 c 2
 419 424 l 1
 281 187 l 1
 281 58 l 1
 340 58 l 2
163 552 m 1
 357 666 l 2
 359 667 361 668 363 668 c 0
 371 668 378 663 382 655 c 2
 396 631 l 2
 398 629 398 624 398 622 c 0
 398 615 394 608 387 606 c 2
 174 531 l 1
 163 552 l 1
EndSplineSet
Validated: 1
EndChar

StartChar: Thorn
Encoding: 222 222 155
Width: 500
VWidth: 833
GlyphClass: 2
Flags: W
HStem: 0 58<47.5877 128 192 314.336> 103 54<192 331.859> 321 58<192 331.859> 424 58<47.5877 128 192 296.283>
VStem: 128 64<58 103 157 321 379 424> 357 74<181.429 296.947>
LayerCount: 2
Fore
SplineSet
278 58 m 2
 304 58 315 49 315 29 c 0
 315 5 302 0 274 0 c 2
 75 0 l 2
 57 0 47 10 47 29 c 0
 47 48 56 58 76 58 c 2
 128 58 l 1
 128 424 l 1
 100 424 l 2
 62 424 47 425 47 453 c 0
 47 472 57 482 75 482 c 2
 259 482 l 2
 285 482 297 473 297 453 c 0
 297 429 283 424 255 424 c 2
 192 424 l 1
 192 379 l 1
 255 379 l 2
 372 379 431 331 431 241 c 0
 431 151 372 103 255 103 c 2
 192 103 l 1
 192 58 l 1
 278 58 l 2
192 321 m 1
 192 157 l 1
 255 157 l 2
 323 157 357 184 357 239 c 0
 357 294 323 321 255 321 c 2
 192 321 l 1
EndSplineSet
Validated: 1
EndChar

StartChar: germandbls
Encoding: 223 223 156
Width: 500
VWidth: 833
GlyphClass: 2
Flags: W
HStem: -9 56<229.217 355.099> 0 58<18.6486 100> 479 53<186.362 322.425>
VStem: 100 62<58 453.663> 348 64<353.712 453.745> 390 68<79.4282 240.559>
LayerCount: 2
Fore
SplineSet
100 58 m 1x78
 100 366 l 2
 100 419 100 457 123 484 c 0
 148 513 198 532 262 532 c 0
 356 532 412 485 412 411 c 0x78
 412 363 385 331 331 315 c 1
 409 308 458 251 458 159 c 0
 458 51 400 -9 299 -9 c 0
 248 -9 228 -5 228 23 c 0
 228 38 238 49 253 49 c 0
 265 49 278 47 294 47 c 0
 356 47 390 85 390 162 c 0xb4
 390 230 353 274 309 279 c 0
 266 284 232 277 232 307 c 0
 232 332 255 333 282 336 c 0
 324 341 348 366 348 403 c 0
 348 447 313 479 255 479 c 0
 172 479 162 434 162 350 c 2
 162 30 l 2
 162 11 154 0 138 0 c 2
 74 0 l 2
 36 0 18 2 18 29 c 0
 18 48 28 58 50 58 c 2
 100 58 l 1x78
EndSplineSet
Validated: 1
EndChar

StartChar: agrave
Encoding: 224 224 157
Width: 500
VWidth: 833
GlyphClass: 2
Flags: W
HStem: -10 62<140.412 283.125> 0 58<403 471.332> 194 53<155.192 339.571> 328 58<168.175 315.899>
VStem: 56 65<71.337 162.312> 341 62<96.6141 185.984 234 302.414> 348 124<0.949219 51.6675>
LayerCount: 2
Fore
SplineSet
343 52 m 1xba
 299 12 247 -10 191 -10 c 0xba
 109 -10 56 40 56 112 c 0
 56 196 123 247 244 247 c 0
 276 247 308 242 341 234 c 1
 341 237 l 2
 341 299 311 328 249 328 c 0
 191 328 159 294 127 294 c 0
 112 294 99 307 99 328 c 0
 99 356 159 386 251 386 c 0
 355 386 403 340 403 242 c 2
 403 58 l 1x7c
 424 58 l 2
 458 58 472 53 472 29 c 0
 472 10 462 0 440 0 c 2
 376 0 l 2x7a
 361 0 351 9 348 27 c 2
 343 52 l 1xba
341 180 m 1xbc
 313 189 285 194 255 194 c 0
 168 194 121 162 121 116 c 0
 121 80 153 52 201 52 c 0
 274 52 341 99 341 136 c 2
 341 180 l 1xbc
318 421 m 1
 105 496 l 2
 98 498 94 505 94 512 c 0
 94 514 94 519 96 521 c 2
 109 545 l 2
 113 553 120 558 128 558 c 0
 130 558 132 557 134 556 c 2
 328 442 l 1
 318 421 l 1
EndSplineSet
Validated: 1
EndChar

StartChar: aacute
Encoding: 225 225 158
Width: 500
VWidth: 833
GlyphClass: 2
Flags: W
HStem: -10 62<140.412 283.125> 0 58<403 471.332> 194 53<155.192 339.571> 328 58<168.175 315.899>
VStem: 56 65<71.337 162.312> 341 62<96.6141 185.984 234 302.414> 348 124<0.949219 51.6675>
LayerCount: 2
Fore
SplineSet
343 52 m 1xba
 299 12 247 -10 191 -10 c 0xba
 109 -10 56 40 56 112 c 0
 56 196 123 247 244 247 c 0
 276 247 308 242 341 234 c 1
 341 237 l 2
 341 299 311 328 249 328 c 0
 191 328 159 294 127 294 c 0
 112 294 99 307 99 328 c 0
 99 356 159 386 251 386 c 0
 355 386 403 340 403 242 c 2
 403 58 l 1x7c
 424 58 l 2
 458 58 472 53 472 29 c 0
 472 10 462 0 440 0 c 2
 376 0 l 2x7a
 361 0 351 9 348 27 c 2
 343 52 l 1xba
341 180 m 1xbc
 313 189 285 194 255 194 c 0
 168 194 121 162 121 116 c 0
 121 80 153 52 201 52 c 0
 274 52 341 99 341 136 c 2
 341 180 l 1xbc
153 442 m 1
 347 556 l 2
 349 557 351 558 353 558 c 0
 361 558 368 553 372 545 c 2
 386 521 l 2
 388 519 388 514 388 512 c 0
 388 505 384 498 377 496 c 2
 164 421 l 1
 153 442 l 1
EndSplineSet
Validated: 1
EndChar

StartChar: acircumflex
Encoding: 226 226 159
Width: 500
VWidth: 833
GlyphClass: 2
Flags: W
HStem: -10 62<140.412 283.125> 0 58<403 471.332> 194 53<155.192 339.571> 328 58<168.175 315.899>
VStem: 56 65<71.337 162.312> 341 62<96.6141 185.984 234 302.414> 348 124<0.949219 51.6675>
LayerCount: 2
Fore
SplineSet
343 52 m 1xba
 299 12 247 -10 191 -10 c 0xba
 109 -10 56 40 56 112 c 0
 56 196 123 247 244 247 c 0
 276 247 308 242 341 234 c 1
 341 237 l 2
 341 299 311 328 249 328 c 0
 191 328 159 294 127 294 c 0
 112 294 99 307 99 328 c 0
 99 356 159 386 251 386 c 0
 355 386 403 340 403 242 c 2
 403 58 l 1x7c
 424 58 l 2
 458 58 472 53 472 29 c 0
 472 10 462 0 440 0 c 2
 376 0 l 2x7a
 361 0 351 9 348 27 c 2
 343 52 l 1xba
341 180 m 1xbc
 313 189 285 194 255 194 c 0
 168 194 121 162 121 116 c 0
 121 80 153 52 201 52 c 0
 274 52 341 99 341 136 c 2
 341 180 l 1xbc
241 489 m 1
 123 427 l 2
 121 425 118 425 116 425 c 0
 108 425 101 431 101 440 c 0
 101 444 103 449 106 451 c 2
 218 539 l 2
 225 545 233 548 241 548 c 0
 249 548 256 545 263 539 c 2
 376 451 l 2
 379 449 381 444 381 440 c 0
 381 431 374 425 366 425 c 0
 364 425 360 425 358 427 c 2
 241 489 l 1
EndSplineSet
Validated: 1
EndChar

StartChar: atilde
Encoding: 227 227 160
Width: 500
VWidth: 833
GlyphClass: 2
Flags: W
HStem: -10 62<140.412 283.125> 0 58<403 471.332> 194 53<155.192 339.571> 328 58<168.175 315.899> 452 50<211.057 357.197> 476 50<122.881 267.55>
VStem: 56 65<71.337 162.312> 341 62<96.6141 185.984 234 302.414> 348 124<0.949219 51.6675>
LayerCount: 2
Fore
SplineSet
343 52 m 1xb280
 299 12 247 -10 191 -10 c 0xb280
 109 -10 56 40 56 112 c 0
 56 196 123 247 244 247 c 0
 276 247 308 242 341 234 c 1
 341 237 l 2
 341 299 311 328 249 328 c 0
 191 328 159 294 127 294 c 0
 112 294 99 307 99 328 c 0
 99 356 159 386 251 386 c 0
 355 386 403 340 403 242 c 2
 403 58 l 1x73
 424 58 l 2
 458 58 472 53 472 29 c 0
 472 10 462 0 440 0 c 2
 376 0 l 2x7280
 361 0 351 9 348 27 c 2
 343 52 l 1xb280
341 180 m 1xb3
 313 189 285 194 255 194 c 0
 168 194 121 162 121 116 c 0
 121 80 153 52 201 52 c 0
 274 52 341 99 341 136 c 2
 341 180 l 1xb3
282 508 m 2
 296 505 308 502 316 502 c 0
 348 502 354 530 372 530 c 0
 382 530 388 524 388 514 c 0
 388 495 353 452 295 452 c 0x3a
 280 452 264 454 246 458 c 2
 199 471 l 2
 187 474 176 476 165 476 c 0
 133 476 126 448 108 448 c 0
 98 448 93 454 93 463 c 0
 93 483 129 526 187 526 c 0x36
 203 526 218 523 235 519 c 2
 282 508 l 2
EndSplineSet
Validated: 1
EndChar

StartChar: adieresis
Encoding: 228 228 161
Width: 500
VWidth: 833
GlyphClass: 2
Flags: W
HStem: -10 62<140.412 283.125> 0 58<403 471.332> 194 53<155.192 339.571> 328 58<168.175 315.899> 435 98<96.7012 177.932 303.385 384.615>
VStem: 56 65<71.337 162.312> 88 98<443.838 524.002> 295 98<443.438 524.281> 341 62<96.6141 185.984 234 302.414> 348 124<0.949219 51.6675>
LayerCount: 2
Fore
SplineSet
343 52 m 1xb840
 299 12 247 -10 191 -10 c 0xb840
 109 -10 56 40 56 112 c 0
 56 196 123 247 244 247 c 0
 276 247 308 242 341 234 c 1
 341 237 l 2
 341 299 311 328 249 328 c 0
 191 328 159 294 127 294 c 0
 112 294 99 307 99 328 c 0
 99 356 159 386 251 386 c 0
 355 386 403 340 403 242 c 2
 403 58 l 1x7c80
 424 58 l 2
 458 58 472 53 472 29 c 0
 472 10 462 0 440 0 c 2
 376 0 l 2x7840
 361 0 351 9 348 27 c 2
 343 52 l 1xb840
341 180 m 1xbc80
 313 189 285 194 255 194 c 0
 168 194 121 162 121 116 c 0
 121 80 153 52 201 52 c 0
 274 52 341 99 341 136 c 2
 341 180 l 1xbc80
88 485 m 0x3a
 88 511 111 533 138 533 c 0
 165 533 186 512 186 485 c 0
 186 456 166 435 138 435 c 0
 110 435 88 457 88 485 c 0x3a
295 485 m 0x39
 295 511 317 533 344 533 c 0
 371 533 393 512 393 485 c 0
 393 456 372 435 344 435 c 0
 316 435 295 457 295 485 c 0x39
EndSplineSet
Validated: 1
EndChar

StartChar: aring
Encoding: 229 229 162
Width: 500
VWidth: 833
GlyphClass: 2
Flags: W
HStem: -10 62<140.412 283.125> 0 58<403 471.332> 194 53<155.192 339.571> 328 58<168.175 315.899> 412 49<201.438 288.096> 571 47<201.835 288.096>
VStem: 56 65<71.337 162.312> 142 48<472.351 559.113> 299 49<472.351 559.475> 341 62<96.6141 185.984 234 302.414> 348 124<0.949219 51.6675>
LayerCount: 2
Fore
SplineSet
190 516 m 0x3f80
 190 485 214 461 245 461 c 0
 275 461 299 485 299 516 c 0
 299 547 275 571 245 571 c 0
 214 571 190 546 190 516 c 0x3f80
142 516 m 0
 142 573 187 618 245 618 c 0
 303 618 348 574 348 516 c 0
 348 458 303 412 245 412 c 0
 187 412 142 458 142 516 c 0
341 180 m 1xbf40
 313 189 285 194 255 194 c 0
 168 194 121 162 121 116 c 0
 121 80 153 52 201 52 c 0
 274 52 341 99 341 136 c 2
 341 180 l 1xbf40
343 52 m 1
 299 12 247 -10 191 -10 c 0xbf20
 109 -10 56 40 56 112 c 0
 56 196 123 247 244 247 c 0
 276 247 308 242 341 234 c 1
 341 237 l 2
 341 299 311 328 249 328 c 0
 191 328 159 294 127 294 c 0
 112 294 99 307 99 328 c 0
 99 356 159 386 251 386 c 0
 355 386 403 340 403 242 c 2
 403 58 l 1x7f40
 424 58 l 2
 458 58 472 53 472 29 c 0
 472 10 462 0 440 0 c 2
 376 0 l 2
 361 0 351 9 348 27 c 2x7f20
 343 52 l 1
EndSplineSet
Validated: 1
EndChar

StartChar: ae
Encoding: 230 230 163
Width: 500
VWidth: 833
GlyphClass: 2
Flags: W
HStem: -10 58<83.3098 192.777 300.374 409.66> 170 49<93.3384 222 278 417> 335 53<104.957 208.931 306.298 392.93>
VStem: 16 57<57.7561 149.774> 222 56<76.1874 170 219 305.729> 417 63<219 309.834>
LayerCount: 2
Fore
SplineSet
222 170 m 1
 214 170 206 171 198 171 c 0
 114 171 73 153 73 104 c 0
 73 68 94 48 132 48 c 0
 179 48 222 83 222 121 c 2
 222 170 l 1
278 219 m 1
 417 219 l 1
 417 226 l 2
 417 295 393 331 352 331 c 0
 308 331 278 295 278 229 c 2
 278 219 l 1
442 170 m 2
 278 170 l 1
 277 162 277 154 277 146 c 0
 277 82 304 48 352 48 c 0
 408 48 432 101 458 101 c 0
 471 101 482 90 482 75 c 0
 482 43 422 -10 349 -10 c 0
 305 -10 277 9 247 51 c 1
 203 11 167 -10 123 -10 c 0
 59 -10 16 36 16 99 c 0
 16 183 71 219 179 219 c 2
 223 219 l 1
 224 229 225 239 225 247 c 0
 225 306 204 335 163 335 c 0
 115 335 94 296 67 296 c 0
 56 296 46 306 46 319 c 0
 46 346 98 388 166 388 c 0
 205 388 233 372 256 339 c 1
 284 371 314 388 352 388 c 0
 430 388 480 324 480 212 c 0
 480 174 473 170 442 170 c 2
EndSplineSet
Validated: 1
EndChar

StartChar: ccedilla
Encoding: 231 231 164
Width: 500
VWidth: 833
GlyphClass: 2
Flags: W
HStem: -193 39<178.213 291.791> -86 32<257 289.092> -10 2<228 257> 223 156<373.469 431.969> 322 64<172.078 325.185>
VStem: 40 71<109.435 261.842> 228 29<-54 -8> 294 64<-151.797 -89.1715> 373 61<352 378.096>
LayerCount: 2
Fore
SplineSet
434 253 m 2xf780
 434 233 423 223 403 223 c 0xf780
 385 223 377 234 365 256 c 0
 340 300 301 322 253 322 c 0
 169 322 111 266 111 188 c 0
 111 107 165 51 250 51 c 0
 282 51 316 62 345 81 c 0
 370 98 386 118 408 118 c 0
 425 118 436 106 436 89 c 0
 436 51 344 -10 246 -10 c 0
 128 -10 40 76 40 188 c 0
 40 300 128 386 245 386 c 0xef80
 287 386 328 374 373 352 c 1
 373 353 l 2
 373 371 384 379 405 379 c 0
 430 379 434 364 434 329 c 2
 434 253 l 2xf780
257 -8 m 1
 257 -54 l 1
 270 -52 280 -51 287 -51 c 0
 329 -51 358 -79 358 -121 c 0
 358 -167 325 -193 266 -193 c 0
 213 -193 148 -172 148 -149 c 0
 148 -140 156 -133 168 -133 c 0
 184 -133 215 -154 255 -154 c 0
 281 -154 294 -143 294 -121 c 0
 294 -98 279 -86 251 -86 c 0
 249 -86 240 -86 228 -88 c 1
 228 -8 l 1
 257 -8 l 1
EndSplineSet
Validated: 5
EndChar

StartChar: egrave
Encoding: 232 232 165
Width: 500
VWidth: 833
GlyphClass: 2
Flags: W
HStem: -10 58<166.733 347.275> 170 53<115 380> 331 56<173.388 328.544>
LayerCount: 2
Fore
SplineSet
115 223 m 1
 380 223 l 1
 372 288 321 331 255 331 c 0
 183 331 131 291 115 223 c 1
113 170 m 1
 117 92 168 48 252 48 c 0
 334 48 387 98 424 98 c 0
 440 98 452 87 452 72 c 0
 452 55 441 43 417 31 c 0
 361 3 302 -10 247 -10 c 0
 121 -10 42 67 42 189 c 0
 42 306 129 387 255 387 c 0
 378 387 454 299 454 208 c 0
 454 170 437 170 387 170 c 2
 113 170 l 1
328 421 m 1
 115 496 l 2
 108 498 104 505 104 512 c 0
 104 514 104 519 106 521 c 2
 119 545 l 2
 123 553 130 558 138 558 c 0
 140 558 142 557 144 556 c 2
 338 442 l 1
 328 421 l 1
EndSplineSet
Validated: 1
EndChar

StartChar: eacute
Encoding: 233 233 166
Width: 500
VWidth: 833
GlyphClass: 2
Flags: W
HStem: -10 58<166.733 347.275> 170 53<115 380> 331 56<173.388 328.544>
LayerCount: 2
Fore
SplineSet
115 223 m 1
 380 223 l 1
 372 288 321 331 255 331 c 0
 183 331 131 291 115 223 c 1
113 170 m 1
 117 92 168 48 252 48 c 0
 334 48 387 98 424 98 c 0
 440 98 452 87 452 72 c 0
 452 55 441 43 417 31 c 0
 361 3 302 -10 247 -10 c 0
 121 -10 42 67 42 189 c 0
 42 306 129 387 255 387 c 0
 378 387 454 299 454 208 c 0
 454 170 437 170 387 170 c 2
 113 170 l 1
163 442 m 1
 357 556 l 2
 359 557 361 558 363 558 c 0
 371 558 378 553 382 545 c 2
 396 521 l 2
 398 519 398 514 398 512 c 0
 398 505 394 498 387 496 c 2
 174 421 l 1
 163 442 l 1
EndSplineSet
Validated: 1
EndChar

StartChar: ecircumflex
Encoding: 234 234 167
Width: 500
VWidth: 833
GlyphClass: 2
Flags: W
HStem: -10 58<166.733 347.275> 170 53<115 380> 331 56<173.388 328.544>
LayerCount: 2
Fore
SplineSet
115 223 m 1
 380 223 l 1
 372 288 321 331 255 331 c 0
 183 331 131 291 115 223 c 1
113 170 m 1
 117 92 168 48 252 48 c 0
 334 48 387 98 424 98 c 0
 440 98 452 87 452 72 c 0
 452 55 441 43 417 31 c 0
 361 3 302 -10 247 -10 c 0
 121 -10 42 67 42 189 c 0
 42 306 129 387 255 387 c 0
 378 387 454 299 454 208 c 0
 454 170 437 170 387 170 c 2
 113 170 l 1
251 489 m 1
 133 427 l 2
 131 425 128 425 126 425 c 0
 118 425 111 431 111 440 c 0
 111 444 113 449 116 451 c 2
 228 539 l 2
 235 545 243 548 251 548 c 0
 259 548 266 545 273 539 c 2
 386 451 l 2
 389 449 391 444 391 440 c 0
 391 431 384 425 376 425 c 0
 374 425 370 425 368 427 c 2
 251 489 l 1
EndSplineSet
Validated: 1
EndChar

StartChar: edieresis
Encoding: 235 235 168
Width: 500
VWidth: 833
GlyphClass: 2
Flags: W
HStem: -10 58<166.733 347.275> 170 53<115 380> 331 56<173.388 328.544> 435 98<106.701 187.932 313.385 394.615>
VStem: 98 98<443.838 524.002> 305 98<443.438 524.281>
LayerCount: 2
Fore
SplineSet
115 223 m 1
 380 223 l 1
 372 288 321 331 255 331 c 0
 183 331 131 291 115 223 c 1
113 170 m 1
 117 92 168 48 252 48 c 0
 334 48 387 98 424 98 c 0
 440 98 452 87 452 72 c 0
 452 55 441 43 417 31 c 0
 361 3 302 -10 247 -10 c 0
 121 -10 42 67 42 189 c 0
 42 306 129 387 255 387 c 0
 378 387 454 299 454 208 c 0
 454 170 437 170 387 170 c 2
 113 170 l 1
98 485 m 0
 98 511 121 533 148 533 c 0
 175 533 196 512 196 485 c 0
 196 456 176 435 148 435 c 0
 120 435 98 457 98 485 c 0
305 485 m 0
 305 511 327 533 354 533 c 0
 381 533 403 512 403 485 c 0
 403 456 382 435 354 435 c 0
 326 435 305 457 305 485 c 0
EndSplineSet
Validated: 1
EndChar

StartChar: igrave
Encoding: 236 236 169
Width: 500
VWidth: 833
GlyphClass: 2
Flags: W
HStem: 0 58<68.7064 227 288 449.404> 318 58<113.975 227>
VStem: 227 61<58 318>
LayerCount: 2
Fore
SplineSet
288 58 m 1
 419 58 l 2
 440 58 450 49 450 29 c 0
 450 6 441 0 417 0 c 2
 101 0 l 2
 79 0 68 10 68 29 c 0
 68 48 80 58 102 58 c 2
 227 58 l 1
 227 318 l 1
 148 318 l 2
 126 318 113 329 113 348 c 0
 113 367 124 376 146 376 c 2
 265 376 l 2
 281 376 288 369 288 359 c 2
 288 58 l 1
306 421 m 1
 93 496 l 2
 86 498 82 505 82 512 c 0
 82 514 82 519 84 521 c 2
 98 545 l 2
 102 553 109 558 117 558 c 0
 119 558 120 557 122 556 c 2
 317 442 l 1
 306 421 l 1
EndSplineSet
Validated: 1
EndChar

StartChar: iacute
Encoding: 237 237 170
Width: 500
VWidth: 833
GlyphClass: 2
Flags: W
HStem: 0 58<68.7064 227 288 449.404> 318 58<113.975 227>
VStem: 227 61<58 318>
LayerCount: 2
Fore
SplineSet
288 58 m 1
 419 58 l 2
 440 58 450 49 450 29 c 0
 450 6 441 0 417 0 c 2
 101 0 l 2
 79 0 68 10 68 29 c 0
 68 48 80 58 102 58 c 2
 227 58 l 1
 227 318 l 1
 148 318 l 2
 126 318 113 329 113 348 c 0
 113 367 124 376 146 376 c 2
 265 376 l 2
 281 376 288 369 288 359 c 2
 288 58 l 1
142 442 m 1
 335 556 l 2
 337 557 340 558 342 558 c 0
 350 558 357 553 361 545 c 2
 374 521 l 2
 376 519 376 514 376 512 c 0
 376 505 372 498 365 496 c 2
 152 421 l 1
 142 442 l 1
EndSplineSet
Validated: 1
EndChar

StartChar: icircumflex
Encoding: 238 238 171
Width: 500
VWidth: 833
GlyphClass: 2
Flags: W
HStem: 0 58<68.7064 227 288 449.404> 318 58<113.975 227>
VStem: 227 61<58 318>
LayerCount: 2
Fore
SplineSet
288 58 m 1
 419 58 l 2
 440 58 450 49 450 29 c 0
 450 6 441 0 417 0 c 2
 101 0 l 2
 79 0 68 10 68 29 c 0
 68 48 80 58 102 58 c 2
 227 58 l 1
 227 318 l 1
 148 318 l 2
 126 318 113 329 113 348 c 0
 113 367 124 376 146 376 c 2
 265 376 l 2
 281 376 288 369 288 359 c 2
 288 58 l 1
229 489 m 1
 112 427 l 2
 110 425 106 425 104 425 c 0
 96 425 89 431 89 440 c 0
 89 444 91 449 94 451 c 2
 207 539 l 2
 214 545 221 548 229 548 c 0
 237 548 245 545 252 539 c 2
 364 451 l 2
 367 449 369 444 369 440 c 0
 369 431 362 425 354 425 c 0
 352 425 349 425 347 427 c 2
 229 489 l 1
EndSplineSet
Validated: 1
EndChar

StartChar: idieresis
Encoding: 239 239 172
Width: 500
VWidth: 833
GlyphClass: 2
Flags: W
HStem: 0 58<68.7064 227 288 449.404> 318 58<113.975 227> 435 98<84.7012 165.932 291.385 373.299>
VStem: 76 98<443.838 524.002> 227 61<58 318> 283 99<443.438 524.281>
LayerCount: 2
Fore
SplineSet
288 58 m 1xf8
 419 58 l 2
 440 58 450 49 450 29 c 0
 450 6 441 0 417 0 c 2
 101 0 l 2
 79 0 68 10 68 29 c 0
 68 48 80 58 102 58 c 2
 227 58 l 1
 227 318 l 1
 148 318 l 2
 126 318 113 329 113 348 c 0
 113 367 124 376 146 376 c 2
 265 376 l 2
 281 376 288 369 288 359 c 2
 288 58 l 1xf8
76 485 m 0
 76 511 99 533 126 533 c 0
 153 533 174 512 174 485 c 0
 174 456 154 435 126 435 c 0
 98 435 76 457 76 485 c 0
283 485 m 0xf4
 283 511 305 533 332 533 c 0
 359 533 382 512 382 485 c 0
 382 456 360 435 332 435 c 0
 304 435 283 457 283 485 c 0xf4
EndSplineSet
Validated: 1
EndChar

StartChar: eth
Encoding: 240 240 173
Width: 500
VWidth: 833
GlyphClass: 2
Flags: W
HStem: -10 57<172.657 329.596> 325 55<172.658 308.297> 513 20G<162 177.5>
VStem: 38 70<111.972 261.67> 393 71<111.018 260.803>
LayerCount: 2
Fore
SplineSet
251 47 m 0
 335 47 393 108 393 186 c 0
 393 264 335 325 251 325 c 0
 167 325 108 264 108 186 c 0
 108 108 167 47 251 47 c 0
309 369 m 1
 288 395 266 419 242 440 c 1
 167 406 l 2
 158 402 150 398 142 398 c 0
 133 398 126 408 126 418 c 0
 126 429 134 434 150 442 c 2
 208 468 l 1
 162 501 137 506 137 516 c 0
 137 524 153 533 171 533 c 0
 184 533 214 520 262 492 c 1
 329 522 l 2
 339 526 345 529 353 529 c 0
 362 529 370 520 370 510 c 0
 370 499 362 493 346 486 c 2
 300 467 l 1
 408 383 464 287 464 195 c 0
 464 73 381 -10 251 -10 c 0
 123 -10 38 76 38 186 c 0
 38 294 123 380 241 380 c 0
 264 380 287 376 309 369 c 1
EndSplineSet
Validated: 1
EndChar

StartChar: ntilde
Encoding: 241 241 174
Width: 500
VWidth: 833
GlyphClass: 2
Flags: W
HStem: 0 58<43.7091 99 160 216.473 295.572 349 412 468.342> 318 58<43.8477 99> 324 63<204.655 324.479> 452 50<221.057 367.197> 476 50<132.881 277.55>
VStem: 99 61<58 284.498> 349 63<58 297.431>
LayerCount: 2
Fore
SplineSet
99 58 m 1xa6
 99 318 l 1
 81 318 l 2
 55 318 43 327 43 348 c 0
 43 376 61 376 99 376 c 2
 138 376 l 2xc6
 154 376 161 369 161 359 c 2
 161 332 l 1
 200 369 238 387 280 387 c 0
 358 387 412 336 412 242 c 2
 412 58 l 1
 431 58 l 2
 457 58 469 50 469 29 c 0
 469 6 455 0 426 0 c 2
 336 0 l 2
 307 0 295 2 295 29 c 0
 295 51 307 58 336 58 c 2
 349 58 l 1
 349 227 l 2
 349 292 319 324 266 324 c 0
 217 324 160 288 160 227 c 2
 160 58 l 1
 167 58 173 58 178 58 c 0
 206 58 217 51 217 29 c 0
 217 1 204 0 173 0 c 2
 99 0 l 1
 78 0 l 2
 55 0 43 10 43 29 c 0
 43 52 58 58 91 58 c 2
 99 58 l 1xa6
292 508 m 2
 306 505 318 502 326 502 c 0
 358 502 364 530 382 530 c 0
 392 530 398 524 398 514 c 0
 398 495 363 452 305 452 c 0x96
 290 452 274 454 256 458 c 2
 209 471 l 2
 197 474 186 476 175 476 c 0
 143 476 136 448 118 448 c 0
 108 448 103 454 103 463 c 0
 103 483 139 526 197 526 c 0x8e
 213 526 228 523 245 519 c 2
 292 508 l 2
EndSplineSet
Validated: 1
EndChar

StartChar: ograve
Encoding: 242 242 175
Width: 500
VWidth: 833
GlyphClass: 2
Flags: W
HStem: -10 57<172.457 329.334> 329 56<172.457 329.334>
VStem: 38 70<112.257 265.917> 393 70<109.783 265.706>
LayerCount: 2
Fore
SplineSet
463 188 m 0
 463 75 380 -10 251 -10 c 0
 122 -10 38 75 38 188 c 0
 38 301 122 385 251 385 c 0
 380 385 463 300 463 188 c 0
251 47 m 0
 335 47 393 106 393 188 c 0
 393 269 335 329 251 329 c 0
 167 329 108 269 108 188 c 0
 108 107 167 47 251 47 c 0
328 421 m 1
 115 496 l 2
 108 498 104 505 104 512 c 0
 104 514 104 519 106 521 c 2
 119 545 l 2
 123 553 130 558 138 558 c 0
 140 558 142 557 144 556 c 2
 338 442 l 1
 328 421 l 1
EndSplineSet
Validated: 1
EndChar

StartChar: oacute
Encoding: 243 243 176
Width: 500
VWidth: 833
GlyphClass: 2
Flags: W
HStem: -10 57<172.457 329.334> 329 56<172.457 329.334>
VStem: 38 70<112.257 265.917> 393 70<109.783 265.706>
LayerCount: 2
Fore
SplineSet
463 188 m 0
 463 75 380 -10 251 -10 c 0
 122 -10 38 75 38 188 c 0
 38 301 122 385 251 385 c 0
 380 385 463 300 463 188 c 0
251 47 m 0
 335 47 393 106 393 188 c 0
 393 269 335 329 251 329 c 0
 167 329 108 269 108 188 c 0
 108 107 167 47 251 47 c 0
163 442 m 1
 357 556 l 2
 359 557 361 558 363 558 c 0
 371 558 378 553 382 545 c 2
 396 521 l 2
 398 519 398 514 398 512 c 0
 398 505 394 498 387 496 c 2
 174 421 l 1
 163 442 l 1
EndSplineSet
Validated: 1
EndChar

StartChar: ocircumflex
Encoding: 244 244 177
Width: 500
VWidth: 833
GlyphClass: 2
Flags: W
HStem: -10 57<172.457 329.334> 329 56<172.457 329.334>
VStem: 38 70<112.257 265.917> 393 70<109.783 265.706>
LayerCount: 2
Fore
SplineSet
463 188 m 0
 463 75 380 -10 251 -10 c 0
 122 -10 38 75 38 188 c 0
 38 301 122 385 251 385 c 0
 380 385 463 300 463 188 c 0
251 47 m 0
 335 47 393 106 393 188 c 0
 393 269 335 329 251 329 c 0
 167 329 108 269 108 188 c 0
 108 107 167 47 251 47 c 0
251 489 m 1
 133 427 l 2
 131 425 128 425 126 425 c 0
 118 425 111 431 111 440 c 0
 111 444 113 449 116 451 c 2
 228 539 l 2
 235 545 243 548 251 548 c 0
 259 548 266 545 273 539 c 2
 386 451 l 2
 389 449 391 444 391 440 c 0
 391 431 384 425 376 425 c 0
 374 425 370 425 368 427 c 2
 251 489 l 1
EndSplineSet
Validated: 1
EndChar

StartChar: otilde
Encoding: 245 245 178
Width: 500
VWidth: 833
GlyphClass: 2
Flags: W
HStem: -10 57<172.457 329.334> 329 56<172.457 329.334> 452 50<221.057 367.197> 476 50<132.881 277.55>
VStem: 38 70<112.257 265.917> 393 70<109.783 265.706>
LayerCount: 2
Fore
SplineSet
463 188 m 0xcc
 463 75 380 -10 251 -10 c 0
 122 -10 38 75 38 188 c 0
 38 301 122 385 251 385 c 0
 380 385 463 300 463 188 c 0xcc
251 47 m 0
 335 47 393 106 393 188 c 0
 393 269 335 329 251 329 c 0
 167 329 108 269 108 188 c 0
 108 107 167 47 251 47 c 0
292 508 m 2
 306 505 318 502 326 502 c 0
 358 502 364 530 382 530 c 0
 392 530 398 524 398 514 c 0
 398 495 363 452 305 452 c 0xec
 290 452 274 454 256 458 c 2
 209 471 l 2
 197 474 186 476 175 476 c 0
 143 476 136 448 118 448 c 0
 108 448 103 454 103 463 c 0
 103 483 139 526 197 526 c 0xdc
 213 526 228 523 245 519 c 2
 292 508 l 2
EndSplineSet
Validated: 1
EndChar

StartChar: odieresis
Encoding: 246 246 179
Width: 500
VWidth: 833
GlyphClass: 2
Flags: W
HStem: -10 57<172.457 329.334> 329 56<172.457 329.334> 435 98<106.701 187.932 313.385 394.615>
VStem: 38 70<112.257 265.917> 98 98<443.838 524.002> 305 98<443.438 524.281> 393 70<109.783 265.706>
LayerCount: 2
Fore
SplineSet
463 188 m 0xf2
 463 75 380 -10 251 -10 c 0
 122 -10 38 75 38 188 c 0
 38 301 122 385 251 385 c 0
 380 385 463 300 463 188 c 0xf2
251 47 m 0
 335 47 393 106 393 188 c 0
 393 269 335 329 251 329 c 0
 167 329 108 269 108 188 c 0
 108 107 167 47 251 47 c 0
98 485 m 0xe8
 98 511 121 533 148 533 c 0
 175 533 196 512 196 485 c 0
 196 456 176 435 148 435 c 0
 120 435 98 457 98 485 c 0xe8
305 485 m 0xe4
 305 511 327 533 354 533 c 0
 381 533 403 512 403 485 c 0
 403 456 382 435 354 435 c 0
 326 435 305 457 305 485 c 0xe4
EndSplineSet
Validated: 1
EndChar

StartChar: divide
Encoding: 247 247 180
Width: 500
VWidth: 833
GlyphClass: 2
Flags: W
HStem: 83 91<213.053 288.947> 227 60<42.6554 457.345> 338 92<213.053 288.699>
VStem: 206 90<89.7132 166.901 344.986 422.653>
LayerCount: 2
Fore
SplineSet
251 430 m 0
 275 430 296 409 296 384 c 0
 296 360 276 338 251 338 c 0
 226 338 206 359 206 384 c 0
 206 410 227 430 251 430 c 0
68 287 m 2
 432 287 l 2
 449 287 458 276 458 257 c 0
 458 238 449 227 432 227 c 2
 68 227 l 2
 51 227 42 237 42 257 c 0
 42 276 51 287 68 287 c 2
251 174 m 0
 276 174 296 153 296 128 c 0
 296 104 277 83 251 83 c 0
 226 83 206 103 206 128 c 0
 206 154 227 174 251 174 c 0
EndSplineSet
Validated: 1
EndChar

StartChar: oslash
Encoding: 248 248 181
Width: 500
VWidth: 833
GlyphClass: 2
Flags: W
HStem: -8 53<177.883 334.671> 334 51<169.943 328.755>
VStem: 39 68<116.795 271.072> 401 63<110.309 261.358>
LayerCount: 2
Fore
SplineSet
414 320 m 1
 443 289 464 249 464 188 c 0
 464 75 380 -8 252 -8 c 0
 204 -8 163 2 121 28 c 1
 81 -11 l 2
 77 -15 73 -18 68 -18 c 0
 56 -18 43 -6 43 6 c 0
 43 11 45 16 48 19 c 2
 88 58 l 1
 56 100 39 141 39 188 c 0
 39 301 124 385 252 385 c 0
 299 385 340 373 379 350 c 1
 418 389 l 2
 422 393 427 396 432 396 c 0
 444 396 456 384 456 372 c 0
 456 367 453 360 451 358 c 2
 414 320 l 1
135 106 m 1
 337 307 l 1
 314 323 285 334 250 334 c 0
 165 334 107 276 107 193 c 0
 107 161 116 134 135 106 c 1
369 276 m 1
 166 73 l 1
 197 54 226 45 259 45 c 0
 343 45 401 109 401 188 c 0
 401 220 391 248 369 276 c 1
EndSplineSet
Validated: 1
EndChar

StartChar: ugrave
Encoding: 249 249 182
Width: 500
VWidth: 833
GlyphClass: 2
Flags: W
HStem: -8 60<173.671 301.45> 0 58<408 463.401> 318 58<30.7401 86 261.609 347>
VStem: 30 118<319.734 375.197> 86 62<75.9614 318> 347 61<90.712 318>
LayerCount: 2
Fore
SplineSet
148 150 m 2xac
 148 83 176 52 239 52 c 0xac
 294 52 347 90 347 150 c 2
 347 318 l 1
 291 318 l 2
 269 318 261 328 261 348 c 0
 261 368 271 376 293 376 c 2
 380 376 l 2
 408 376 408 361 408 337 c 2
 408 58 l 1
 427 58 l 2
 453 58 464 50 464 29 c 0
 464 10 454 0 432 0 c 2
 370 0 l 2x6c
 354 0 347 7 347 17 c 2
 347 44 l 1
 305 11 269 -8 220 -8 c 0
 131 -8 86 40 86 135 c 2
 86 318 l 1xac
 68 318 l 2
 42 318 30 327 30 348 c 0
 30 367 40 376 62 376 c 2
 124 376 l 2
 146 376 148 367 148 349 c 2
 148 345 l 1xb4
 148 150 l 2xac
302 421 m 1
 90 496 l 2
 83 498 79 505 79 512 c 0
 79 514 79 519 81 521 c 2
 94 545 l 2
 98 553 105 558 113 558 c 0
 115 558 117 557 119 556 c 2
 313 442 l 1
 302 421 l 1
EndSplineSet
Validated: 1
EndChar

StartChar: uacute
Encoding: 250 250 183
Width: 500
VWidth: 833
GlyphClass: 2
Flags: W
HStem: -8 60<173.671 301.45> 0 58<408 463.401> 318 58<30.7401 86 261.609 347>
VStem: 30 118<319.734 375.197> 86 62<75.9614 318> 347 61<90.712 318>
LayerCount: 2
Fore
SplineSet
148 150 m 2xac
 148 83 176 52 239 52 c 0xac
 294 52 347 90 347 150 c 2
 347 318 l 1
 291 318 l 2
 269 318 261 328 261 348 c 0
 261 368 271 376 293 376 c 2
 380 376 l 2
 408 376 408 361 408 337 c 2
 408 58 l 1
 427 58 l 2
 453 58 464 50 464 29 c 0
 464 10 454 0 432 0 c 2
 370 0 l 2x6c
 354 0 347 7 347 17 c 2
 347 44 l 1
 305 11 269 -8 220 -8 c 0
 131 -8 86 40 86 135 c 2
 86 318 l 1xac
 68 318 l 2
 42 318 30 327 30 348 c 0
 30 367 40 376 62 376 c 2
 124 376 l 2
 146 376 148 367 148 349 c 2
 148 345 l 1xb4
 148 150 l 2xac
138 442 m 1
 332 556 l 2
 334 557 336 558 338 558 c 0
 346 558 354 553 358 545 c 2
 371 521 l 2
 373 519 372 514 372 512 c 0
 372 505 369 498 362 496 c 2
 149 421 l 1
 138 442 l 1
EndSplineSet
Validated: 1
EndChar

StartChar: ucircumflex
Encoding: 251 251 184
Width: 500
VWidth: 833
GlyphClass: 2
Flags: W
HStem: -8 60<173.671 301.45> 0 58<408 463.401> 318 58<30.7401 86 261.609 347>
VStem: 30 118<319.734 375.197> 86 62<75.9614 318> 347 61<90.712 318>
LayerCount: 2
Fore
SplineSet
148 150 m 2xac
 148 83 176 52 239 52 c 0xac
 294 52 347 90 347 150 c 2
 347 318 l 1
 291 318 l 2
 269 318 261 328 261 348 c 0
 261 368 271 376 293 376 c 2
 380 376 l 2
 408 376 408 361 408 337 c 2
 408 58 l 1
 427 58 l 2
 453 58 464 50 464 29 c 0
 464 10 454 0 432 0 c 2
 370 0 l 2x6c
 354 0 347 7 347 17 c 2
 347 44 l 1
 305 11 269 -8 220 -8 c 0
 131 -8 86 40 86 135 c 2
 86 318 l 1xac
 68 318 l 2
 42 318 30 327 30 348 c 0
 30 367 40 376 62 376 c 2
 124 376 l 2
 146 376 148 367 148 349 c 2
 148 345 l 1xb4
 148 150 l 2xac
226 489 m 1
 108 427 l 2
 106 425 103 425 101 425 c 0
 93 425 86 431 86 440 c 0
 86 444 88 449 91 451 c 2
 203 539 l 2
 210 545 218 548 226 548 c 0
 234 548 241 545 248 539 c 2
 361 451 l 2
 364 449 366 444 366 440 c 0
 366 431 359 425 351 425 c 0
 349 425 345 425 343 427 c 2
 226 489 l 1
EndSplineSet
Validated: 1
EndChar

StartChar: udieresis
Encoding: 252 252 185
Width: 500
VWidth: 833
GlyphClass: 2
Flags: W
HStem: -8 60<173.671 301.45> 0 58<408 463.401> 318 58<30.7401 86 261.609 347> 435 98<80.7012 162.615 288.385 369.615>
VStem: 30 118<319.734 375.197> 72 99<443.838 524.002> 86 62<75.9614 318> 280 98<443.438 524.281> 347 61<90.712 318>
LayerCount: 2
Fore
SplineSet
148 150 m 2xb2
 148 83 176 52 239 52 c 0xb2
 294 52 347 90 347 150 c 2
 347 318 l 1
 291 318 l 2
 269 318 261 328 261 348 c 0
 261 368 271 376 293 376 c 2
 380 376 l 2
 408 376 408 361 408 337 c 2
 408 58 l 1
 427 58 l 2
 453 58 464 50 464 29 c 0
 464 10 454 0 432 0 c 2
 370 0 l 2x7280
 354 0 347 7 347 17 c 2
 347 44 l 1
 305 11 269 -8 220 -8 c 0
 131 -8 86 40 86 135 c 2
 86 318 l 1xb280
 68 318 l 2
 42 318 30 327 30 348 c 0
 30 367 40 376 62 376 c 2
 124 376 l 2
 146 376 148 367 148 349 c 2
 148 345 l 1xb8
 148 150 l 2xb2
72 485 m 0x34
 72 511 95 533 122 533 c 0
 149 533 171 512 171 485 c 0
 171 456 150 435 122 435 c 0
 94 435 72 457 72 485 c 0x34
280 485 m 0x31
 280 511 302 533 329 533 c 0
 356 533 378 512 378 485 c 0
 378 456 357 435 329 435 c 0
 301 435 280 457 280 485 c 0x31
EndSplineSet
Validated: 1
EndChar

StartChar: yacute
Encoding: 253 253 186
Width: 500
VWidth: 833
GlyphClass: 2
Flags: W
HStem: -162 58<34.6044 153 220 287.328> 318 58<24.8445 71 146 207.156 303.85 368 434 474.194>
LayerCount: 2
Fore
SplineSet
220 -104 m 1
 238 -104 l 2
 274 -104 288 -109 288 -133 c 0
 288 -152 277 -162 255 -162 c 2
 68 -162 l 2
 44 -162 34 -155 34 -133 c 0
 34 -114 44 -104 65 -104 c 2
 153 -104 l 1
 220 26 l 1
 71 318 l 1
 38 318 24 325 24 348 c 0
 24 367 35 376 57 376 c 2
 170 376 l 2
 197 376 208 372 208 348 c 0
 208 325 194 318 161 318 c 2
 146 318 l 1
 255 94 l 1
 368 318 l 1
 352 318 l 2
 317 318 303 325 303 348 c 0
 303 372 315 376 342 376 c 2
 442 376 l 2
 464 376 475 367 475 348 c 0
 475 326 462 319 434 318 c 1
 220 -104 l 1
163 442 m 1
 357 556 l 2
 359 557 361 558 363 558 c 0
 371 558 378 553 382 545 c 2
 396 521 l 2
 398 519 398 514 398 512 c 0
 398 505 394 498 387 496 c 2
 174 421 l 1
 163 442 l 1
EndSplineSet
Validated: 1
EndChar

StartChar: thorn
Encoding: 254 254 187
Width: 500
VWidth: 833
GlyphClass: 2
Flags: W
HStem: -162 58<28.6699 84 145 273.396> -1 60<197.553 346.709> 314 63<197.213 346.008> 474 58<28.6699 84>
VStem: 28 118<476.327 531.078> 84 62<-104 58 108.994 264.215 320 474> 401 70<112.572 259.702>
LayerCount: 2
Fore
SplineSet
272 59 m 0xf2
 348 59 401 111 401 187 c 0
 401 260 348 314 272 314 c 0
 196 314 143 260 143 187 c 0
 143 113 196 59 272 59 c 0xf2
145 -104 m 1
 243 -104 l 2
 264 -104 274 -114 274 -133 c 0
 274 -155 264 -162 240 -162 c 2
 60 -162 l 2
 38 -162 28 -152 28 -133 c 0xfa
 28 -110 42 -104 77 -104 c 2
 84 -104 l 1
 84 474 l 1xf6
 77 474 l 2
 42 474 28 480 28 503 c 0
 28 522 38 532 60 532 c 2
 122 532 l 2
 138 532 146 528 146 516 c 2xfa
 146 320 l 1xf6
 183 358 227 377 279 377 c 0
 387 377 471 295 471 182 c 0
 471 74 393 -1 286 -1 c 0
 228 -1 178 20 145 58 c 1
 145 -104 l 1
EndSplineSet
Validated: 1
EndChar

StartChar: ydieresis
Encoding: 255 255 188
Width: 500
VWidth: 833
GlyphClass: 2
Flags: W
HStem: -162 58<34.6044 153 220 287.328> 318 58<24.8445 71 146 207.156 303.85 368 434 474.194> 435 98<106.701 187.932 313.385 394.615>
VStem: 98 98<443.838 524.002> 305 98<443.438 524.281>
LayerCount: 2
Fore
SplineSet
220 -104 m 1
 238 -104 l 2
 274 -104 288 -109 288 -133 c 0
 288 -152 277 -162 255 -162 c 2
 68 -162 l 2
 44 -162 34 -155 34 -133 c 0
 34 -114 44 -104 65 -104 c 2
 153 -104 l 1
 220 26 l 1
 71 318 l 1
 38 318 24 325 24 348 c 0
 24 367 35 376 57 376 c 2
 170 376 l 2
 197 376 208 372 208 348 c 0
 208 325 194 318 161 318 c 2
 146 318 l 1
 255 94 l 1
 368 318 l 1
 352 318 l 2
 317 318 303 325 303 348 c 0
 303 372 315 376 342 376 c 2
 442 376 l 2
 464 376 475 367 475 348 c 0
 475 326 462 319 434 318 c 1
 220 -104 l 1
98 485 m 0
 98 511 121 533 148 533 c 0
 175 533 196 512 196 485 c 0
 196 456 176 435 148 435 c 0
 120 435 98 457 98 485 c 0
305 485 m 0
 305 511 327 533 354 533 c 0
 381 533 403 512 403 485 c 0
 403 456 382 435 354 435 c 0
 326 435 305 457 305 485 c 0
EndSplineSet
Validated: 1
EndChar

StartChar: dotlessi
Encoding: 305 305 189
Width: 500
VWidth: 833
GlyphClass: 2
Flags: W
HStem: 0 58<68.7064 227 288 449.404> 318 58<113.975 227>
VStem: 227 61<58 318>
LayerCount: 2
Fore
SplineSet
288 58 m 1
 419 58 l 2
 440 58 450 49 450 29 c 0
 450 6 441 0 417 0 c 2
 101 0 l 2
 79 0 68 10 68 29 c 0
 68 48 80 58 102 58 c 2
 227 58 l 1
 227 318 l 1
 148 318 l 2
 126 318 113 329 113 348 c 0
 113 367 124 376 146 376 c 2
 265 376 l 2
 281 376 288 369 288 359 c 2
 288 58 l 1
EndSplineSet
Validated: 1
EndChar

StartChar: Lslash
Encoding: 321 321 190
Width: 500
VWidth: 833
GlyphClass: 2
Flags: W
HStem: 0 58<24.5395 123 188 404> 424 58<24.4783 123 188 304.407>
VStem: 123 65<58 191 281 424> 404 58<58 211.522>
LayerCount: 2
Fore
SplineSet
404 164 m 2
 404 199 407 212 433 212 c 0
 461 212 462 197 462 164 c 2
 462 30 l 2
 462 11 451 0 433 0 c 2
 72 0 l 1
 53 0 l 2
 33 0 24 10 24 29 c 0
 24 55 37 58 72 58 c 2
 123 58 l 1
 123 191 l 1
 83 162 l 2
 70 153 61 149 56 149 c 0
 44 149 32 160 32 173 c 0
 32 184 40 191 55 202 c 2
 123 249 l 1
 123 424 l 1
 72 424 l 2
 37 424 24 427 24 453 c 0
 24 481 40 482 72 482 c 2
 256 482 l 1
 275 482 l 2
 295 482 305 472 305 453 c 0
 305 426 290 424 256 424 c 2
 188 424 l 1
 188 281 l 1
 269 337 l 2
 281 345 290 349 294 349 c 0
 306 349 318 336 318 323 c 0
 318 313 311 307 297 298 c 2
 188 222 l 1
 188 58 l 1
 404 58 l 1
 404 164 l 2
EndSplineSet
Validated: 1
EndChar

StartChar: lslash
Encoding: 322 322 191
Width: 500
VWidth: 833
GlyphClass: 2
Flags: W
HStem: 0 58<77.7401 223 285 441.458> 362 20G<368.5 376.5> 474 58<95.6665 223>
VStem: 223 62<58 248 327 474>
LayerCount: 2
Fore
SplineSet
223 248 m 1
 168 210 l 2
 156 202 148 198 142 198 c 0
 131 198 121 207 121 219 c 0
 121 229 128 236 142 246 c 2
 223 302 l 1
 223 474 l 1
 154 474 l 2
 145 474 137 475 133 475 c 0
 106 475 95 482 95 503 c 0
 95 522 106 532 128 532 c 2
 262 532 l 2
 278 532 285 526 285 516 c 2
 285 327 l 1
 345 368 l 2
 357 376 366 382 371 382 c 0
 382 382 392 372 392 360 c 0
 392 349 384 343 370 333 c 2
 285 274 l 1
 285 58 l 1
 412 58 l 2
 433 58 442 49 442 29 c 0
 442 6 433 0 409 0 c 2
 109 0 l 2
 87 0 77 10 77 29 c 0
 77 48 89 58 111 58 c 2
 223 58 l 1
 223 248 l 1
EndSplineSet
Validated: 1
EndChar

StartChar: OE
Encoding: 338 338 192
Width: 500
VWidth: 833
GlyphClass: 2
Flags: W
HStem: 0 54<150.708 237 293 422> 226 45<293 350> 428 54<150.33 237 293 423>
VStem: 28 67<121.277 362.54> 237 56<54 226 271 428> 350 51<162.278 226 271 334.78> 422 58<54 171.26 317.607 428>
LayerCount: 2
Fore
SplineSet
262 0 m 2
 204 0 160 5 124 28 c 0
 62 68 28 140 28 241 c 0
 28 344 62 419 123 457 c 0
 153 476 199 482 263 482 c 2
 452 482 l 2
 470 482 481 472 481 450 c 2
 481 345 l 2
 481 327 471 317 452 317 c 0
 430 317 423 327 423 352 c 2
 423 366 l 1
 423 428 l 1
 293 428 l 1
 293 271 l 1
 350 271 l 1
 350 298 l 2
 350 323 356 335 376 335 c 0
 394 335 401 324 401 302 c 2
 401 198 l 2
 401 173 396 162 376 162 c 0
 354 162 350 177 350 213 c 2
 350 226 l 1
 293 226 l 1
 293 54 l 1
 422 54 l 1
 422 123 l 1
 422 140 l 2
 422 162 432 172 452 172 c 0
 471 172 480 162 480 144 c 2
 480 30 l 2
 480 11 470 0 452 0 c 2
 262 0 l 2
237 428 m 1
 232 428 226 429 222 429 c 0
 138 429 95 365 95 241 c 0
 95 119 139 53 222 53 c 0
 227 53 232 53 237 54 c 1
 237 428 l 1
EndSplineSet
Validated: 1
EndChar

StartChar: oe
Encoding: 339 339 193
Width: 500
VWidth: 833
GlyphClass: 2
Flags: W
HStem: -10 58<118.324 200.077 303.251 409.322> 170 49<282 417> 331 57<120.572 199.597 305.065 395.744>
VStem: 29 62<78.2314 299.164> 228 54<77.8807 170 219 299.973> 417 63<219 309.834>
LayerCount: 2
Fore
SplineSet
282 219 m 1
 417 219 l 1
 417 226 l 2
 417 295 393 331 355 331 c 0
 307 331 282 294 282 222 c 2
 282 219 l 1
159 48 m 0
 199 48 228 94 228 179 c 0
 228 279 205 329 159 329 c 0
 117 329 91 280 91 188 c 0
 91 96 117 48 159 48 c 0
281 170 m 1
 281 164 280 158 280 152 c 0
 280 84 307 48 353 48 c 0
 407 48 432 101 458 101 c 0
 471 101 482 90 482 75 c 0
 482 43 421 -10 349 -10 c 0
 306 -10 274 7 252 45 c 1
 225 7 194 -10 155 -10 c 0
 81 -10 29 65 29 188 c 0
 29 316 84 386 162 386 c 0
 200 386 228 369 255 335 c 1
 284 371 317 388 355 388 c 0
 430 388 480 324 480 212 c 0
 480 174 472 170 440 170 c 2
 281 170 l 1
EndSplineSet
Validated: 1
EndChar

StartChar: Scaron
Encoding: 352 352 194
Width: 500
VWidth: 833
GlyphClass: 2
Flags: W
HStem: -14 55<171.19 333.782> 442 55<174.497 322.489>
VStem: 59 77<72.9324 152.566> 72 66<305.234 408.146> 372 67<75.5923 180.758>
LayerCount: 2
Fore
SplineSet
132 14 m 1xd8
 130 -10 121 -18 99 -18 c 0
 76 -18 66 -5 64 24 c 2
 59 118 l 1
 59 127 l 2
 59 150 66 162 91 162 c 0
 125 162 121 130 136 100 c 0xe8
 154 64 196 41 254 41 c 0
 326 41 372 79 372 129 c 0
 372 171 345 198 293 206 c 2
 233 214 l 2
 125 229 72 268 72 350 c 0
 72 431 147 497 252 497 c 0
 285 497 317 487 355 472 c 1
 355 488 363 493 381 493 c 0
 410 493 412 484 414 462 c 2
 420 378 l 1
 420 373 l 2
 420 354 408 343 389 343 c 0
 357 343 362 373 344 399 c 0
 326 425 291 442 248 442 c 0
 181 442 138 405 138 353 c 0
 138 312 169 288 231 280 c 2
 296 272 l 2
 391 260 439 214 439 137 c 0
 439 47 366 -14 252 -14 c 0
 210 -14 173 -4 132 14 c 1xd8
251 594 m 1
 368 657 l 2
 370 659 373 658 375 658 c 0
 383 658 391 652 391 643 c 0
 391 639 389 635 386 633 c 2
 273 544 l 2
 266 538 259 536 251 536 c 0
 243 536 235 539 228 544 c 2
 116 633 l 2
 113 635 111 639 111 643 c 0
 111 652 118 658 126 658 c 0
 128 658 131 659 133 657 c 2
 251 594 l 1
EndSplineSet
Validated: 1
EndChar

StartChar: scaron
Encoding: 353 353 195
Width: 500
VWidth: 833
GlyphClass: 2
Flags: W
HStem: -10 145<74.0319 127.652> -9 52<173.782 336.74> 160 66<148.249 348.894> 255 129<345.407 400.992> 335 52<156.028 304.69>
VStem: 74 63<240.023 315.987> 359 68<65.3844 148.786>
LayerCount: 2
Fore
SplineSet
72 29 m 2xa6
 72 102 l 2
 72 124 80 135 102 135 c 0xa6
 127 135 124 113 140 92 c 0
 162 64 208 43 263 43 c 0
 322 43 359 70 359 107 c 0
 359 149 330 160 268 160 c 2
 244 160 l 2
 133 160 74 200 74 272 c 0
 74 340 130 387 231 387 c 0x6e
 290 387 322 368 334 368 c 0
 346 368 354 384 376 384 c 0
 394 384 403 371 403 343 c 2
 403 296 l 2
 403 269 396 255 376 255 c 0x36
 358 255 349 276 325 298 c 0
 294 326 264 335 222 335 c 0
 168 335 137 307 137 275 c 0
 137 232 183 228 263 226 c 0
 371 224 427 192 427 112 c 0
 427 42 370 -9 268 -9 c 0x6e
 231 -9 190 -3 144 9 c 1
 125 -3 111 -10 102 -10 c 0
 83 -10 72 3 72 29 c 2xa6
251 484 m 1
 368 547 l 2
 370 549 373 548 375 548 c 0
 383 548 391 542 391 533 c 0
 391 529 389 525 386 523 c 2
 273 434 l 2
 266 428 259 426 251 426 c 0
 243 426 235 429 228 434 c 2
 116 523 l 2
 113 525 111 529 111 533 c 0
 111 542 118 548 126 548 c 0
 128 548 131 549 133 547 c 2
 251 484 l 1
EndSplineSet
Validated: 1
EndChar

StartChar: Ydieresis
Encoding: 376 376 196
Width: 500
VWidth: 833
GlyphClass: 2
Flags: W
HStem: 0 58<108.481 217 281 388.488> 424 58<32.5742 81 155 214.293 299.529 356 419 467.426> 545 98<106.701 187.932 313.385 394.615>
VStem: 98 98<553.838 634.002> 217 64<58 187> 305 98<553.438 634.281>
LayerCount: 2
Fore
SplineSet
340 58 m 2
 375 58 389 55 389 29 c 0
 389 4 377 0 345 0 c 2
 152 0 l 2
 121 0 108 4 108 29 c 0
 108 54 121 58 158 58 c 2
 217 58 l 1
 217 192 l 1
 81 424 l 1
 74 424 l 2
 44 424 32 430 32 453 c 0
 32 481 49 482 81 482 c 2
 174 482 l 2
 202 482 215 478 215 453 c 0
 215 430 200 424 168 424 c 2
 155 424 l 1
 253 248 l 1
 356 424 l 1
 350 424 344 423 339 423 c 0
 310 423 299 431 299 453 c 0
 299 481 312 482 344 482 c 2
 355 482 l 1
 419 482 l 2
 453 482 468 480 468 453 c 0
 468 430 456 424 426 424 c 2
 419 424 l 1
 281 187 l 1
 281 58 l 1
 340 58 l 2
98 595 m 0
 98 621 121 643 148 643 c 0
 175 643 196 622 196 595 c 0
 196 566 176 545 148 545 c 0
 120 545 98 567 98 595 c 0
305 595 m 0
 305 621 327 643 354 643 c 0
 381 643 403 622 403 595 c 0
 403 566 382 545 354 545 c 0
 326 545 305 567 305 595 c 0
EndSplineSet
Validated: 1
EndChar

StartChar: Zcaron
Encoding: 381 381 197
Width: 500
VWidth: 833
GlyphClass: 2
Flags: W
HStem: 0 58<153 342> 424 58<156 328>
VStem: 92 59<292.653 424> 347 61<58 200.201>
LayerCount: 2
Fore
SplineSet
156 424 m 1
 152 339 l 2
 151 328 151 322 151 320 c 0
 151 300 141 292 120 292 c 0
 100 292 92 303 92 325 c 2
 92 332 l 1
 92 342 l 1
 97 454 l 2
 98 474 107 482 128 482 c 2
 361 482 l 2
 393 482 409 471 409 448 c 0
 409 436 404 422 394 407 c 2
 153 58 l 1
 342 58 l 1
 347 152 l 2
 349 188 349 201 378 201 c 0
 399 201 408 190 408 166 c 0
 408 161 407 156 407 151 c 2
 401 28 l 2
 400 8 391 0 370 0 c 2
 114 0 l 2
 91 0 75 15 75 37 c 0
 75 50 82 66 95 85 c 2
 328 424 l 1
 156 424 l 1
251 594 m 1
 368 657 l 2
 370 659 373 658 375 658 c 0
 383 658 391 652 391 643 c 0
 391 639 389 635 386 633 c 2
 273 544 l 2
 266 538 259 536 251 536 c 0
 243 536 235 539 228 544 c 2
 116 633 l 2
 113 635 111 639 111 643 c 0
 111 652 118 658 126 658 c 0
 128 658 131 659 133 657 c 2
 251 594 l 1
EndSplineSet
Validated: 1
EndChar

StartChar: zcaron
Encoding: 382 382 198
Width: 500
VWidth: 833
GlyphClass: 2
Flags: W
HStem: 0 58<162 365> 318 58<149 343>
VStem: 91 58<242.649 318> 365 57<58 133.351>
LayerCount: 2
Fore
SplineSet
162 58 m 1
 365 58 l 1
 365 78 l 2
 365 116 367 134 394 134 c 0
 413 134 422 124 422 102 c 2
 422 34 l 2
 422 6 406 0 374 0 c 2
 128 0 l 2
 97 0 82 13 82 37 c 0
 82 57 94 69 111 86 c 2
 343 318 l 1
 149 318 l 1
 149 298 l 2
 149 260 147 242 120 242 c 0
 101 242 91 252 91 274 c 2
 91 343 l 2
 91 366 110 376 148 376 c 2
 365 376 l 2
 403 376 422 362 422 335 c 0
 422 319 410 299 386 276 c 2
 162 58 l 1
251 484 m 1
 368 547 l 2
 370 549 373 548 375 548 c 0
 383 548 391 542 391 533 c 0
 391 529 389 525 386 523 c 2
 273 434 l 2
 266 428 259 426 251 426 c 0
 243 426 235 429 228 434 c 2
 116 523 l 2
 113 525 111 529 111 533 c 0
 111 542 118 548 126 548 c 0
 128 548 131 549 133 547 c 2
 251 484 l 1
EndSplineSet
Validated: 1
EndChar

StartChar: florin
Encoding: 402 402 199
Width: 500
VWidth: 833
GlyphClass: 2
Flags: W
HStem: -116 54<28.9657 158.945> 285 46<124.163 212 276 370.959> 478 49<307.291 436.55>
LayerCount: 2
Fore
SplineSet
240 21 m 2
 229 -75 184 -116 91 -116 c 0
 42 -116 14 -103 14 -81 c 0
 14 -65 26 -52 39 -52 c 0
 60 -52 82 -62 108 -62 c 0
 162 -62 175 -27 183 44 c 2
 212 285 l 1
 147 285 l 2
 133 285 124 294 124 306 c 0
 124 324 136 331 159 331 c 2
 216 331 l 1
 224 392 l 2
 236 484 279 527 372 527 c 0
 424 527 451 513 451 491 c 0
 451 478 439 466 427 466 c 0
 417 466 398 478 366 478 c 0
 308 478 290 448 282 384 c 2
 276 331 l 1
 335 331 l 2
 357 331 371 328 371 308 c 0
 371 290 358 285 332 285 c 2
 271 285 l 1
 240 21 l 2
EndSplineSet
Validated: 1
EndChar

StartChar: circumflex
Encoding: 710 710 200
Width: 500
VWidth: 833
GlyphClass: 2
Flags: W
HStem: 425 123
VStem: 111 280<431 444>
LayerCount: 2
Fore
SplineSet
251 489 m 1
 133 427 l 2
 131 425 128 425 126 425 c 0
 118 425 111 431 111 440 c 0
 111 444 113 449 116 451 c 2
 228 539 l 2
 235 545 243 548 251 548 c 0
 259 548 266 545 273 539 c 2
 386 451 l 2
 389 449 391 444 391 440 c 0
 391 431 384 425 376 425 c 0
 374 425 370 425 368 427 c 2
 251 489 l 1
EndSplineSet
Validated: 1
EndChar

StartChar: caron
Encoding: 711 711 201
Width: 500
VWidth: 833
GlyphClass: 2
Flags: W
HStem: 426 121
VStem: 111 280<529 542>
LayerCount: 2
Fore
SplineSet
251 484 m 1
 368 547 l 2
 370 549 373 548 375 548 c 0
 383 548 391 542 391 533 c 0
 391 529 389 525 386 523 c 2
 273 434 l 2
 266 428 259 426 251 426 c 0
 243 426 235 429 228 434 c 2
 116 523 l 2
 113 525 111 529 111 533 c 0
 111 542 118 548 126 548 c 0
 128 548 131 549 133 547 c 2
 251 484 l 1
EndSplineSet
Validated: 1
EndChar

StartChar: breve
Encoding: 728 728 202
Width: 500
VWidth: 833
GlyphClass: 2
Flags: W
HStem: 441 51<150.879 350.622>
VStem: 95 312<492 545>
LayerCount: 2
Fore
SplineSet
251 441 m 0
 149 441 95 492 95 534 c 0
 95 545 99 551 107 551 c 0
 127 551 130 527 150 513 c 0
 169 500 203 492 251 492 c 0
 299 492 332 500 351 513 c 0
 371 527 375 551 395 551 c 0
 403 551 407 545 407 534 c 0
 407 492 353 441 251 441 c 0
EndSplineSet
Validated: 1
EndChar

StartChar: dotaccent
Encoding: 729 729 203
Width: 500
VWidth: 833
GlyphClass: 2
Flags: W
HStem: 439 103<208.794 292.544>
VStem: 199 103<449.248 531.525>
LayerCount: 2
Fore
SplineSet
199 491 m 0
 199 518 223 542 251 542 c 0
 279 542 302 519 302 491 c 0
 302 461 280 439 251 439 c 0
 223 439 199 462 199 491 c 0
EndSplineSet
Validated: 1
EndChar

StartChar: ring
Encoding: 730 730 204
Width: 500
VWidth: 833
GlyphClass: 2
Flags: W
HStem: 417 47<207.438 294.415> 574 48<207.835 294.01>
VStem: 148 48<474.801 562.613> 306 48<476.335 562.423>
LayerCount: 2
Fore
SplineSet
148 520 m 0
 148 577 193 622 251 622 c 0
 309 622 354 578 354 520 c 0
 354 462 309 417 251 417 c 0
 193 417 148 462 148 520 c 0
196 519 m 0
 196 488 220 464 251 464 c 0
 281 464 306 488 306 519 c 0
 306 549 281 574 251 574 c 0
 220 574 196 549 196 519 c 0
EndSplineSet
Validated: 1
EndChar

StartChar: ogonek
Encoding: 731 731 205
Width: 500
VWidth: 833
GlyphClass: 2
Flags: W
HStem: -186 46<251.49 331.25>
VStem: 207 60<-136.723 -64.1679>
LayerCount: 2
Fore
SplineSet
338 12 m 1
 291 -26 267 -57 267 -95 c 0
 267 -124 281 -140 305 -140 c 0
 333 -140 344 -114 352 -114 c 0
 358 -114 362 -119 362 -122 c 0
 362 -137 326 -186 271 -186 c 0
 232 -186 207 -161 207 -125 c 0
 207 -81 241 -35 316 12 c 1
 338 12 l 1
EndSplineSet
Validated: 1
EndChar

StartChar: tilde
Encoding: 732 732 206
Width: 500
VWidth: 833
GlyphClass: 2
Flags: W
HStem: 452 50<221.057 367.197> 476 50<132.881 277.55>
VStem: 103 295<478.362 498.214>
LayerCount: 2
Fore
SplineSet
292 508 m 2x60
 306 505 318 502 326 502 c 0
 358 502 364 530 382 530 c 0
 392 530 398 524 398 514 c 0
 398 495 363 452 305 452 c 0xa0
 290 452 274 454 256 458 c 2
 209 471 l 2
 197 474 186 476 175 476 c 0
 143 476 136 448 118 448 c 0
 108 448 103 454 103 463 c 0
 103 483 139 526 197 526 c 0
 213 526 228 523 245 519 c 2
 292 508 l 2x60
EndSplineSet
Validated: 1
EndChar

StartChar: hungarumlaut
Encoding: 733 733 207
Width: 500
VWidth: 833
GlyphClass: 2
Flags: W
HStem: 421 129
VStem: 141 301
LayerCount: 2
Fore
SplineSet
141 439 m 1
 257 541 l 2
 264 547 269 550 272 550 c 0
 278 550 284 547 287 543 c 2
 304 521 l 2
 306 518 308 513 308 510 c 0
 308 504 305 499 298 496 c 2
 157 421 l 1
 141 439 l 1
278 439 m 1
 393 541 l 2
 400 547 406 550 409 550 c 0
 415 550 420 547 423 543 c 2
 442 521 l 2
 444 518 445 513 445 510 c 0
 445 504 442 499 435 496 c 2
 293 421 l 1
 278 439 l 1
EndSplineSet
Validated: 1
EndChar

StartChar: mu
Encoding: 956 956 208
Width: 500
VWidth: 833
GlyphClass: 2
Flags: W
HStem: -9 57<146.103 269.572> 0 56<381 429.642> 320 56<64.5924 121>
VStem: 63 128<323.094 373.952> 310 121<1.82706 48.5469>
LayerCount: 2
Fore
SplineSet
381 56 m 1x78
 407 56 l 2
 423 56 431 47 431 32 c 0
 431 11 418 0 394 0 c 2
 330 0 l 2x78
 317 0 310 3 310 12 c 0
 310 14 311 17 312 20 c 2
 320 49 l 1
 278 10 233 -9 182 -9 c 0
 153 -9 132 -2 114 16 c 1
 90 -120 l 2
 84 -153 78 -167 58 -167 c 0
 36 -167 28 -160 28 -143 c 0
 28 -135 29 -123 32 -108 c 2
 121 320 l 1
 88 320 l 2
 71 320 63 328 63 343 c 0
 63 364 76 376 100 376 c 2
 171 376 l 2
 184 376 191 372 191 363 c 0
 191 361 191 359 190 357 c 2
 142 140 l 2
 139 123 137 110 137 102 c 0
 137 66 159 48 202 48 c 0xb8
 269 48 330 96 342 158 c 2
 381 348 l 2
 385 370 390 376 417 376 c 0
 435 376 444 368 444 354 c 0
 444 352 444 349 443 347 c 2
 381 56 l 1x78
EndSplineSet
Validated: 1
EndChar

StartChar: endash
Encoding: 8211 8211 209
Width: 500
VWidth: 833
GlyphClass: 2
Flags: W
HStem: 154 68<-18 521>
LayerCount: 2
Fore
SplineSet
502 222 m 2
 514 222 521 216 521 205 c 2
 521 173 l 2
 521 162 512 154 502 154 c 2
 0 154 l 2
 -11 154 -18 161 -18 173 c 2
 -18 205 l 2
 -18 215 -11 222 0 222 c 2
 502 222 l 2
EndSplineSet
Validated: 1
EndChar

StartChar: emdash
Encoding: 8212 8212 210
Width: 500
VWidth: 833
GlyphClass: 2
Flags: W
HStem: 154 68<-18 521>
LayerCount: 2
Fore
SplineSet
502 222 m 2
 514 222 521 215 521 205 c 2
 521 173 l 2
 521 163 512 154 502 154 c 2
 0 154 l 2
 -11 154 -18 161 -18 173 c 2
 -18 205 l 2
 -18 214 -11 222 0 222 c 2
 502 222 l 2
EndSplineSet
Validated: 1
EndChar

StartChar: quoteleft
Encoding: 8216 8216 211
Width: 500
VWidth: 833
GlyphClass: 2
Flags: W
HStem: 278 219<265.688 281.672>
VStem: 176 105<278 324.349>
LayerCount: 2
Fore
SplineSet
281 297 m 2
 278 283 275 278 260 278 c 2
 187 278 l 2
 180 278 176 282 176 286 c 0
 176 288 176 291 178 295 c 2
 270 485 l 2
 274 493 279 497 285 497 c 0
 287 497 290 496 292 495 c 2
 315 486 l 2
 322 484 326 478 326 473 c 0
 326 471 325 468 324 465 c 2
 281 297 l 2
EndSplineSet
Validated: 1
EndChar

StartChar: quoteright
Encoding: 8217 8217 212
Width: 500
VWidth: 833
GlyphClass: 2
Flags: W
HStem: 265 217<223.328 239.312>
VStem: 224 105<436.651 482>
LayerCount: 2
Fore
SplineSet
224 464 m 2
 227 478 230 482 245 482 c 2
 318 482 l 2
 325 482 329 478 329 475 c 0
 329 473 329 470 327 466 c 2
 235 276 l 2
 232 268 226 265 220 265 c 0
 218 265 215 265 213 266 c 2
 190 275 l 2
 182 277 179 282 179 287 c 0
 179 289 180 293 181 296 c 2
 224 464 l 2
EndSplineSet
Validated: 1
EndChar

StartChar: quotesinglbase
Encoding: 8218 8218 213
Width: 500
VWidth: 833
GlyphClass: 2
Flags: W
HStem: -122 218<210.328 226.312>
VStem: 211 106<50.4884 96>
LayerCount: 2
Fore
SplineSet
211 78 m 2
 214 92 217 96 232 96 c 2
 306 96 l 2
 313 96 317 92 317 88 c 0
 317 86 316 83 314 79 c 2
 222 -111 l 2
 219 -119 214 -122 208 -122 c 0
 206 -122 203 -122 201 -121 c 2
 178 -112 l 2
 171 -110 167 -104 167 -99 c 0
 167 -97 167 -94 168 -91 c 2
 211 78 l 2
EndSplineSet
Validated: 1
EndChar

StartChar: quotedblleft
Encoding: 8220 8220 214
Width: 500
VWidth: 833
GlyphClass: 2
Flags: W
HStem: 285 212<177.781 192.656 337.781 352.656>
VStem: 90 102<285 329.333> 250 102<285 329.333>
LayerCount: 2
Fore
SplineSet
192 302 m 2
 189 288 187 285 172 285 c 2
 101 285 l 2
 94 285 90 288 90 292 c 0
 90 294 90 297 92 301 c 2
 182 485 l 2
 186 493 190 497 196 497 c 0
 198 497 200 496 202 495 c 2
 225 487 l 2
 232 485 236 479 236 474 c 0
 236 472 235 468 234 466 c 2
 192 302 l 2
352 302 m 2
 349 288 346 285 331 285 c 2
 260 285 l 2
 253 285 250 288 250 292 c 0
 250 294 250 297 252 301 c 2
 342 485 l 2
 346 493 350 497 355 497 c 0
 357 497 360 496 362 495 c 2
 385 487 l 2
 392 485 395 479 395 474 c 0
 395 472 395 468 394 466 c 2
 352 302 l 2
EndSplineSet
Validated: 1
EndChar

StartChar: quotedblright
Encoding: 8221 8221 215
Width: 500
VWidth: 833
GlyphClass: 2
Flags: W
HStem: 271 211<144.344 160.172 304.328 319.172>
VStem: 145 103<437.667 482> 305 103<438.302 482>
LayerCount: 2
Fore
SplineSet
305 465 m 2
 308 478 311 482 326 482 c 2
 397 482 l 2
 404 482 408 479 408 475 c 0
 408 473 406 470 404 466 c 2
 315 282 l 2
 312 274 308 271 302 271 c 0
 300 271 297 271 295 272 c 2
 272 281 l 2
 265 283 262 287 262 292 c 0
 262 294 261 299 262 301 c 2
 305 465 l 2
145 465 m 2
 148 478 151 482 166 482 c 2
 237 482 l 2
 244 482 248 479 248 475 c 0
 248 473 247 470 245 466 c 2
 156 282 l 2
 153 274 148 271 142 271 c 0
 140 271 137 271 135 272 c 2
 112 281 l 2
 105 283 102 287 102 292 c 0
 102 294 102 299 103 301 c 2
 145 465 l 2
EndSplineSet
Validated: 1
EndChar

StartChar: quotedblbase
Encoding: 8222 8222 216
Width: 500
VWidth: 833
GlyphClass: 2
Flags: W
HStem: -116 212<137.359 153.172 297.359 313.172>
VStem: 138 103<50.1707 96> 298 103<50.1707 96>
LayerCount: 2
Fore
SplineSet
298 78 m 2
 301 91 304 96 319 96 c 2
 390 96 l 2
 397 96 401 93 401 89 c 0
 401 87 400 84 398 80 c 2
 309 -105 l 2
 306 -113 301 -116 295 -116 c 0
 293 -116 290 -115 288 -114 c 2
 266 -106 l 2
 259 -104 255 -98 255 -93 c 0
 255 -91 256 -87 257 -85 c 2
 298 78 l 2
138 78 m 2
 141 91 144 96 159 96 c 2
 231 96 l 2
 238 96 241 93 241 89 c 0
 241 87 240 84 238 80 c 2
 149 -105 l 2
 146 -113 142 -116 136 -116 c 0
 134 -116 131 -115 129 -114 c 2
 106 -106 l 2
 99 -104 96 -98 96 -93 c 0
 96 -91 96 -87 97 -85 c 2
 138 78 l 2
EndSplineSet
Validated: 1
EndChar

StartChar: dagger
Encoding: 8224 8224 217
Width: 500
VWidth: 833
GlyphClass: 2
Flags: W
HStem: -12 21G<242 260> 322 51<101.416 223 279 400.584> 476 20G<242 259.5>
VStem: 223 56<-11.353 322 373 495.299>
LayerCount: 2
Fore
SplineSet
376 373 m 2
 388 373 401 362 401 348 c 0
 401 334 389 322 376 322 c 2
 279 322 l 1
 279 19 l 2
 279 1 269 -12 251 -12 c 0
 233 -12 223 -1 223 19 c 2
 223 322 l 1
 126 322 l 2
 113 322 101 334 101 348 c 0
 101 362 114 373 126 373 c 2
 223 373 l 1
 223 464 l 2
 223 484 233 496 251 496 c 0
 268 496 279 482 279 464 c 2
 279 373 l 1
 376 373 l 2
EndSplineSet
Validated: 1
EndChar

StartChar: daggerdbl
Encoding: 8225 8225 218
Width: 500
VWidth: 833
GlyphClass: 2
Flags: W
HStem: -12 21G<242.5 260> 114 50<102.415 222 279 400.552> 322 50<101.416 222 279 400.584> 476 20G<242.5 259.5>
VStem: 222 57<-11.0784 114 164 322 372 495.075>
LayerCount: 2
Fore
SplineSet
376 372 m 2
 388 372 401 362 401 348 c 0
 401 334 389 322 376 322 c 2
 279 322 l 1
 279 164 l 1
 376 164 l 2
 389 164 401 154 401 140 c 0
 401 126 388 114 376 114 c 2
 279 114 l 1
 279 19 l 2
 279 0 269 -12 251 -12 c 0
 234 -12 222 1 222 19 c 2
 222 114 l 1
 126 114 l 2
 114 114 102 126 102 140 c 0
 102 154 113 164 126 164 c 2
 222 164 l 1
 222 322 l 1
 126 322 l 2
 113 322 101 334 101 348 c 0
 101 362 114 372 126 372 c 2
 222 372 l 1
 222 464 l 2
 222 483 234 496 251 496 c 0
 268 496 279 482 279 464 c 2
 279 372 l 1
 376 372 l 2
EndSplineSet
Validated: 1
EndChar

StartChar: bullet
Encoding: 8226 8226 219
Width: 500
VWidth: 833
GlyphClass: 2
Flags: W
HStem: 213 131<202.85 299.15>
VStem: 186 130<229.85 326.697>
LayerCount: 2
Fore
SplineSet
186 278 m 0
 186 315 215 344 251 344 c 0
 287 344 316 314 316 278 c 0
 316 242 287 213 251 213 c 0
 215 213 186 241 186 278 c 0
EndSplineSet
Validated: 1
EndChar

StartChar: ellipsis
Encoding: 8230 8230 220
Width: 500
VWidth: 833
GlyphClass: 2
Flags: W
HStem: -12 114<38.4414 126.745 205.848 294.745 373.848 462.152>
VStem: 26 114<0.441406 88.7451> 193 115<0.441406 88.7451> 361 114<-0.0782204 89.6194>
CounterMasks: 1 70
LayerCount: 2
Fore
SplineSet
193 44 m 0
 193 76 218 102 250 102 c 0
 282 102 308 76 308 44 c 0
 308 12 282 -12 250 -12 c 0
 218 -12 193 13 193 44 c 0
361 44 m 0
 361 76 386 102 418 102 c 0
 450 102 475 76 475 44 c 0
 475 12 450 -12 418 -12 c 0
 386 -12 361 13 361 44 c 0
26 44 m 0
 26 76 50 102 82 102 c 0
 114 102 140 76 140 44 c 0
 140 12 114 -12 82 -12 c 0
 50 -12 26 13 26 44 c 0
EndSplineSet
Validated: 1
EndChar

StartChar: perthousand
Encoding: 8240 8240 221
Width: 500
VWidth: 833
GlyphClass: 2
Flags: W
HStem: -1 48<123.021 230.979 380.318 487.586> 171 47<123.239 230.979 380.536 487.586> 179 45<-31.9543 -15> 290 45<275 290.961> 294 48<28.0214 135.979> 466 48<28.2394 135.979>
VStem: -37 50<357.843 450.157> 58 50<62.8425 155.07> 151 50<357.843 450.157> 246 50<62.8425 155.07> 315 51<62.3604 155.552> 502 50<62.3604 155.552>
LayerCount: 2
Fore
SplineSet
-37 404 m 0x8ff0
 -37 466 13 514 82 514 c 0
 152 514 201 466 201 404 c 0
 201 342 152 294 82 294 c 0
 12 294 -37 342 -37 404 c 0x8ff0
13 404 m 0
 13 368 40 342 82 342 c 0
 124 342 151 368 151 404 c 0
 151 440 124 466 82 466 c 0
 40 466 13 440 13 404 c 0
258 332 m 2
 262 334 266 335 269 335 c 0
 282 335 291 325 291 312 c 0
 291 303 285 294 275 290 c 2
 2 182 l 2
 -2 180 -7 179 -10 179 c 0
 -23 179 -32 190 -32 202 c 0
 -32 211 -25 220 -15 224 c 2xb7f0
 258 332 l 2
58 109 m 0
 58 171 108 218 177 218 c 0xc7f0
 247 218 296 171 296 109 c 0
 296 47 247 -1 177 -1 c 0
 107 -1 58 47 58 109 c 0
108 109 m 0
 108 73 135 47 177 47 c 0
 219 47 246 73 246 109 c 0
 246 145 219 171 177 171 c 0
 135 171 108 145 108 109 c 0
315 109 m 0
 315 171 365 218 434 218 c 0
 504 218 552 171 552 109 c 0
 552 47 504 -1 434 -1 c 0
 364 -1 315 47 315 109 c 0
366 109 m 0
 366 73 392 47 434 47 c 0
 476 47 502 73 502 109 c 0
 502 145 476 171 434 171 c 0
 392 171 366 145 366 109 c 0
EndSplineSet
Validated: 1
EndChar

StartChar: guilsinglleft
Encoding: 8249 8249 222
Width: 500
VWidth: 833
GlyphClass: 2
Flags: W
HStem: 38 300<275 297>
VStem: 193 115
LayerCount: 2
Fore
SplineSet
252 188 m 1
 305 74 l 2
 307 70 308 66 308 62 c 0
 308 48 297 38 284 38 c 0
 275 38 267 43 262 52 c 2
 199 169 l 2
 195 177 193 183 193 188 c 0
 193 193 195 199 199 207 c 2
 262 324 l 2
 267 332 275 338 284 338 c 0
 297 338 308 328 308 314 c 0
 308 310 307 306 305 302 c 2
 252 188 l 1
EndSplineSet
Validated: 1
EndChar

StartChar: guilsinglright
Encoding: 8250 8250 223
Width: 500
VWidth: 833
GlyphClass: 2
Flags: W
HStem: 38 300<204 226>
VStem: 193 115
LayerCount: 2
Fore
SplineSet
250 188 m 1
 196 302 l 2
 194 306 193 310 193 314 c 0
 193 328 204 338 217 338 c 0
 226 338 234 332 239 323 c 2
 302 207 l 2
 306 199 308 193 308 188 c 0
 308 183 306 177 302 169 c 2
 239 52 l 2
 234 44 226 38 217 38 c 0
 204 38 193 48 193 62 c 0
 193 66 194 70 196 74 c 2
 250 188 l 1
EndSplineSet
Validated: 1
EndChar

StartChar: fraction
Encoding: 8260 8260 224
Width: 500
VWidth: 833
GlyphClass: 2
Flags: W
VStem: 95 324
LayerCount: 2
Fore
SplineSet
159 -11 m 2
 149 -33 141 -46 123 -46 c 0
 108 -46 95 -34 95 -18 c 0
 95 -13 97 -7 99 -1 c 2
 353 547 l 2
 365 571 373 582 390 582 c 0
 405 582 419 571 419 555 c 0
 419 550 417 545 415 540 c 2
 159 -11 l 2
EndSplineSet
Validated: 1
EndChar

StartChar: trademark
Encoding: 8482 8482 225
Width: 500
VWidth: 833
GlyphClass: 2
Flags: W
HStem: 281 45<74.0262 118 162 204.974 305 335.974 364.026 394 434 455.974> 468 45<91 118 162 188>
VStem: 48 42<401.024 468> 118 44<326 468> 190 42<401.026 468> 245 91<281.146 325.668> 266 39<326 441> 364 92<281.253 325.679> 394 40<326 441>
LayerCount: 2
Fore
SplineSet
350 404 m 1xfa
 375 493 l 2
 378 505 388 512 402 512 c 2
 428 512 l 2
 440 512 448 504 448 491 c 0
 448 479 442 471 430 469 c 1
 434 326 l 1xfa80
 449 324 456 316 456 303 c 0
 456 290 447 281 435 281 c 2
 391 281 l 2
 373 281 364 288 364 303 c 0xf9
 364 318 373 326 391 326 c 2
 394 326 l 1
 394 441 l 1
 373 364 l 2
 369 350 363 344 350 344 c 0
 337 344 330 350 326 364 c 2
 305 441 l 1
 305 326 l 1xfa80
 308 326 l 2
 327 326 336 319 336 303 c 0xfc
 336 288 328 281 310 281 c 2
 266 281 l 2xfa
 254 281 245 289 245 303 c 0xfc
 245 317 251 324 266 326 c 1
 270 469 l 1
 258 471 252 479 252 491 c 0
 252 504 260 512 272 512 c 2
 298 512 l 2
 312 512 323 505 326 493 c 2
 350 404 l 1xfa
90 431 m 2
 89 409 85 401 68 401 c 0
 53 401 48 409 48 428 c 2
 48 432 l 1
 49 492 l 2
 49 505 58 513 71 513 c 2
 208 513 l 2
 221 513 229 505 230 492 c 2
 232 432 l 1
 232 422 l 2
 232 410 224 401 212 401 c 0
 195 401 191 409 190 431 c 2
 188 468 l 1
 162 468 l 1
 162 326 l 1
 177 326 l 2
 197 326 205 321 205 303 c 0
 205 291 196 281 184 281 c 2
 95 281 l 2
 83 281 74 290 74 303 c 0
 74 321 82 326 103 326 c 2
 118 326 l 1
 118 468 l 1
 91 468 l 1
 90 431 l 2
EndSplineSet
Validated: 1
EndChar

StartChar: minus
Encoding: 8722 8722 226
Width: 500
VWidth: 833
GlyphClass: 2
Flags: W
HStem: 218 76<63 438>
LayerCount: 2
Fore
SplineSet
81 218 m 2
 70 218 63 226 63 237 c 2
 63 278 l 2
 63 287 70 294 81 294 c 2
 418 294 l 2
 430 294 438 287 438 278 c 2
 438 237 l 2
 438 228 429 218 418 218 c 2
 81 218 l 2
EndSplineSet
Validated: 1
EndChar

StartChar: fi
Encoding: 64257 64257 227
Width: 500
VWidth: 833
GlyphClass: 2
Flags: W
HStem: 0 57<2.80566 94 156 250.345 278.706 364 426 501.523> 317 58<0.140594 91 156 262.937 288 364> 453 107<354.619 431.596> 472 61<169.853 297.638>
VStem: 94 62<57 317 375 457.734> 287 139<319.522 375.167> 351 83<454.666 557.652> 364 62<58 318>
LayerCount: 2
Fore
SplineSet
217 57 m 2xdc
 240 57 251 49 251 29 c 0
 251 10 240 0 218 0 c 2
 37 0 l 2
 15 0 2 10 2 29 c 0
 2 48 13 57 35 57 c 2
 94 57 l 1
 94 317 l 1
 55 317 l 2
 14 317 -1 325 -1 348 c 0
 -1 367 10 375 32 375 c 2
 91 375 l 1
 91 400 l 2
 91 488 148 533 245 533 c 0
 292 533 313 522 313 493 c 0
 313 475 301 462 287 462 c 0
 272 462 250 472 222 472 c 0
 177 472 154 445 154 393 c 0
 154 387 154 382 155 375 c 1
 230 375 l 2
 253 375 264 368 264 348 c 0
 264 328 252 317 228 317 c 2
 156 317 l 1
 156 57 l 1
 217 57 l 2xdc
426 58 m 1xc9
 472 58 l 2
 493 58 502 49 502 29 c 0
 502 6 492 0 468 0 c 2
 312 0 l 2
 290 0 278 10 278 29 c 0
 278 48 290 58 312 58 c 2
 364 58 l 1
 364 318 l 1xc9
 346 318 l 1
 325 318 l 2
 298 318 287 327 287 348 c 0
 287 367 297 376 319 376 c 2
 402 376 l 2
 418 376 426 369 426 359 c 2xcc
 426 58 l 1xc9
351 493 m 0xea
 351 547 355 560 393 560 c 0
 431 560 434 547 434 505 c 0
 434 463 431 453 392 453 c 0
 358 453 351 460 351 493 c 0xea
EndSplineSet
Validated: 1
EndChar

StartChar: fl
Encoding: 64258 64258 228
Width: 500
VWidth: 833
GlyphClass: 2
Flags: W
HStem: 0 58<2.80566 94 156 250.345 278.706 364 426 501.482> 318 58<-0.0478516 91 156 263.117> 472 63<173.489 364>
VStem: 94 62<58 318 376 456.207> 364 62<58 474>
LayerCount: 2
Fore
SplineSet
217 58 m 2
 240 58 251 48 251 29 c 0
 251 10 240 0 218 0 c 2
 37 0 l 2
 15 0 2 10 2 29 c 0
 2 48 13 58 35 58 c 2
 94 58 l 1
 94 318 l 1
 38 318 l 2
 12 318 -1 328 -1 348 c 0
 -1 369 11 376 37 376 c 2
 91 376 l 1
 91 400 l 2
 91 499 149 535 278 535 c 0
 302 535 324 532 342 532 c 2
 402 532 l 2
 418 532 426 526 426 516 c 2
 426 58 l 1
 468 58 l 2
 491 58 502 50 502 29 c 0
 502 6 492 0 468 0 c 2
 312 0 l 2
 290 0 278 10 278 29 c 0
 278 48 289 58 312 58 c 2
 364 58 l 1
 364 474 l 1
 312 474 l 2
 301 474 291 472 282 472 c 0
 263 472 246 478 228 478 c 0
 183 478 154 446 154 393 c 0
 154 387 154 382 155 376 c 1
 219 376 l 2
 250 376 264 371 264 348 c 0
 264 328 252 318 227 318 c 2
 156 318 l 1
 156 58 l 1
 217 58 l 2
EndSplineSet
Validated: 1
EndChar
